/* XPM */
static char *STEPS__2_1706280607[] = {
/* columns rows colors chars-per-pixel */
"50 50 128 2 ",
"   c #000000",
".  c #000800",
"X  c #0C010D",
"o  c #000D0D",
"O  c #0E140F",
"+  c #050C10",
"@  c #130113",
"#  c #001515",
"$  c #021919",
"%  c #181418",
"&  c #200020",
"*  c #2B002B",
"=  c #3D003D",
"-  c #002626",
";  c #013131",
":  c #273030",
">  c #353535",
",  c #420042",
"<  c #4A004A",
"1  c #560156",
"2  c #580158",
"3  c #610261",
"4  c #004444",
"5  c #014E4E",
"6  c #025151",
"7  c #005B50",
"8  c #025B5B",
"9  c #006767",
"0  c #545555",
"q  c #4E6B6B",
"w  c #777777",
"e  c #7C7D7C",
"r  c #5B5CB3",
"t  c #890087",
"y  c #89028A",
"u  c #970297",
"i  c #9E329E",
"p  c #AB269E",
"a  c #A400A4",
"s  c #AA01AA",
"d  c #A432A4",
"f  c #C705CB",
"g  c #CB04CB",
"h  c #D407D8",
"j  c #DB05DD",
"k  c #D533D5",
"l  c #E104E2",
"z  c #ED00ED",
"x  c #F700F7",
"c  c #FF00FF",
"v  c #FD0CFA",
"b  c #FA17FA",
"n  c #F71BFA",
"m  c #ED30ED",
"M  c #FC25FC",
"N  c #FD2CFD",
"B  c #B058FF",
"V  c #AB6BFC",
"C  c #C662C6",
"Z  c #D37DD3",
"A  c #DE7EDE",
"S  c #FD47FD",
"D  c #FF56FF",
"F  c #EE7CEE",
"G  c #FD62FD",
"H  c #FF6AFF",
"J  c #F87CF8",
"K  c #008B8B",
"L  c #00908F",
"P  c #019091",
"I  c #009B9B",
"U  c #348686",
"Y  c #01A7A7",
"T  c #00ABAB",
"R  c #10A5A5",
"E  c #00B0B0",
"W  c #03B8B8",
"Q  c #35A6A6",
"!  c #64A6D7",
"~  c #04D1D3",
"^  c #04DCDE",
"/  c #07DDE1",
"(  c #03E4E5",
")  c #07EAEE",
"_  c #0EEFEF",
"`  c #1AEEEE",
"'  c #00F4F4",
"]  c #01FEFE",
"[  c #0AFAFA",
"{  c #15FFFF",
"}  c #18FCFC",
"|  c #28FFFF",
" . c #31F9F9",
".. c #3CFBFD",
"X. c #7FD8D8",
"o. c #4EFDFD",
"O. c #50F1F1",
"+. c #55F9F9",
"@. c #7FEEEE",
"#. c #64FEFE",
"$. c #6FFFFF",
"%. c #75F1F1",
"&. c #7FF1F1",
"*. c #75FDFD",
"=. c #78FEFE",
"-. c #9A9A99",
";. c #C7BFC7",
":. c #EF83EF",
">. c #FD8DFD",
",. c #FFA1FF",
"<. c #FEAFFE",
"1. c #FFB1FF",
"2. c #8CFEFE",
"3. c #92FEFE",
"4. c #99FEFE",
"5. c #A9F9F9",
"6. c #BBFFFF",
"7. c #EFCAEF",
"8. c #FFC1FF",
"9. c #FFCAFF",
"0. c #C1FFFE",
"q. c #CDFFFF",
"w. c #DBFFFF",
"e. c #F9EBF9",
"r. c #E6FFFF",
"t. c #EDFFFF",
"y. c #FFF4FF",
"u. c #FEFEFE",
/* pixels */
"                                                                                                    ",
"                                                                                                    ",
"                                                                                                    ",
"                                                                                                    ",
"                                                                                                    ",
"                                                                          .                         ",
"                    @ , 2 2 1 2 2 2 2 2 2 2 2 2 2 2 2 2 2 2 2 2 1 = @                               ",
"                @ u z c D ,.8.9.9.9.9.9.9.9.9.9.9.9.9.9.9.9.9.9.9.9.7.;.-.q 4 o     .               ",
"              * l c M 9.u.u.u.u.u.u.u.u.u.u.u.u.u.u.u.u.u.u.u.u.u.u.u.u.u.u.6.` I $                 ",
"            @ j c M e.u.y.u.u.u.u.u.u.u.u.y.u.u.u.u.y.u.u.u.u.u.u.u.u.u.u.u.u.w.{ ( ;   .           ",
"            t c c 8.u.y.u.u.u.u.u.u.u.u.u.u.u.u.u.u.u.u.u.u.u.u.u.u.u.u.u.u.t.u.5.] ( #             ",
"          X j c S u.u.u.u.u.u.u.u.u.u.u.u.u.u.u.u.u.u.u.u.u.u.u.u.u.u.u.u.u.u.u.u. .] P             ",
"          * c c >.u.u.u.u.u.u.u.u.u.u.u.u.u.u.u.u.u.u.u.u.u.u.y.u.y.u.u.u.u.u.u.u.*.] ( +           ",
"          = c c <.u.y.u.u.u.u.q.0.q.q.q.q.q.q.q.q.q.q.q.0.q.q.q.q.0.q.u.u.u.u.u.u.3.] ] ;           ",
"          = c c <.u.y.u.u.u.r.[ ] W 4 7 8 8 8 8 6 8 8 8 8 8 7 7 r B V y.u.u.u.u.u.4.] ] 4           ",
"          = c c <.u.u.u.u.u.r.[ ] K   .                         t c v y.u.u.u.u.u.4.] ] 4           ",
"          = c c 1.u.u.u.u.u.r.[ ] P   .   .     .   .     . X   y c n y.u.u.u.u.u.4.] ] 4   .       ",
"          = c c <.u.y.u.u.u.r.[ ] P                             y c b y.u.u.u.u.u.3.] ] 4           ",
"          = c c 1.u.y.u.u.u.r.[ ] P   .       . .   +       X   y c b y.u.u.u.u.u.4.] ] 4           ",
"          = c c <.u.u.u.u.u.r.[ ] P   X X X X X @               y c b y.u.u.u.u.u.4.] ] 4           ",
"          = c c 1.u.u.u.u.u.r.[ ] P X g x m :.F J Z e e : o o   y c b y.u.u.u.t.u.4.] ] 4           ",
"          = c c <.u.y.u.u.u.r.[ ] L   h c H u.u.u.u.u.u.+.' ~ . t c b y.u.u.u.u.u.4.] ] 4   .       ",
"          = c c <.u.u.u.u.u.r.[ ] L   h c G u.y.u.u.u.u.o.] / . t c b y.u.u.u.u.u.4.] ] 4           ",
"          = c c 1.u.u.u.u.u.r.[ ] L   h c G u.u.u.u.u.u.o.] / . t c b y.u.u.u.u.u.4.] ] 4           ",
"          , c c <.u.y.u.u.u.r.[ ] P . h c G u.u.u.u.u.u.o.] / . t c b y.u.u.u.u.u.4.] ] 4           ",
"          , c c 1.u.u.u.u.u.r.[ ] P   l c G u.u.u.y.u.u.O.] ^ . t c b y.u.u.u.u.u.4.] ] 4   .       ",
"          = c c 1.u.u.u.u.u.r.[ ] P   y a C u.y.u.u.u.u.o.] ) . t c b y.u.u.u.u.u.4.] ] 4           ",
"          = c c 1.u.y.u.u.u.r.[ ] P   .   O > > U Q Q Q R T P . y c b y.u.u.u.u.u.4.] ] 4           ",
"          = c c <.u.y.u.u.u.r.[ ] P                             y c b y.u.u.u.u.u.4.] ] 4   .       ",
"          = c c 1.u.u.u.u.u.r.[ ] P   .         X .             y c b y.u.u.u.u.u.4.] ] 4           ",
"          = c c 1.u.u.u.u.u.r.[ ] P                         X   y c b y.u.u.u.u.u.4.] ] 4           ",
"          = c c 1.u.y.u.u.u.r.[ ] P   . .         .             y c b y.u.u.u.u.u.4.] ] 4           ",
"          = c c <.u.y.u.u.u.r.] ] K                             t c b y.u.u.u.u.u.3.] ] 4           ",
"          = c c <.u.u.u.u.u.r...| ! p d d d d i d d d d i i d i k N S y.u.u.u.u.u.4.] ] 4           ",
"          & c c ,.u.u.u.u.u.u.u.u.u.u.u.u.u.u.u.u.u.y.u.u.u.u.u.u.u.y.u.u.u.u.u.u.2.] ] 4           ",
"            f c J u.y.u.u.u.u.u.u.u.u.u.u.u.u.u.u.u.u.u.u.u.u.u.u.u.u.u.u.u.u.u.u.#.] ] -           ",
"            3 c M u.u.u.u.u.u.u.u.u.u.u.y.u.u.u.u.u.u.u.u.u.u.u.u.u.u.u.u.u.u.u.t.} ] ~             ",
"              s x >.u.u.u.u.u.u.u.u.u.u.u.u.u.u.u.u.u.u.u.u.u.u.u.u.u.u.u.u.u.u.=.] ] 9             ",
"                a c 1.u.u.u.u.u.u.t.u.u.u.u.u.u.u.u.u.t.u.u.u.u.u.u.u.u.u.u.u.4.] ] E               ",
"                  < a A e.u.u.u.u.u.u.u.u.u.u.u.u.u.u.u.u.u.u.u.u.u.u.u.u.r.$.] ] Y .               ",
"                        % 0 w -.2.X.@.@.@.&.2.@.@.@.@.2.@.@.@.2.@.@.2.%.O._ ^ T 5                   ",
"                                  o o o o o o o o o o o o o o o + o . o o o o                       ",
"                          + .                                                                       ",
"                                                                                                    ",
"                                                                                                    ",
"                                                                                                    ",
"                                                                                                    ",
"                                                                                                    ",
"                                                                                                    ",
"                                                                                                    "
};
