/* XPM */
static char *STEPSn__1_1706283933[] = {
/* columns rows colors chars-per-pixel */
"50 50 71 1 ",
"  c black",
". c #000404",
"X c #000909",
"o c #000C0C",
"O c #120012",
"+ c #240024",
"@ c #280028",
"# c #370037",
"$ c #002D2D",
"% c #003333",
"& c #202020",
"* c #313131",
"= c #3F313F",
"- c #4B004B",
"; c #550055",
": c #590059",
"> c #004141",
", c #004343",
"< c #005B5B",
"1 c #007373",
"2 c #2D6060",
"3 c gray37",
"4 c gray50",
"5 c #AA00AA",
"6 c #AA24AA",
"7 c #AA31AA",
"8 c #E000E0",
"9 c magenta",
"0 c #F431F4",
"q c #FF31FF",
"w c #8F5BEB",
"e c #A35BFF",
"r c #FF64FF",
"t c #00A1A1",
"y c #00A9A9",
"u c #00AEAE",
"i c #00BDBD",
"p c #7F8C8C",
"a c #00D7D7",
"s c #04E7E7",
"d c #00EAEA",
"f c #00EBEB",
"g c cyan",
"h c #3AEFF8",
"j c #27FFFF",
"k c #31FFFF",
"l c #47FFFF",
"z c #50FFFF",
"x c #5FFFFF",
"c c #71FFFF",
"v c #7FFFFF",
"b c #898D8D",
"n c #BAA3BA",
"m c #C79BFF",
"M c #FF81FF",
"N c #FFA0FF",
"B c #FFBDFF",
"V c #8FFFFF",
"C c #A4E2E2",
"Z c #A4FFFF",
"A c #A6FFFF",
"S c #C5C3C5",
"D c gainsboro",
"F c #F3D7F3",
"G c #FFD9FF",
"H c #DCE0E0",
"J c #D9FFFF",
"K c #DCFFFF",
"L c #E9FFFF",
"P c #FBFFFF",
"I c white",
/* pixels */
"                                                  ",
"                                                  ",
"                                                  ",
"                                                  ",
"                                                  ",
"                                                  ",
"     O;;;;;;;;;;;;;-@                             ",
"     #99NGGGGGGGGGGGGFSb2%                        ",
"     #99BIIIIIIIIIIIIIIIPVs1.                     ",
"     #99BIIIIIIIIIIIIIIIIIAgio                    ",
"     #99BIIIIIIIIIIIIIIIIIIxgy                    ",
"     #99BIIIIIIIIIIIIIIIIIIJgg>                   ",
"     #99BIIIIIIIIIIIIIIIIIIIjgt                   ",
"     O::nDHKKKKKKKKKKLIIIIIIlga                   ",
"          X<<<<<<<<wemIIIIIIzgd                   ",
"                   89rIIIIIIzgd                   ",
"                   89rIIIIIIzgd                   ",
"                   89rIIIIIIzgd                   ",
"                   89rIIIIIIzgf                   ",
"                   89rIIIIIIzgf                   ",
"                   89rIIIIIIzgd                   ",
"                   89rIIIIIIzgd                   ",
"                   89rIIIIIIzgf                   ",
"                   89rIIIIIIzgf                   ",
"                   89rIIIIIIzgd                   ",
"                   89rIIIIIIzgd                   ",
"                   89rIIIIIIzgf                   ",
"                   89rIIIIIIzgf                   ",
"                   89rIIIIIIzgd                   ",
"                   89rIIIIIIzgd                   ",
"                   89rIIIIIIzgf                   ",
"                   89rIIIIIIzgf                   ",
"                   89rIIIIIIzgd                   ",
"     +55677777777770qMIIIIIIckh77777777=*&        ",
"     #99BIIIIIIIIIIIIIIIIIIIIIIIIIIIIIIIICuu$     ",
"     #99BIIIIIIIIIIIIIIIIIIIIIIIIIIIIIIIIAgg>     ",
"     #99BIIIIIIIIIIIIIIIIIIIIIIIIIIIIIIIIAgg>     ",
"     #99BIIIIIIIIIIIIIIIIIIIIIIIIIIIIIIIIAgg,     ",
"     #99BIIIIIIIIIIIIIIIIIIIIIIIIIIIIIIIIZgg,     ",
"     #99BIIIIIIIIIIIIIIIIIIIIIIIIIIIIIIIIZgg,     ",
"        34pvvvvvvvvvvvvvvvvvvvvvvvvvvvvvvzgg>     ",
"                                                  ",
"                                                  ",
"                                                  ",
"                                                  ",
"                                                  ",
"                                                  ",
"                                                  ",
"                                                  ",
"                                                  "
};
