/* XPM */
static char *STEPSn__3_1706283973[] = {
/* columns rows colors chars-per-pixel */
"50 50 105 2 ",
"   c black",
".  c #060006",
"X  c #000505",
"o  c #090009",
"O  c #000909",
"+  c #000E0E",
"@  c #120012",
"#  c #150015",
"$  c #001111",
"%  c #001717",
"&  c #001B1B",
"*  c #310031",
"=  c #370037",
"-  c #002D2D",
";  c #003333",
":  c #003636",
">  c #003C3C",
",  c #202020",
"<  c #313131",
"1  c #3F313F",
"2  c #440044",
"3  c #510051",
"4  c #550055",
"5  c #590059",
"6  c #5F005F",
"7  c #004343",
"8  c #005B5B",
"9  c #005E5E",
"0  c #007777",
"q  c gray37",
"w  c #4F6F6F",
"e  c gray50",
"r  c #595BB5",
"t  c #8B008B",
"y  c #A600A6",
"u  c #A900A9",
"i  c #B000B0",
"p  c #AA31AA",
"a  c #D100D1",
"s  c #E400E4",
"d  c magenta",
"f  c #FF05FF",
"g  c #FA0EFA",
"h  c #FF11FF",
"j  c #FF28FF",
"k  c #A35BFF",
"l  c #A966FF",
"z  c #FD53FD",
"x  c #FD73FD",
"c  c #FD7EFD",
"v  c #FF7CFF",
"b  c #009696",
"n  c #00A0A0",
"m  c #00AEAE",
"M  c #06B0B0",
"N  c #00BDBD",
"B  c #25B0B0",
"V  c #33B0B0",
"C  c #7F8C8C",
"Z  c #63AADC",
"A  c #33DEDE",
"S  c #00E7E7",
"D  c #00E8E8",
"F  c #00EFEF",
"G  c #00FBFB",
"H  c cyan",
"J  c #06FFFF",
"K  c #1EF7F7",
"L  c #19FFFF",
"P  c #2AFFFF",
"I  c #33FFFF",
"U  c #47FFFF",
"Y  c #4CFFFF",
"T  c #52FFFF",
"R  c #5EFFFF",
"E  c #76FFFF",
"W  c #7FFFFF",
"Q  c #A4A4A4",
"!  c #BAA3BA",
"~  c #FF82FF",
"^  c #FF86FF",
"/  c #FF97FF",
"(  c #FFA0FF",
")  c #FFABFF",
"_  c #FFBDFF",
"`  c #85FFFF",
"'  c #9AFFFF",
"]  c #A4E2E2",
"[  c #A1FFFF",
"{  c #A4FFFF",
"}  c #A8FFFF",
"|  c #B2FFFF",
" . c #D4CBD4",
".. c gainsboro",
"X. c #FFD9FF",
"o. c #DCE0E0",
"O. c #C7FFFF",
"+. c #DCFFFF",
"@. c #E2FFFF",
"#. c #FFF3FF",
"$. c #F3FFFF",
"%. c #F5FFFF",
"&. c #FFFBFF",
"*. c #FBFFFF",
"=. c white",
/* pixels */
"                                                                                                    ",
"                                                                                                    ",
"                                                                                                    ",
"                                                                                                    ",
"                                                                                                    ",
"                                                                                                    ",
"          @ 4 4 4 4 4 4 4 4 4 4 4 4 4 4 4 4 4 4 4 4 4 4 4 4 4 4 3 = .                               ",
"          = d d ( X.X.X.X.X.X.X.X.X.X.X.X.X.X.X.X.X.X.X.X.X.X.X.X.X.X. .Q w > +                     ",
"          = d d _ =.=.=.=.=.=.=.=.=.=.=.=.=.=.=.=.=.=.=.=.=.=.=.=.=.=.=.=.=.O.K n &                 ",
"          = d d _ =.=.=.=.=.=.=.=.=.=.=.=.=.=.=.=.=.=.=.=.=.=.=.=.=.=.=.=.=.=.@.L D ;               ",
"          = d d _ =.=.=.=.=.=.=.=.=.=.=.=.=.=.=.=.=.=.=.=.=.=.=.=.=.=.=.=.=.=.=.| H S %             ",
"          = d d _ =.=.=.=.=.=.=.=.=.=.=.=.=.=.=.=.=.=.=.=.=.=.=.=.=.=.=.=.=.=.=.=.I H b             ",
"          = d d _ =.=.=.=.=.=.=.=.=.=.=.=.=.=.=.=.=.=.=.=.=.=.=.=.=.=.=.=.=.=.=.=.E H F X           ",
"          @ 5 5 ! ..o.+.+.+.+.+.+.+.+.+.+.+.+.+.+.+.+.+.+.+.+.+.+.+.+.=.=.=.=.=.=.' H H -           ",
"                    O 8 8 8 8 8 8 8 8 8 8 8 8 8 8 8 8 8 8 8 8 8 r k l =.=.=.=.=.=.{ H H 7           ",
"                                                                t d h =.=.=.=.=.=.{ H H 7           ",
"                                                                t d h =.=.=.=.=.=.{ H H 7           ",
"                                                                t d h =.=.=.=.=.=.{ H H 7           ",
"                                                                t d h =.=.=.=.=.=.{ H H 7           ",
"                                                                t d h =.=.=.=.=.=.{ H H 7           ",
"                  2 u s g z x c c c c c c c c c c c c c c c c c c c ^ =.=.=.=.=.=.[ H H 7           ",
"              o y d f ~ #.=.=.=.=.=.=.=.=.=.=.=.=.=.=.=.=.=.=.=.=.=.=.=.=.=.=.=.=.` H H :           ",
"              i d f _ =.=.=.=.=.=.=.=.=.=.=.=.=.=.=.=.=.=.=.=.=.=.=.=.=.=.=.=.=.=.Y H G $           ",
"            6 d d / =.=.=.=.=.=.=.=.=.=.=.=.=.=.=.=.=.=.=.=.=.=.=.=.=.=.=.=.=.=.+.J H N             ",
"            a d j &.=.=.=.=.=.=.=.=.=.=.=.=.=.=.=.=.=.=.=.=.=.=.=.=.=.=.=.=.=.*.U H H >             ",
"          # d d c =.=.=.=.=.=.=.=.=.=.=.=.=.=.=.=.=.=.=.=.=.=.=.=.=.=.=.=.=.%.R H H 0               ",
"          * d d ) =.=.=.=.=.=.=.=.=.=.=.=.=.=.=.=.=.=.=.=.=.=.=.=.=.=.=.$.} P H D 9                 ",
"          = d d _ =.=.=.=.=.%.I I A V V V V V V V V V V V V V V V V V B M m b 9 +                   ",
"          = d d _ =.=.=.=.=.%.H H b                                                                 ",
"          = d d _ =.=.=.=.=.%.H H b                                                                 ",
"          = d d _ =.=.=.=.=.%.H H b                                                                 ",
"          = d d _ =.=.=.=.=.%.H H b                                                                 ",
"          = d d _ =.=.=.=.=.%.H H b                                                                 ",
"          = d d _ =.=.=.=.=.%.I I Z p p p p p p p p p p p p p p p p p p p p p 1 < ,                 ",
"          = d d _ =.=.=.=.=.=.=.=.=.=.=.=.=.=.=.=.=.=.=.=.=.=.=.=.=.=.=.=.=.=.=.=.] m m -           ",
"          = d d _ =.=.=.=.=.=.=.=.=.=.=.=.=.=.=.=.=.=.=.=.=.=.=.=.=.=.=.=.=.=.=.=.{ H H 7           ",
"          = d d _ =.=.=.=.=.=.=.=.=.=.=.=.=.=.=.=.=.=.=.=.=.=.=.=.=.=.=.=.=.=.=.=.{ H H 7           ",
"          = d d _ =.=.=.=.=.=.=.=.=.=.=.=.=.=.=.=.=.=.=.=.=.=.=.=.=.=.=.=.=.=.=.=.{ H H 7           ",
"          = d d _ =.=.=.=.=.=.=.=.=.=.=.=.=.=.=.=.=.=.=.=.=.=.=.=.=.=.=.=.=.=.=.=.{ H H 7           ",
"          = d d _ =.=.=.=.=.=.=.=.=.=.=.=.=.=.=.=.=.=.=.=.=.=.=.=.=.=.=.=.=.=.=.=.{ H H 7           ",
"                q e C W W W W W W W W W W W W W W W W W W W W W W W W W W W W W W T H H 7           ",
"                                                                                                    ",
"                                                                                                    ",
"                                                                                                    ",
"                                                                                                    ",
"                                                                                                    ",
"                                                                                                    ",
"                                                                                                    ",
"                                                                                                    ",
"                                                                                                    "
};
