/* XPM */
static char *STEPSn__5_1706284019[] = {
/* columns rows colors chars-per-pixel */
"50 50 101 2 ",
"   c black",
".  c #060006",
"X  c #000505",
"o  c #000909",
"O  c #000D0D",
"+  c #120012",
"@  c #001717",
"#  c #001B1B",
"$  c #250025",
"%  c #370037",
"&  c #380038",
"*  c #002020",
"=  c #002B2B",
"-  c #002D2D",
";  c #003333",
":  c #003D3D",
">  c gray15",
",  c gray20",
"<  c #333F3F",
"1  c #510051",
"2  c #550055",
"3  c #590059",
"4  c #014040",
"5  c #004343",
"6  c #004D4D",
"7  c #005B5B",
"8  c #006060",
"9  c #006A6A",
"0  c gray37",
"q  c #4F6F6F",
"w  c gray50",
"e  c #595BB5",
"r  c #8B008B",
"t  c #AA00AA",
"y  c #AC00AC",
"u  c #AA24AA",
"i  c #AA31AA",
"p  c #D931D9",
"a  c #FD00FD",
"s  c magenta",
"d  c #FF11FF",
"f  c #FF31FF",
"g  c #FF3EFF",
"h  c #A35BFF",
"j  c #A966FF",
"k  c #FD5DFD",
"l  c #FD7EFD",
"z  c #009494",
"x  c #00A1A1",
"c  c #00B1B1",
"v  c #00BABA",
"b  c #33B0B0",
"n  c #7F8C8C",
"m  c #5EB0DB",
"M  c #00D3D3",
"N  c #00D9D9",
"B  c #00DBDB",
"V  c #00E6E6",
"C  c #00EAEA",
"Z  c #00EFEF",
"A  c #00F2F2",
"S  c #02FFFF",
"D  c #0BFDFD",
"F  c #1DF7F7",
"G  c #13FFFF",
"H  c #19FFFF",
"J  c #27FFFF",
"K  c #2FFFFF",
"L  c #49FFFF",
"P  c #50FFFF",
"I  c #63FFFF",
"U  c #73FFFF",
"Y  c #76FFFF",
"T  c #7FFFFF",
"R  c #A3A4A4",
"E  c #BAA3BA",
"W  c #82B0FF",
"Q  c #89B5FF",
"!  c #FF86FF",
"~  c #E9BDE9",
"^  c #FFA0FF",
"/  c #FFBDFF",
"(  c #80FFFF",
")  c #89FFFF",
"_  c #90FFFF",
"`  c #9AFFFF",
"'  c #A4FFFF",
"]  c #ABFFFF",
"[  c #B2FFFF",
"{  c #D4CBD4",
"}  c gainsboro",
"|  c #FBD9FB",
" . c #FFD9FF",
".. c #DCE0E0",
"X. c #C7FFFF",
"o. c #D9FFFF",
"O. c #DCFFFF",
"+. c #E2FFFF",
"@. c azure",
"#. c #F5FFFF",
"$. c white",
/* pixels */
"                                                                                                    ",
"                                                                                                    ",
"                                                                                                    ",
"                                                                                                    ",
"                                                                                                    ",
"                                                                                                    ",
"          + 2 2 2 2 2 2 2 2 2 2 2 2 2 2 2 2 2 2 2 2 2 2 2 2 2 2 1 & .                               ",
"          % s s ^  . . . . . . . . . . . . . . . . . . . . . . . . .| { R q 5 O                     ",
"          % s s / $.$.$.$.$.$.$.$.$.$.$.$.$.$.$.$.$.$.$.$.$.$.$.$.$.$.$.$.$.X.F x #                 ",
"          % s s / $.$.$.$.$.$.$.$.$.$.$.$.$.$.$.$.$.$.$.$.$.$.$.$.$.$.$.$.$.$.+.H C ;               ",
"          % s s / $.$.$.$.$.$.$.$.$.$.$.$.$.$.$.$.$.$.$.$.$.$.$.$.$.$.$.$.$.$.$.[ S V @             ",
"          % s s / $.$.$.$.$.$.$.$.$.$.$.$.$.$.$.$.$.$.$.$.$.$.$.$.$.$.$.$.$.$.$.$.K S z             ",
"          % s s / $.$.$.$.$.$.$.$.$.$.$.$.$.$.$.$.$.$.$.$.$.$.$.$.$.$.$.$.$.$.$.$.Y S Z X           ",
"          + 3 3 E } ..O.O.O.O.O.O.O.O.O.O.O.O.O.O.O.O.O.O.O.O.O.O.o.O.$.$.$.$.$.$.` S S -           ",
"                    o 7 7 7 7 7 7 7 7 7 7 7 7 7 7 7 7 7 7 7 7 7 e h j $.$.$.$.$.$.' S S 5           ",
"                                                                r s d $.$.$.$.$.$.' S S 5           ",
"                                                                r s d $.$.$.$.$.$.' S S 5           ",
"                                                                r s d $.$.$.$.$.$.' S S 5           ",
"                                                                r s d $.$.$.$.$.$.' S S 5           ",
"                                                                r s d $.$.$.$.$.$.' S S 5           ",
"          % s s k l l l l l l l l l l l l l l l l l l l l l l l l l ! $.$.$.$.$.$.` S S 5           ",
"          % s s / $.$.$.$.$.$.$.$.$.$.$.$.$.$.$.$.$.$.$.$.$.$.$.$.$.$.$.$.$.$.$.$.Y S S ;           ",
"          % s s / $.$.$.$.$.$.$.$.$.$.$.$.$.$.$.$.$.$.$.$.$.$.$.$.$.$.$.$.$.$.$.o.D S M             ",
"          % s s / $.$.$.$.$.$.$.$.$.$.$.$.$.$.$.$.$.$.$.$.$.$.$.$.$.$.$.$.$.@.` G S B =             ",
"          % s s / $.$.$.$.$.$.$.$.$.$.$.$.$.$.$.$.$.$.$.$.$.$.$.$.$.$.$.$.$.$.+.L B :               ",
"          % s s / $.$.$.$.$.$.$.$.$.$.$.$.$.$.$.$.$.$.$.$.$.$.$.$.$.$.$.$.$.$.$.#.J S 8             ",
"          $ y y ~ $.$.$.$.$.$.$.$.$.$.$.$.$.$.$.$.$.$.$.$.$.$.$.$.$.$.$.$.$.$.$.$.) S A O           ",
"                > , < b b b b b b b b b b b b b b b b b b b b b m W Q $.$.$.$.$.$.' S S :           ",
"                                                                r s d $.$.$.$.$.$.' S S 5           ",
"                                                                r s d $.$.$.$.$.$.' S S 5           ",
"                                                                r s d $.$.$.$.$.$.' S S 5           ",
"                                                                r s d $.$.$.$.$.$.' S S 5           ",
"                                                                r s d $.$.$.$.$.$.' S S 5           ",
"          $ t t u i i i i i i i i i i i i i i i i i i i i i i i p f g $.$.$.$.$.$.' S S 5           ",
"          % s s / $.$.$.$.$.$.$.$.$.$.$.$.$.$.$.$.$.$.$.$.$.$.$.$.$.$.$.$.$.$.$.$._ S S :           ",
"          % s s / $.$.$.$.$.$.$.$.$.$.$.$.$.$.$.$.$.$.$.$.$.$.$.$.$.$.$.$.$.$.$.$.I S S *           ",
"          % s s / $.$.$.$.$.$.$.$.$.$.$.$.$.$.$.$.$.$.$.$.$.$.$.$.$.$.$.$.$.$.$.#.G S B             ",
"          % s s / $.$.$.$.$.$.$.$.$.$.$.$.$.$.$.$.$.$.$.$.$.$.$.$.$.$.$.$.$.$.$.( S S 9             ",
"          % s s / $.$.$.$.$.$.$.$.$.$.$.$.$.$.$.$.$.$.$.$.$.$.$.$.$.$.$.$.$.$.] S S v               ",
"          % s s / $.$.$.$.$.$.$.$.$.$.$.$.$.$.$.$.$.$.$.$.$.$.$.$.$.$.$.$.@.Y S S c O               ",
"                0 w n T T T T T T T T T T T T T T T T T T T T T T T T U P D C c 6                   ",
"                                                                                                    ",
"                                                                                                    ",
"                                                                                                    ",
"                                                                                                    ",
"                                                                                                    ",
"                                                                                                    ",
"                                                                                                    ",
"                                                                                                    ",
"                                                                                                    "
};
