/* XPM */
static char *STEPSn__7_1706284929[] = {
/* columns rows colors chars-per-pixel */
"50 50 60 1 ",
"  c black",
". c #0B000B",
"X c gray3",
"o c #120012",
"O c #001616",
"+ c #260026",
"@ c #2A002A",
"# c #2E002E",
"$ c #370037",
"% c #003333",
"& c #272C2C",
"* c #550055",
"= c #590059",
"- c #6C006C",
"; c #004343",
": c #005858",
"> c #336464",
", c gray50",
"< c #8B008B",
"1 c #933593",
"2 c #B300B3",
"3 c #E700E7",
"4 c #FB00FB",
"5 c magenta",
"6 c #FF0EFF",
"7 c #FF10FF",
"8 c #FF5EFF",
"9 c #FF63FF",
"0 c #FF72FF",
"q c #FD7EFD",
"w c #009696",
"e c #339191",
"r c #33ACAC",
"t c #33B0B0",
"y c #7FB6B6",
"u c #5EB0DB",
"i c cyan",
"p c #52FFFF",
"a c #7EFFFF",
"s c #8CABAB",
"d c #82B0FF",
"f c #89B5FF",
"g c #CCB2CC",
"h c #FF86FF",
"j c #FFA0FF",
"k c #FFBAFF",
"l c #FFBDFF",
"z c #B2CAFE",
"x c #A4FFFF",
"c c #D0D4D4",
"v c gray85",
"b c #DDD9DD",
"n c #EAD9EA",
"m c #FFD9FF",
"M c #FFECFF",
"N c #F9F6F9",
"B c #F5FFFF",
"V c #FFFBFF",
"C c #FAFFFF",
"Z c white",
/* pixels */
"                                                  ",
"                                                  ",
"                                                  ",
"                                                  ",
"                                                  ",
"                                                  ",
"     o******+                   #******.          ",
"     $55jmmmnvc::%              <56mmmmbvs::O     ",
"     $55lZZZZZBiiw              <57ZZZZZZxii;     ",
"     $55lZZZZZBiiw              <57ZZZZZZxii;     ",
"     $55lZZZZZBiiw              <57ZZZZZZxii;     ",
"     $55lZZZZZBiiw              <57ZZZZZZxii;     ",
"     $55lZZZZZBiiw              <57ZZZZZZxii;     ",
"     $55lZZZZZBiiw              <57ZZZZZZxii;     ",
"     $55lZZZZZBiiw              <57ZZZZZZxii;     ",
"     $55lZZZZZBiiw              <57ZZZZZZxii;     ",
"     $55lZZZZZBiiw              <57ZZZZZZxii;     ",
"     $55lZZZZZBiiw              <57ZZZZZZxii;     ",
"     $55lZZZZZBiiw              <57ZZZZZZxii;     ",
"     $55lZZZZZBiiw              <57ZZZZZZxii;     ",
"     @55kZZZZZCaazqqqqqqqqqqqqqqqqhZZZZZZxii;     ",
"     .45jZZZZZZZZZZZZZZZZZZZZZZZZZZZZZZZZxii;     ",
"      259ZZZZZZZZZZZZZZZZZZZZZZZZZZZZZZZZxii;     ",
"      $47MZZZZZZZZZZZZZZZZZZZZZZZZZZZZZZZxii;     ",
"       -58ZZZZZZZZZZZZZZZZZZZZZZZZZZZZZZZxii;     ",
"        *30VZZZZZZZZZZZZZZZZZZZZZZZZZZZZZxii;     ",
"         .=1gNZZZZZZZZZZZZZZZZZZZZZZZZZZZxii;     ",
"             X&>erttttttttttttttudfZZZZZZxii;     ",
"                                <57ZZZZZZxii;     ",
"                                <57ZZZZZZxii;     ",
"                                <57ZZZZZZxii;     ",
"                                <57ZZZZZZxii;     ",
"                                <57ZZZZZZxii;     ",
"                                <57ZZZZZZxii;     ",
"                                <57ZZZZZZxii;     ",
"                                <57ZZZZZZxii;     ",
"                                <57ZZZZZZxii;     ",
"                                <57ZZZZZZxii;     ",
"                                <57ZZZZZZxii;     ",
"                                <57ZZZZZZxii;     ",
"                                  X,,yaxapii;     ",
"                                                  ",
"                                                  ",
"                                                  ",
"                                                  ",
"                                                  ",
"                                                  ",
"                                                  ",
"                                                  ",
"                                                  "
};
