/* XPM */
static char *STEPSn__9_1706284962[] = {
/* columns rows colors chars-per-pixel */
"50 50 81 1 ",
"  c black",
". c #0A000A",
"X c #000C0C",
"o c #000D0D",
"O c gray4",
"+ c #120012",
"@ c #001616",
"# c #001717",
"$ c #250025",
"% c #370037",
"& c #002020",
"* c #003D3D",
"= c gray15",
"- c gray20",
"; c #333F3F",
": c #550055",
"> c #004343",
", c #004A4A",
"< c #004D4D",
"1 c #005858",
"2 c #005B5B",
"3 c #006A6A",
"4 c #4E4E4E",
"5 c gray37",
"6 c #767176",
"7 c gray50",
"8 c #8B008B",
"9 c #AA00AA",
"0 c #AC00AC",
"q c #AA24AA",
"w c #AA31AA",
"e c #A27EA2",
"r c #D931D9",
"t c magenta",
"y c #FF11FF",
"u c #FF31FF",
"i c #FF3EFF",
"p c #E17EE1",
"a c #F97EF9",
"s c #FD7EFD",
"d c #009696",
"f c #01AFAF",
"g c #00B1B1",
"h c #00B8B8",
"j c #00BBBB",
"k c #33B0B0",
"l c #7F8C8C",
"z c #5EB0DB",
"x c #00DADA",
"c c #00DBDB",
"v c #00EAEA",
"b c cyan",
"n c #0BFDFD",
"m c #17FFFF",
"M c #50FFFF",
"N c #73E9E9",
"B c #64FFFF",
"V c #76FFFF",
"C c #7EFFFF",
"Z c #8CABAB",
"A c #82B0FF",
"S c #89B5FF",
"D c #E9BDE9",
"F c #FFA0FF",
"G c #FFBDFF",
"H c #B2CAFE",
"J c #80FFFF",
"K c #8EFFFF",
"L c #90FFFF",
"P c #A4FFFF",
"I c #A9FFFF",
"U c #ABFFFF",
"Y c gray85",
"T c #DDD9DD",
"R c #FFD9FF",
"E c #DCFFFF",
"W c #EFFFFF",
"Q c #F4FFFF",
"! c #F5FFFF",
"~ c #FAFFFF",
"^ c white",
/* pixels */
"                                                  ",
"                                                  ",
"                                                  ",
"                                                  ",
"                                                  ",
"                                                  ",
"     +:::::::::::::::::::::::::::::::::.          ",
"     %ttFRRRRRRRRRRRRRRRRRRRRRRRRRRRRRRTYZ22#     ",
"     %ttG^^^^^^^^^^^^^^^^^^^^^^^^^^^^^^^^Pbb>     ",
"     %ttG^^^^^^^^^^^^^^^^^^^^^^^^^^^^^^^^Pbb>     ",
"     %ttG^^^^^^^^^^^^^^^^^^^^^^^^^^^^^^^^Pbb>     ",
"     %ttG^^^^^^^^^^^^^^^^^^^^^^^^^^^^^^^^Pbb>     ",
"     %ttG^^^^^^^^^^^^^^^^^^^^^^^^^^^^^^^^Pbb>     ",
"     %ttG^^^^^^EEEEEEEEEEEEEEEEEEEEEEEEEEKbb>     ",
"     %ttG^^^^^!bbj22222222222222222222222222#     ",
"     %ttG^^^^^!bbd                                ",
"     %ttG^^^^^!bbd                                ",
"     %ttG^^^^^!bbd                                ",
"     %ttG^^^^^!bbd                                ",
"     %ttG^^^^^!bbd                                ",
"     %ttG^^^^^~CCHssssssssssssssape64O            ",
"     %ttG^^^^^^^^^^^^^^^^^^^^^^^^^^^^WNf,         ",
"     %ttG^^^^^^^^^^^^^^^^^^^^^^^^^^^^^^Ubfo       ",
"     %ttG^^^^^^^^^^^^^^^^^^^^^^^^^^^^^^^Cbh       ",
"     %ttG^^^^^^^^^^^^^^^^^^^^^^^^^^^^^^^!mb3      ",
"     %ttG^^^^^^^^^^^^^^^^^^^^^^^^^^^^^^^^Bbc      ",
"     $00D^^^^^^^^^^^^^^^^^^^^^^^^^^^^^^^^Kbb&     ",
"        =-;kkkkkkkkkkkkkkkkkkkkkzAS^^^^^^Pbb*     ",
"                                8ty^^^^^^Pbb>     ",
"                                8ty^^^^^^Pbb>     ",
"                                8ty^^^^^^Pbb>     ",
"                                8ty^^^^^^Pbb>     ",
"                                8ty^^^^^^Pbb>     ",
"     $99qwwwwwwwwwwwwwwwwwwwwwwwrui^^^^^^Pbb>     ",
"     %ttG^^^^^^^^^^^^^^^^^^^^^^^^^^^^^^^^Lbb*     ",
"     %ttG^^^^^^^^^^^^^^^^^^^^^^^^^^^^^^^^Bbb&     ",
"     %ttG^^^^^^^^^^^^^^^^^^^^^^^^^^^^^^^!mbc      ",
"     %ttG^^^^^^^^^^^^^^^^^^^^^^^^^^^^^^^Jbb3      ",
"     %ttG^^^^^^^^^^^^^^^^^^^^^^^^^^^^^^Ubbj       ",
"     %ttG^^^^^^^^^^^^^^^^^^^^^^^^^^^^WVbbgo       ",
"        57lCJCJCJCJCJCJCCJCJCJCJCJCVMnvg<         ",
"                                                  ",
"                                                  ",
"                                                  ",
"                                                  ",
"                                                  ",
"                                                  ",
"                                                  ",
"                                                  ",
"                                                  "
};
