/* XPM */
static char *STEPSn__11_1706285279[] = {
/* columns rows colors chars-per-pixel */
"50 50 111 2 ",
"   c black",
".  c #0A000A",
"X  c #000C0C",
"o  c #000D0D",
"O  c gray4",
"+  c gray6",
"@  c #120012",
"#  c #170017",
"$  c #001616",
"%  c #001717",
"&  c #210021",
"*  c #2D002D",
"=  c #310031",
"-  c #350035",
";  c #3B003B",
":  c #002020",
">  c #003D3D",
",  c #470047",
"<  c #520052",
"1  c #550055",
"2  c #600060",
"3  c #004343",
"4  c #004A4A",
"5  c #004D4D",
"6  c #005858",
"7  c #005B5B",
"8  c #006A6A",
"9  c #4E4E4E",
"0  c #565656",
"q  c #767176",
"w  c #757878",
"e  c #8B008B",
"r  c #990099",
"t  c #A900A9",
"y  c #AC06AC",
"u  c #B200B2",
"i  c #AA31AA",
"p  c #A27EA2",
"a  c #D200D2",
"s  c #D931D9",
"d  c #E100E1",
"f  c #E400E4",
"g  c #E900E9",
"h  c #F500F5",
"j  c magenta",
"k  c #FF09FF",
"l  c #FF11FF",
"z  c #FF26FF",
"x  c #FF29FF",
"c  c #FF31FF",
"v  c #FF3EFF",
"b  c #FF48FF",
"n  c #FF58FF",
"m  c #E17EE1",
"M  c #F97EF9",
"N  c #FD7EFD",
"B  c #009696",
"V  c #01AFAF",
"C  c #00B1B1",
"Z  c #00B8B8",
"A  c #00BBBB",
"S  c #33B0B0",
"D  c #7FA6A6",
"F  c #5EB0DB",
"G  c #63AADC",
"H  c #00DADA",
"J  c #00DBDB",
"K  c #33DEDE",
"L  c #00EAEA",
"P  c cyan",
"I  c #0BFDFD",
"U  c #17FFFF",
"Y  c #33FFFF",
"T  c #50FFFF",
"R  c #7FE5E5",
"E  c #73E9E9",
"W  c #64FFFF",
"Q  c #76FFFF",
"!  c #7FFBFB",
"~  c #7EFFFF",
"^  c #8CABAB",
"/  c #82B0FF",
"(  c #89B5FF",
")  c #EA85EA",
"_  c #FF91FF",
"`  c #FF99FF",
"'  c #FFAAFF",
"]  c #FFB4FF",
"[  c #FFBDFF",
"{  c #B2CAFE",
"}  c #80FFFF",
"|  c #8EFFFF",
" . c #90FFFF",
".. c #A4FFFF",
"X. c #A9FFFF",
"o. c #ABFFFF",
"O. c gray85",
"+. c #DDD9DD",
"@. c #FFCAFF",
"#. c #FFCEFF",
"$. c #FFD4FF",
"%. c #FFD9FF",
"&. c #DCFFFF",
"*. c #FFEDFF",
"=. c #EFFFFF",
"-. c #FEF5FE",
";. c #F4FFFF",
":. c #F5FFFF",
">. c #FFFBFF",
",. c #FAFFFF",
"<. c white",
/* pixels */
"                                                                                                    ",
"                                                                                                    ",
"                                                                                                    ",
"                                                                                                    ",
"                                                                                                    ",
"                                                                                                    ",
"                    . ; < 1 1 1 1 1 1 1 1 1 1 1 1 1 1 1 1 1 1 1 1 1 1 1 1 1 1 .                     ",
"                # r h j n ' #.%.%.%.%.%.%.%.%.%.%.%.%.%.%.%.%.%.%.%.%.%.%.%.%.+.O.^ 7 7 %           ",
"              * f j x $.<.<.<.<.<.<.<.<.<.<.<.<.<.<.<.<.<.<.<.<.<.<.<.<.<.<.<.<.<...P P 3           ",
"            @ d j z *.<.<.<.<.<.<.<.<.<.<.<.<.<.<.<.<.<.<.<.<.<.<.<.<.<.<.<.<.<.<...P P 3           ",
"            e j j @.<.<.<.<.<.<.<.<.<.<.<.<.<.<.<.<.<.<.<.<.<.<.<.<.<.<.<.<.<.<.<...P P 3           ",
"            g j b <.<.<.<.<.<.<.<.<.<.<.<.<.<.<.<.<.<.<.<.<.<.<.<.<.<.<.<.<.<.<.<...P P 3           ",
"          & j j _ <.<.<.<.<.<.<.<.<.<.<.<.<.<.<.<.<.<.<.<.<.<.<.<.<.<.<.<.<.<.<.<...P P 3           ",
"          - j j ] <.<.<.<.<.<.&.&.&.&.&.&.&.&.&.&.&.&.&.&.&.&.&.&.&.&.&.&.&.&.&.&.| P P 3           ",
"          ; j j [ <.<.<.<.<.:.P P A 7 7 7 7 7 7 7 7 7 7 7 7 7 7 7 7 7 7 7 7 7 7 7 7 7 7 %           ",
"          - j j [ <.<.<.<.<.:.P P B                                                                 ",
"          ; j j [ <.<.<.<.<.:.P P B                                                                 ",
"          - j j [ <.<.<.<.<.:.P P B                                                                 ",
"          - j j [ <.<.<.<.<.:.P P B                                                                 ",
"          ; j j [ <.<.<.<.<.:.P P B                                                                 ",
"          - j j [ <.<.<.<.<.,.~ ~ { N N N N N N N N N N N N N N M m p q 9 O                         ",
"          - j j [ <.<.<.<.<.<.<.<.<.<.<.<.<.<.<.<.<.<.<.<.<.<.<.<.<.<.<.<.=.E V 4                   ",
"          ; j j [ <.<.<.<.<.<.<.<.<.<.<.<.<.<.<.<.<.<.<.<.<.<.<.<.<.<.<.<.<.<.o.P V o               ",
"          - j j [ <.<.<.<.<.<.<.<.<.<.<.<.<.<.<.<.<.<.<.<.<.<.<.<.<.<.<.<.<.<.<.~ P Z               ",
"          ; j j [ <.<.<.<.<.<.<.<.<.<.<.<.<.<.<.<.<.<.<.<.<.<.<.<.<.<.<.<.<.<.<.:.U P 8             ",
"          - j j [ <.<.<.<.<.<.<.<.<.<.<.<.<.<.<.<.<.<.<.<.<.<.<.<.<.<.<.<.<.<.<.<.W P J             ",
"          - j j [ <.<.<.<.<.<.<.<.<.<.<.<.<.<.<.<.<.<.<.<.<.<.<.<.<.<.<.<.<.<.<.<.| P P :           ",
"          - j j [ <.<.<.<.<.:.Y Y K S S S S S S S S S S S S S S F / ( <.<.<.<.<.<...P P >           ",
"          - j j [ <.<.<.<.<.:.P P B                             e j l <.<.<.<.<.<...P P 3           ",
"          ; j j [ <.<.<.<.<.:.P P B                             e j l <.<.<.<.<.<...P P 3           ",
"          ; j j [ <.<.<.<.<.:.P P B                             e j l <.<.<.<.<.<...P P 3           ",
"          - j j [ <.<.<.<.<.:.P P B                             e j l <.<.<.<.<.<...P P 3           ",
"          - j j [ <.<.<.<.<.:.P P B                             e j l <.<.<.<.<.<...P P 3           ",
"          = j j [ <.<.<.<.<.:.Y Y G i i i i i i i i i i i i i i s c v <.<.<.<.<.<...P P 3           ",
"          # j j ' <.<.<.<.<.<.<.<.<.<.<.<.<.<.<.<.<.<.<.<.<.<.<.<.<.<.<.<.<.<.<.<. .P P >           ",
"            a j N <.<.<.<.<.<.<.<.<.<.<.<.<.<.<.<.<.<.<.<.<.<.<.<.<.<.<.<.<.<.<.<.W P P :           ",
"            2 j x >.<.<.<.<.<.<.<.<.<.<.<.<.<.<.<.<.<.<.<.<.<.<.<.<.<.<.<.<.<.<.:.U P J             ",
"              u j ` <.<.<.<.<.<.<.<.<.<.<.<.<.<.<.<.<.<.<.<.<.<.<.<.<.<.<.<.<.<.} P P 8             ",
"              . t k [ <.<.<.<.<.<.<.<.<.<.<.<.<.<.<.<.<.<.<.<.<.<.<.<.<.<.<.<.o.P P A               ",
"                  , y ) -.<.<.<.<.<.<.<.<.<.<.<.<.<.<.<.<.<.<.<.<.<.<.<.<.=.Q P P C o               ",
"                        + 0 w D R ! ~ } ~ } ~ } } ~ } ~ } ~ } ~ ~ } ~ Q T I L C 5                   ",
"                                                                                                    ",
"                                                                                                    ",
"                                                                                                    ",
"                                                                                                    ",
"                                                                                                    ",
"                                                                                                    ",
"                                                                                                    ",
"                                                                                                    ",
"                                                                                                    "
};
