/* XPM */
static char *STEPSn__13_1706285312[] = {
/* columns rows colors chars-per-pixel */
"50 50 64 1 ",
"  c black",
". c #000606",
"X c #000909",
"o c #120012",
"O c #370037",
"+ c #3A003A",
"@ c #002929",
"# c #002E2E",
"$ c #003333",
"% c #003434",
"& c #323232",
"* c #400040",
"= c #550055",
"- c #590059",
"; c #6C006C",
": c #6D006D",
"> c #004444",
", c #005B5B",
"< c #125D5D",
"1 c gray50",
"2 c #5C5BB7",
"3 c #B600B6",
"4 c #DD00DD",
"5 c #E000E0",
"6 c magenta",
"7 c #FF1AFF",
"8 c #A35BFF",
"9 c #FF53FF",
"0 c #FF64FF",
"q c #FF67FF",
"w c #FF73FF",
"e c #FF74FF",
"r c #00D2D2",
"t c #00D7D7",
"y c #00EBEB",
"u c #00EFEF",
"i c #00F8F8",
"p c cyan",
"a c #0BFFFF",
"s c #0CFFFF",
"d c #23FFFF",
"f c #28FFFF",
"g c #50FFFF",
"h c #55FFFF",
"j c #7FE1E1",
"k c #73FFFF",
"l c #7FFFFF",
"z c #949999",
"x c #BAA3BA",
"c c #B6BBFF",
"v c #FFA0FF",
"b c #FFBDFF",
"n c #9DFFFF",
"m c #D2D2D2",
"M c gainsboro",
"N c #EDD9ED",
"B c #FFD9FF",
"V c #DCE0E0",
"C c #DAFFFF",
"Z c #DCFFFF",
"A c #E3FFFF",
"S c #FFF4FF",
"D c #F9FFFF",
"F c white",
/* pixels */
"                                                  ",
"                                                  ",
"                                                  ",
"                                                  ",
"                                                  ",
"                                                  ",
"     o==============================+             ",
"     O66vBBBBBBBBBBBBBBBBBBBBBBBBBBBBNmz<>.       ",
"     O66bFFFFFFFFFFFFFFFFFFFFFFFFFFFFFFFCat@      ",
"     O66bFFFFFFFFFFFFFFFFFFFFFFFFFFFFFFFFkpr      ",
"     O66bFFFFFFFFFFFFFFFFFFFFFFFFFFFFFFFFnpp%     ",
"     O66bFFFFFFFFFFFFFFFFFFFFFFFFFFFFFFFFkpp%     ",
"     O66bFFFFFFFFFFFFFFFFFFFFFFFFFFFFFFFCspr      ",
"     o--xMVZZZZZZZZZZZZZZZZCZZDFFFFFFFFAdpu#      ",
"          X,,,,,,,,,,,,,,,288cFFFFFFFFAdpu%       ",
"                         ;66wFFFFFFFFAdpu%        ",
"                        ;66wFFFFFFFFAdpu%         ",
"                       ;66wFFFFFFFFAdpu%          ",
"                      ;66wFFFFFFFFAdpu%           ",
"                     ;66wFFFFFFFFAdpu%            ",
"                    ;66eFFFFFFFFAdpu%             ",
"                   *66qFFFFFFFFAdpu%              ",
"                   367SFFFFFFFAdpu%               ",
"                   469FFFFFFFAdpu%                ",
"                   560FFFFFFAdpu%                 ",
"                   56qFFFFFFhpi$                  ",
"                   56qFFFFFFgpy                   ",
"                   56qFFFFFFgpy                   ",
"                   56qFFFFFFgpy                   ",
"                   56qFFFFFFgpy                   ",
"                   56qFFFFFFgpy                   ",
"                   56qFFFFFFgpy                   ",
"                   56qFFFFFFgpy                   ",
"                   56qFFFFFFgpy                   ",
"                   56qFFFFFFgpy                   ",
"                   56qFFFFFFgpy                   ",
"                   56qFFFFFFgpy                   ",
"                   56qFFFFFFgpy                   ",
"                   56qFFFFFFgpy                   ",
"                   56qFFFFFFgpy                   ",
"                     &11jlllfpy                   ",
"                                                  ",
"                                                  ",
"                                                  ",
"                                                  ",
"                                                  ",
"                                                  ",
"                                                  ",
"                                                  ",
"                                                  "
};
