/* XPM */
static char *STEPSn__15_1706285343[] = {
/* columns rows colors chars-per-pixel */
"50 50 143 2 ",
"   c black",
".  c #060006",
"X  c #000505",
"o  c #0A000A",
"O  c #000D0D",
"+  c gray6",
"@  c #120012",
"#  c #160016",
"$  c #170017",
"%  c #001717",
"&  c #001B1B",
"*  c #210021",
"=  c #250025",
"-  c #280028",
";  c #2D002D",
":  c #310031",
">  c #350035",
",  c #380038",
"<  c #002020",
"1  c #002B2B",
"2  c #002D2D",
"3  c #003333",
"4  c #003D3D",
"5  c #470047",
"6  c #520052",
"7  c #550055",
"8  c #600060",
"9  c #014040",
"0  c #004343",
"q  c #004D4D",
"w  c #005B5B",
"e  c #006060",
"r  c #006A6A",
"t  c #565656",
"y  c #4F6F6F",
"u  c #757878",
"i  c #595BB5",
"p  c #8A008A",
"a  c #8B008B",
"s  c #990099",
"d  c #A800A8",
"f  c #AD06AD",
"g  c #B200B2",
"h  c #AA31AA",
"j  c #CB00CB",
"k  c #D100D1",
"l  c #D500D5",
"z  c #D931D9",
"x  c #E100E1",
"c  c #E400E4",
"v  c #E800E8",
"b  c #ED00ED",
"n  c #F500F5",
"m  c #FA00FA",
"M  c magenta",
"N  c #FF09FF",
"B  c #FF11FF",
"V  c #FF16FF",
"C  c #FE1BFE",
"Z  c #FF25FF",
"A  c #FF29FF",
"S  c #FF31FF",
"D  c #FF3AFF",
"F  c #FF3EFF",
"G  c #A35BFF",
"H  c #A966FF",
"J  c #FF47FF",
"K  c #FF58FF",
"L  c #FD7EFD",
"P  c #009696",
"I  c #00A1A1",
"U  c #00B1B1",
"Y  c #00BBBB",
"T  c #33B0B0",
"R  c #7FA6A6",
"E  c #5EB0DB",
"W  c #63AADC",
"Q  c #00D3D3",
"!  c #00D9D9",
"~  c #00DBDB",
"^  c #33DEDE",
"/  c #00E6E6",
"(  c #00EAEA",
")  c #00EFEF",
"_  c #00F2F2",
"`  c cyan",
"'  c #0CFFFF",
"]  c #1DF7F7",
"[  c #13FFFF",
"{  c #16FFFF",
"}  c #19FFFF",
"|  c #27FFFF",
" . c #2FFFFF",
".. c #33FFFF",
"X. c #49FFFF",
"o. c #50FFFF",
"O. c #7FE5E5",
"+. c #63FFFF",
"@. c #76FFFF",
"#. c #7FFBFB",
"$. c #7EFFFF",
"%. c #A3A4A4",
"&. c #82B0FF",
"*. c #89B5FF",
"=. c #EA85EA",
"-. c #FF86FF",
";. c #FF8DFF",
":. c #FF91FF",
">. c #FF98FF",
",. c #FFA4FF",
"<. c #FFA7FF",
"1. c #FFAAFF",
"2. c #FFB4FF",
"3. c #FFBAFF",
"4. c #FFBDFF",
"5. c #B2CAFE",
"6. c #80FFFF",
"7. c #89FFFF",
"8. c #90FFFF",
"9. c #9AFFFF",
"0. c #A1FFFF",
"q. c #A4FFFF",
"w. c #ABFFFF",
"e. c #B2FFFF",
"r. c #D4CBD4",
"t. c #FFCAFF",
"y. c #FFCEFF",
"u. c #FFD4FF",
"i. c #FBD9FB",
"p. c #FFD9FF",
"a. c #C7FFFF",
"s. c #D9FFFF",
"d. c #DCFFFF",
"f. c #FFE7FF",
"g. c #FFEDFF",
"h. c #E2FFFF",
"j. c #E4FFFF",
"k. c #FFF6FF",
"l. c azure",
"z. c #F5FFFF",
"x. c #FFFBFF",
"c. c #FAFFFF",
"v. c white",
/* pixels */
"                                                                                                    ",
"                                                                                                    ",
"                                                                                                    ",
"                                                                                                    ",
"                                                                                                    ",
"                                                                                                    ",
"                    o , 6 7 7 7 7 7 7 7 7 7 7 7 7 7 7 7 7 7 7 7 6 > .                               ",
"                $ s n M K 1.y.p.p.p.p.p.p.p.p.p.p.p.p.p.p.p.p.p.p.p.i.r.%.y 0 O                     ",
"              ; c M A u.v.v.v.v.v.v.v.v.v.v.v.v.v.v.v.v.v.v.v.v.v.v.v.v.v.v.a.] I &                 ",
"            @ x M Z g.v.v.v.v.v.v.v.v.v.v.v.v.v.v.v.v.v.v.v.v.v.v.v.v.v.v.v.v.h.} ( 3               ",
"            p M M t.v.v.v.v.v.v.v.v.v.v.v.v.v.v.v.v.v.v.v.v.v.v.v.v.v.v.v.v.v.v.e.` / %             ",
"            v M J v.v.v.v.v.v.v.v.v.v.v.v.v.v.v.v.v.v.v.v.v.v.v.v.v.v.v.v.v.v.v.v. .` P             ",
"          * M M :.v.v.v.v.v.v.v.v.v.v.v.v.v.v.v.v.v.v.v.v.v.v.v.v.v.v.v.v.v.v.v.v.@.` ) X           ",
"          > M M 2.v.v.v.v.v.v.d.d.d.d.d.d.d.d.d.d.d.d.d.d.d.d.d.d.d.d.v.v.v.v.v.v.9.` ` 2           ",
"          , M M 4.v.v.v.v.v.z.` ` Y w w w w w w w w w w w w w w i G H v.v.v.v.v.v.q.` ` 0           ",
"          > M M 4.v.v.v.v.v.z.` ` P                             p M B v.v.v.v.v.v.q.` ` 0           ",
"          , M M 4.v.v.v.v.v.z.` ` P                             p M B v.v.v.v.v.v.q.` ` 0           ",
"          > M M 4.v.v.v.v.v.z.` ` P                             p M B v.v.v.v.v.v.q.` ` 0           ",
"          , M M 4.v.v.v.v.v.z.` ` P                             p M B v.v.v.v.v.v.q.` ` 0           ",
"          > M M 4.v.v.v.v.v.z.` ` P                             p M B v.v.v.v.v.v.q.` ` 0           ",
"          - M M 3.v.v.v.v.v.c.$.$.5.L L L L L L L L L L L L L L L L -.v.v.v.v.v.v.0.` ` 0           ",
"            j M ;.v.v.v.v.v.v.v.v.v.v.v.v.v.v.v.v.v.v.v.v.v.v.v.v.v.v.v.v.v.v.v.v.@.` ` 3           ",
"            = l C f.v.v.v.v.v.v.v.v.v.v.v.v.v.v.v.v.v.v.v.v.v.v.v.v.v.v.v.v.v.v.s.' ` Q             ",
"              > l C ,.k.v.v.v.v.v.v.v.v.v.v.v.v.v.v.v.v.v.v.v.v.v.v.v.v.v.v.l.9.[ ` ~ 1             ",
"            7 m M K g.v.v.v.v.v.v.v.v.v.v.v.v.v.v.v.v.v.v.v.v.v.v.v.v.v.v.v.v.j.X.~ 4               ",
"          o b M D x.v.v.v.v.v.v.v.v.v.v.v.v.v.v.v.v.v.v.v.v.v.v.v.v.v.v.v.v.v.v.z.| ` e             ",
"          : M M ,.v.v.v.v.v.v.v.v.v.v.v.v.v.v.v.v.v.v.v.v.v.v.v.v.v.v.v.v.v.v.v.v.7.` _ O           ",
"          > M M 4.v.v.v.v.v.z.....^ T T T T T T T T T T T T T T E &.*.v.v.v.v.v.v.q.` ` 4           ",
"          , M M 4.v.v.v.v.v.z.` ` P                             p M B v.v.v.v.v.v.q.` ` 0           ",
"          , M M 4.v.v.v.v.v.z.` ` P                             p M B v.v.v.v.v.v.q.` ` 0           ",
"          , M M 4.v.v.v.v.v.z.` ` P                             p M B v.v.v.v.v.v.q.` ` 0           ",
"          > M M 4.v.v.v.v.v.z.` ` P                             p M B v.v.v.v.v.v.q.` ` 0           ",
"          > M M 4.v.v.v.v.v.z.` ` P                             p M B v.v.v.v.v.v.q.` ` 0           ",
"          : M M 4.v.v.v.v.v.z.....W h h h h h h h h h h h h h h z S F v.v.v.v.v.v.q.` ` 0           ",
"          $ M M 1.v.v.v.v.v.v.v.v.v.v.v.v.v.v.v.v.v.v.v.v.v.v.v.v.v.v.v.v.v.v.v.v.8.` ` 4           ",
"            k M L v.v.v.v.v.v.v.v.v.v.v.v.v.v.v.v.v.v.v.v.v.v.v.v.v.v.v.v.v.v.v.v.+.` ` <           ",
"            8 M A x.v.v.v.v.v.v.v.v.v.v.v.v.v.v.v.v.v.v.v.v.v.v.v.v.v.v.v.v.v.v.z.{ ` ~             ",
"              g M >.v.v.v.v.v.v.v.v.v.v.v.v.v.v.v.v.v.v.v.v.v.v.v.v.v.v.v.v.v.v.6.` ` r             ",
"              o d N 4.v.v.v.v.v.v.v.v.v.v.v.v.v.v.v.v.v.v.v.v.v.v.v.v.v.v.v.v.w.` ` Y               ",
"                  5 f =.k.v.v.v.v.v.v.v.v.v.v.v.v.v.v.v.v.v.v.v.v.v.v.v.v.l.@.` ` U O               ",
"                        + t u R O.#.$.6.$.6.$.6.6.$.6.$.6.$.6.$.6.$.$.@.o.' ( U q                   ",
"                                                                                                    ",
"                                                                                                    ",
"                                                                                                    ",
"                                                                                                    ",
"                                                                                                    ",
"                                                                                                    ",
"                                                                                                    ",
"                                                                                                    ",
"                                                                                                    "
};
