/* XPM */
static char *STEPSn__17_1706285374[] = {
/* columns rows colors chars-per-pixel */
"50 50 118 2 ",
"   c black",
".  c #060006",
"X  c #000505",
"o  c #0B000B",
"O  c #000D0D",
"+  c gray3",
"@  c #120012",
"#  c #170017",
"$  c #001717",
"%  c #001B1B",
"&  c #210021",
"*  c #240024",
"=  c #2A002A",
"-  c #2D002D",
";  c #350035",
":  c #380038",
">  c #002020",
",  c #002C2C",
"<  c #003333",
"1  c #003D3D",
"2  c #272C2C",
"3  c #510051",
"4  c #520052",
"5  c #550055",
"6  c #590059",
"7  c #6C006C",
"8  c #004343",
"9  c #004D4D",
"0  c #005B5B",
"q  c #006A6A",
"w  c #336464",
"e  c gray37",
"r  c #4F6F6F",
"t  c gray50",
"y  c #595BB5",
"u  c #8B008B",
"i  c #990099",
"p  c #933593",
"a  c #AA00AA",
"s  c #B300B3",
"d  c #AA24AA",
"f  c #AA31AA",
"g  c #D931D9",
"h  c #E100E1",
"j  c #E400E4",
"k  c #E900E9",
"l  c #F500F5",
"z  c #FB00FB",
"x  c magenta",
"c  c #FF10FF",
"v  c #FF11FF",
"b  c #FF26FF",
"n  c #FF29FF",
"m  c #FF31FF",
"M  c #FF3EFF",
"N  c #A35BFF",
"B  c #A966FF",
"V  c #FF48FF",
"C  c #FF58FF",
"Z  c #FF5EFF",
"A  c #FF63FF",
"S  c #FF72FF",
"D  c #FD7EFD",
"F  c #009696",
"G  c #339191",
"H  c #00B1B1",
"J  c #00BBBB",
"K  c #33ACAC",
"L  c #33B0B0",
"P  c #7F8C8C",
"I  c #5EB0DB",
"U  c #00DBDB",
"Y  c #00E7E7",
"T  c #00EAEA",
"R  c #00EFEF",
"E  c cyan",
"W  c #0BFDFD",
"Q  c #1EF7F7",
"!  c #17FFFF",
"~  c #19FFFF",
"^  c #2FFFFF",
"/  c #50FFFF",
"(  c #64FFFF",
")  c #76FFFF",
"_  c #7EFFFF",
"`  c #A4A4A4",
"'  c #82B0FF",
"]  c #89B5FF",
"[  c #CCB2CC",
"{  c #FF86FF",
"}  c #FF91FF",
"|  c #FFA2FF",
" . c #FFAAFF",
".. c #FFB4FF",
"X. c #FFBAFF",
"o. c #FFBDFF",
"O. c #B2CAFE",
"+. c #80FFFF",
"@. c #90FFFF",
"#. c #9AFFFF",
"$. c #A4FFFF",
"%. c #ABFFFF",
"&. c #B2FFFF",
"*. c #D4CBD4",
"=. c #FFCAFF",
"-. c #FFCEFF",
";. c #FFD4FF",
":. c #FFD9FF",
">. c #C7FFFF",
",. c #DCFFFF",
"<. c #FFEDFF",
"1. c #E2FFFF",
"2. c #EFFFFF",
"3. c #F9F6F9",
"4. c #F5FFFF",
"5. c #FFFBFF",
"6. c #FAFFFF",
"7. c white",
/* pixels */
"                                                                                                    ",
"                                                                                                    ",
"                                                                                                    ",
"                                                                                                    ",
"                                                                                                    ",
"                                                                                                    ",
"                    o : 4 5 5 5 5 5 5 5 5 5 5 5 5 5 5 5 5 5 5 5 4 ; .                               ",
"                # i l x C  .-.:.:.:.:.:.:.:.:.:.:.:.:.:.:.:.:.:.:.:.:.*.` r 1 O                     ",
"              - j x n ;.7.7.7.7.7.7.7.7.7.7.7.7.7.7.7.7.7.7.7.7.7.7.7.7.7.7.>.Q F %                 ",
"            @ h x b <.7.7.7.7.7.7.7.7.7.7.7.7.7.7.7.7.7.7.7.7.7.7.7.7.7.7.7.7.1.~ T <               ",
"            u x x =.7.7.7.7.7.7.7.7.7.7.7.7.7.7.7.7.7.7.7.7.7.7.7.7.7.7.7.7.7.7.&.E Y $             ",
"            k x V 7.7.7.7.7.7.7.7.7.7.7.7.7.7.7.7.7.7.7.7.7.7.7.7.7.7.7.7.7.7.7.7.^ E F             ",
"          & x x } 7.7.7.7.7.7.7.7.7.7.7.7.7.7.7.7.7.7.7.7.7.7.7.7.7.7.7.7.7.7.7.7.) E R X           ",
"          ; x x ..7.7.7.7.7.7.,.,.,.,.,.,.,.,.,.,.,.,.,.,.,.,.,.,.,.,.7.7.7.7.7.7.#.E E ,           ",
"          : x x o.7.7.7.7.7.4.E E J 0 0 0 0 0 0 0 0 0 0 0 0 0 0 y N B 7.7.7.7.7.7.$.E E 8           ",
"          ; x x o.7.7.7.7.7.4.E E F                             u x c 7.7.7.7.7.7.$.E E 8           ",
"          ; x x o.7.7.7.7.7.4.E E F                             u x c 7.7.7.7.7.7.$.E E 8           ",
"          ; x x o.7.7.7.7.7.4.E E F                             u x c 7.7.7.7.7.7.$.E E 8           ",
"          : x x o.7.7.7.7.7.4.E E F                             u x c 7.7.7.7.7.7.$.E E 8           ",
"          ; x x o.7.7.7.7.7.4.E E F                             u x c 7.7.7.7.7.7.$.E E 8           ",
"          = x x X.7.7.7.7.7.6._ _ O.D D D D D D D D D D D D D D D D { 7.7.7.7.7.7.$.E E 8           ",
"          o z x | 7.7.7.7.7.7.7.7.7.7.7.7.7.7.7.7.7.7.7.7.7.7.7.7.7.7.7.7.7.7.7.7.$.E E 8           ",
"            s x A 7.7.7.7.7.7.7.7.7.7.7.7.7.7.7.7.7.7.7.7.7.7.7.7.7.7.7.7.7.7.7.7.$.E E 8           ",
"            ; z c <.7.7.7.7.7.7.7.7.7.7.7.7.7.7.7.7.7.7.7.7.7.7.7.7.7.7.7.7.7.7.7.$.E E 8           ",
"              7 x Z 7.7.7.7.7.7.7.7.7.7.7.7.7.7.7.7.7.7.7.7.7.7.7.7.7.7.7.7.7.7.7.$.E E 8           ",
"                6 j S 5.7.7.7.7.7.7.7.7.7.7.7.7.7.7.7.7.7.7.7.7.7.7.7.7.7.7.7.7.7.$.E E 8           ",
"                  o 6 p [ 3.7.7.7.7.7.7.7.7.7.7.7.7.7.7.7.7.7.7.7.7.7.7.7.7.7.7.7.$.E E 8           ",
"                          + 2 w G K L L L L L L L L L L L L L L I ' ] 7.7.7.7.7.7.$.E E 8           ",
"                                                                u x c 7.7.7.7.7.7.$.E E 8           ",
"                                                                u x c 7.7.7.7.7.7.$.E E 8           ",
"                                                                u x c 7.7.7.7.7.7.$.E E 8           ",
"                                                                u x c 7.7.7.7.7.7.$.E E 8           ",
"                                                                u x c 7.7.7.7.7.7.$.E E 8           ",
"          * a a d f f f f f f f f f f f f f f f f f f f f f f f g m M 7.7.7.7.7.7.$.E E 8           ",
"          : x x o.7.7.7.7.7.7.7.7.7.7.7.7.7.7.7.7.7.7.7.7.7.7.7.7.7.7.7.7.7.7.7.7.@.E E 1           ",
"          ; x x o.7.7.7.7.7.7.7.7.7.7.7.7.7.7.7.7.7.7.7.7.7.7.7.7.7.7.7.7.7.7.7.7.( E E >           ",
"          : x x o.7.7.7.7.7.7.7.7.7.7.7.7.7.7.7.7.7.7.7.7.7.7.7.7.7.7.7.7.7.7.7.4.! E U             ",
"          : x x o.7.7.7.7.7.7.7.7.7.7.7.7.7.7.7.7.7.7.7.7.7.7.7.7.7.7.7.7.7.7.7.+.E E q             ",
"          : x x o.7.7.7.7.7.7.7.7.7.7.7.7.7.7.7.7.7.7.7.7.7.7.7.7.7.7.7.7.7.7.%.E E J               ",
"          ; x x o.7.7.7.7.7.7.7.7.7.7.7.7.7.7.7.7.7.7.7.7.7.7.7.7.7.7.7.7.2.) E E H O               ",
"                e t P _ +._ +._ +._ +._ +._ +._ _ +._ +._ +._ +._ +._ ) / W T H 9                   ",
"                                                                                                    ",
"                                                                                                    ",
"                                                                                                    ",
"                                                                                                    ",
"                                                                                                    ",
"                                                                                                    ",
"                                                                                                    ",
"                                                                                                    ",
"                                                                                                    "
};
