/* XPM */
static char *Untitled_design__7_1706189699[] = {
/* columns rows colors chars-per-pixel */
"50 50 39 1 ",
"  c #FA569D",
". c #FB7BBA",
"X c #F982BD",
"o c #F68FC6",
"O c #FA8DC5",
"+ c #FB8FC8",
"@ c #FA91C6",
"# c #F693C9",
"$ c #FA94CA",
"% c #F59BCD",
"& c #FA9CCD",
"* c #F49FD0",
"= c #FB9DD1",
"- c #F4A0CF",
"; c #FBA0CF",
": c #F4A3D3",
"> c #FAA4D4",
", c #F5A9D7",
"< c #FAAAD6",
"1 c #FCA7D8",
"2 c #F6ACD9",
"3 c #FAADDA",
"4 c #F6B2DD",
"5 c #FAB3DD",
"6 c #F6B9DF",
"7 c #FBB9DF",
"8 c #F7B6E0",
"9 c #FAB6E1",
"0 c #F7BBE3",
"q c #FABCE4",
"w c #FBBFE8",
"e c #F7C2E7",
"r c #FAC2E6",
"t c #FBC5EA",
"y c #FBCBED",
"u c #FBD0EF",
"i c #FBCEF1",
"p c #FBD2F2",
"a c #FBDAF5",
/* pixels */
"ttttttuuuytytytttyyuuuppppitytttiiiiiiiititwieie00",
"tytytt7tuuuuuyytryyyuupyppyttytqwiiiiiaitiewewee06",
"rytyrttrruuuuuyyttyyyuuupiyytywwwwiiiiiiiiewwiwi00",
"rqryytyttryuyuuuuyyyyyytyypyypyt99tiiiipiiw00ieie0",
"rrryryruuuuauuruuuuuuuuuyyiyyiat918tyiyiip998wtiy0",
"rrrryrrrruuuaaurryyuyyuupiyytypit35t9wtyip984wtiie",
"rrryryyyuuuuuuaapuuuuuyyyyytttipwtqt11twiiw019wtie",
"ryyryryruuuuuuuuaauuuyyuyyytyyppptttw13qiti021wwiy",
"uyrryttyytyuruuuuuuuuuuyyyyttyuuaiiyrw93tttt811w0i",
"yryytyyytrtturuuuuuuuuurtttrr7yyyptyyttwwtwtw3>,0e",
"yryrytyiyyryyyur777uuyuuttytq7tyrtyryytwww8wtw9>*4",
"rrryyytyyuyyyryrrr7rrruyrr77rrtrq3rqqttyitwqtrw8*:",
"757rtytttyyyytyrrurrrrtr77r7qqrtq3<q59ryiitqwtttw0",
";;5<7tytyrtyyrrtrrrr77rr7r7r77qrr755q99ryiytqqrtiw",
"<<77<5rtrtytttrr7rrr7557tr7tuyrq7qqqqrrwtyiyrqqqwi",
";7r<;;5r77rtrtt77777r7<5<7r73yautrqqrttttyiyytrq0e",
"@5t55rtq935twtttr5<7qr7<;;7r7<rauuytr7rttuuyyeyytt",
";;ttttrq5==9yttyr7>7tq773><7r75raauuyyttrttyyyeeew",
"5<qytwqq3++=qytiut57rqr5355<rrr77uuyyyyuyryrtyttt0",
"q7qttwqr951>>wt9yyrqrrr5;;7777rrttyyyuyyuuutwreetw",
"t75yyrrw91111qqw5pt7trrr<;;777rrrrrryypyyyiittew00",
"53rtytqq9511$=999wtrttrr<<<77r7rq775qyyyyytitteww0",
"5rtttyyyiitw5>>&9qtttty7<<;<77r7775<>5tyrtytetewwq",
"rtytyyuyiiiiyw1$5wttryyr<;X&&;7777533<5tttrrtttw09",
"yrruuuuyiyyyitq5qttttyyr7<;&;7775533<>>349qwwwww0w",
"ruuuuuuuiiiyyyttttttyuyr7<<<7777r75<;;$>1=14808w0w",
"uyyuuuuapppiyyttyttiyppt77777rr7r7q773>5===82,280w",
"ryyyyyuuapappiyttrqypapyr77777r7r7qq75551981=*=8w0",
"ryty77yuitiipiyitw9taauyu77<77;;;;;>>>34q94111128e",
"rr7<<yuuiiwyyiiiyw33pppuur<@<7<;;&$@O$9qwq99322120",
"7737tuytwwtwww9wyt5=tpauur7;<7;;<><355qqw991113128",
"<7rtutyr9ww999w9599>7uuuuy7777<757rrqqwww994319q48",
"7rruuyq59w9wwwtw9=.X+iiiiiw97557rrrrweeeq09qqw9w88",
"r7ruyr<qrwwtyyiw91+ .wiiiiw9357tyrrrew0wqqqw999w08",
"75ruy5rrtttiyytww11+1wiiiiw3<5rtrrrrrwqqwqw8399ww0",
"5ruutyttttiiiyitw99=1wwwiit9<7rrrr7rrerqwqwq933900",
"7rpayyyttiiiyiwwwww9w9wwiiy99wrq776reqwwwww9044w00",
"tupuyyyyiyiiwiiwwwwww31wtii99t7577r6078880q89q0866",
"uuuayyyuiiiiiiiwwiww9119wyt9qq5566552354889wq0q866",
"yuppyyuuiipiiiiiiyiw91999ywwqq53735444448qq00082:,",
"iiiuuppiipppiiiyittw89993tttq755449488999q008822:,",
"yyupupipppiiyeeetttwww99qtwrq4555484448888089884,,",
"iiipuuytrtiew938wwwttwwwwwrr7353132*#*248w888424,4",
"ieetyewtrt8>3338wwitiwwwtwwq0<5531+O%14488888222,6",
"e0ryywtwqq3@280wwttyiwwwtt9955551OO$14214,:,42,,:4",
"eeriitt0qq2:3wewwwwwttyytww95575$X%,42$*,%#%**,*:4",
"wwyyiytqqw334ww488qwwiiitww935q4&%>421o*,%#%***:,,",
"wwyyiitqew540w03348wtiiiytw940q81=292,#,,:**::*:,,",
"wttiiiiwtw080w92*18ripiitttwqww04,482<%,,:%:::%:::",
"tyitwiitte00www212wtiaittytwwww084q83324,=:-:--:::"
};
