/* XPM */
static char *_1707140958[] = {
/* columns rows colors chars-per-pixel */
"50 50 237 2 ",
"   c #050505",
".  c #090708",
"X  c #0C0C0C",
"o  c #150E0A",
"O  c #110E0E",
"+  c #0C110D",
"@  c #11110E",
"#  c #0B0D12",
"$  c #090B15",
"%  c #120E11",
"&  c #110F1E",
"*  c #0D1114",
"=  c #0D141B",
"-  c #121113",
";  c #1C1315",
":  c #14141B",
">  c #1A141B",
",  c #14191D",
"<  c #1B1A1C",
"1  c #211B1C",
"2  c #26181E",
"3  c #321D1E",
"4  c #2B211F",
"5  c #0D0F22",
"6  c #0C1622",
"7  c #131224",
"8  c #1A1523",
"9  c #161924",
"0  c #1C1B22",
"q  c #16182B",
"w  c #1A1B2C",
"e  c #1C1E32",
"r  c #191C36",
"t  c #221722",
"y  c #251C24",
"u  c #281E23",
"i  c #231D29",
"p  c #221E35",
"a  c #231E3A",
"s  c #0F2026",
"d  c #1C2225",
"f  c #1C222C",
"g  c #1E2334",
"h  c #232225",
"j  c #2C2222",
"k  c #24232C",
"l  c #2B232A",
"z  c #2A292D",
"x  c #392828",
"c  c #232334",
"v  c #23233B",
"b  c #282838",
"n  c #2C2C3D",
"m  c #312734",
"M  c #312E3C",
"N  c #273139",
"B  c #35333C",
"V  c #3C363B",
"C  c #472F2D",
"Z  c #483A38",
"A  c #593A37",
"S  c #57403D",
"D  c #232942",
"F  c #2D2C42",
"G  c #2C3247",
"H  c #333244",
"J  c #3B3444",
"K  c #3B3943",
"L  c #31314B",
"P  c #33334B",
"I  c #37394B",
"U  c #3C3B4C",
"Y  c #353A54",
"T  c #3C3B52",
"R  c #443B49",
"E  c #433D55",
"W  c #3A4250",
"Q  c #3D4560",
"!  c #47434A",
"~  c #574849",
"^  c #454354",
"/  c #4B4655",
"(  c #44445B",
")  c #444B5A",
"_  c #4C4B5B",
"`  c #564755",
"'  c #524B5B",
"]  c #5C4D5D",
"[  c #535250",
"{  c #59565C",
"}  c #67494A",
"|  c #6A514A",
" . c #685959",
".. c #795855",
"X. c #6B615B",
"o. c #76655B",
"O. c #4A4C66",
"+. c #574D63",
"@. c #4E5266",
"#. c #545467",
"$. c #5B5364",
"%. c #5B5A63",
"&. c #5D5B6B",
"*. c #4B5676",
"=. c #555775",
"-. c #5C5C7D",
";. c #645B66",
":. c #66586B",
">. c #6A5972",
",. c #755A72",
"<. c #5D616E",
"1. c #666369",
"2. c #776B68",
"3. c #71726C",
"4. c #696877",
"5. c #776979",
"6. c #6A7378",
"7. c #76767C",
"8. c #82615A",
"9. c #94665C",
"0. c #845A62",
"q. c #866964",
"w. c #8E746C",
"e. c #84697E",
"r. c #887776",
"t. c #957A77",
"y. c #A57A70",
"u. c #9A847D",
"i. c #A7847B",
"p. c #B48278",
"a. c #CA887D",
"s. c #5C5481",
"d. c #746B81",
"f. c #797886",
"g. c #886A82",
"h. c #867687",
"j. c #90728B",
"k. c #967B95",
"l. c #AA7997",
"z. c #FA6DAF",
"x. c #778286",
"c. c #85848B",
"v. c #988E87",
"b. c #878897",
"n. c #9A839A",
"m. c #95889A",
"M. c #98949B",
"N. c #AA8B86",
"B. c #B68A86",
"V. c #B3998F",
"C. c #A6849B",
"Z. c #9A9BA6",
"A. c #9191A9",
"S. c #A88CA4",
"D. c #B589A7",
"F. c #BA92AF",
"G. c #BB95B3",
"H. c #BB9BB6",
"J. c #A8AAAD",
"K. c #A9A8B6",
"L. c #BDA3BB",
"P. c #B6B7BA",
"I. c #D3A295",
"U. c #D4A69B",
"Y. c #C788AC",
"T. c #C78DB1",
"R. c #C699B8",
"E. c #D598BC",
"W. c #E690BD",
"Q. c #CAB2AB",
"!. c #D4B5A9",
"~. c #C3A2BC",
"^. c #C5A9BF",
"/. c #D5BBB7",
"(. c #DEC5B9",
"). c #E6C4B4",
"_. c #F3C5B6",
"`. c #AEABC1",
"'. c #B8BAC4",
"]. c #DC9DC2",
"[. c #F98BC5",
"{. c #E39AC3",
"}. c #F897CA",
"|. c #F99CCD",
" X c #FA9DD1",
".X c #C8A8C3",
"XX c #D5A6C6",
"oX c #D4ADCB",
"OX c #CBB0C6",
"+X c #D4B2CC",
"@X c #D8B2CD",
"#X c #DAB4D2",
"$X c #E6A4CB",
"%X c #E8A8CC",
"&X c #F3A3CE",
"*X c #E5ADD2",
"=X c #F6A5D2",
"-X c #FAA4D3",
";X c #F6ABD3",
":X c #FAACD6",
">X c #F9ABDA",
",X c #FAADDA",
"<X c #E2B2D3",
"1X c #ECB3D5",
"2X c #ECB6D9",
"3X c #E3BCDA",
"4X c #EBBCDC",
"5X c #F4B2D7",
"6X c #FAB0D7",
"7X c #F5B4DB",
"8X c #FAB3DC",
"9X c #F5B9DC",
"0X c #F9B9DE",
"qX c #EEBBE0",
"wX c #FAB5E0",
"eX c #F6BEE1",
"rX c #FABCE4",
"tX c #FCBFE8",
"yX c #B1C1C1",
"uX c #C0C0C0",
"iX c #F0CDC6",
"pX c #E9C1DF",
"aX c #DDD9E1",
"sX c #EBC4E1",
"dX c #F4C3E4",
"fX c #F5C7E7",
"gX c #FAC2E6",
"hX c #FAC5EA",
"jX c #F6CBEA",
"kX c #FACBED",
"lX c #F7D0ED",
"zX c #FAD0EF",
"xX c #FBCEF1",
"cX c #FAD2F2",
"vX c #FBDBF6",
"bX c #FCDEF9",
"nX c #E5E1E3",
/* pixels */
"9X5X7X5X6X6X;X;X6X9X9X0X0XgXfXfXjXzXfXzXzXzXzXzXjXkXgXgXgXzXvXzXcXcXcXxXhXkXhXhXjXxXvXcXcXlXjXlXjXfX",
"0X9X9X6X9X9X5X5X5X2X9XpXfXhXjXlXzXzXzXjXjXkXkXzXzXzXcXzXzXkXvXvXvXcXcXcXxXhXhXhXhXhXjXvXcXcXcXcXcXjX",
"dXeX0X7X9X0X9XsXdXfXfXsXjXlXlXfXjXjXjXjXhXfXfXhXhXkXzXcXvXcXzXbXcXcXcXxXxXkXgXrXdXkXkXkXcXbXcXxXcXcX",
"gXgXgX0X9X0XdXdXgXdXdXdXpX@X~.j.~.@X@X@XoX@X4XgXhXhXhXhXkXcXkXzXcXxXxXxXxXkXhXhXtXkXcXxXhXbXcXcXlXcX",
"gXhXkXgX0X0XgX0XwXdXgXR.j.=./ 7 ! ;.:.$.+.E f..XfXhXkXhXkXkXcXzXcXcXkXkXcXkXkXkXkXkXxXxXxXcXcXcXlXcX",
"gXgXkXgX0X0XgX0XrXtXF.E D Y O.c H =.=.=.( P W O.H.kXkXxXkXkXcXcXcXcXcXkXxXcXxXxXxXkXkXkXxXcXxXxXxXcX",
"gXgXhXgXgX0X0XgXrXF.+.( *.*.=.O.U ' =.' b R ' =.@.H.gXkXzXxXkXcXcXcXcXcXxXcXcXkXkXkXkXhXkXxXcXxXxXcX",
"gXgXgXgXgX0XgXgX*X>.r T *.*.&.R  .] R R R ;.` ' ) +.sXhXkXhXgXhXkXkXzXkXkXcXcXcXkXhXkXhXtXkXxXxXxXxX",
"rXgXgXgXgXgXgXgX<X] 8 p Y O.R B.iXiXt.Z V.iXi.| / ! sXlXqXOXXXXXOXoXoXOX#XjXcXcXhXhXhXhXtXhXkXxXxXxX",
"gX0XrXgXkXhXhXgX<X] > g v p C _.).)._.!.)._._.).Q. .sXcXS.^ _ O._ _ ' ) %.#XkXxXxXxXhXxXtXwXtXxXcXkX",
"gXgX0XwXgXkXhXhX*X] w c p t A U.y.o.o.!.iX!._.U.v.~ sXlXk.1.d.' 1.X.1.@.^ oXjXxXkXhXxXvXkX8X,XtXxXxX",
"tXtXgXhXkXkXkXgX<X;.w p a t x y.Q.V.2.q.u...i.| w.] sXcXm.' J 6.P.uXuXJ.;.oXjXxXxXkXhXcXxXrX>XwXhXtX",
"tXgXhXhXkXkXkXdXD.N f i i > 1 ..2...~ 4 2 ~ A x Z ! pXcXm.) H f.aXnXnX'.1.oXkXkXkXkXhXxXcXgXrXwXhX>X",
"tXeXhXgXgXkXgX0XS.F q u q.N.S 3 } J.%.S C q...r.S ! dXkXn.) I H %.{ %.[ ! oXhXkXhXhXhXcXcXcXhXtXhXwX",
"eXeXgXgXgXkXgX0X1Xl.N j 9.9.p.C | u.u.r.} p.8.2.r.` sXkXn._ I U &.%.{ { h.4XkXhXhXkXhXxXxXvXxXxXhXtX",
"tXrXgXgXgXgXgX0X*X,.s < y.8.y.9.w.9.q.8.N./.....o.~ 4XkXk._ J ( 6.3.6.) H.hXhXkXgXgXrXkXxXkXcXhXxXhX",
"gX0XgXhXhXhXgX0X<Xk.M o ..p.a.a.U._.).).).V.o.!.).;.4XkXn._ H d.'.'.'.d.`.xXhXhXhX0XrXgXkXhXhXxXhXxX",
"kXgXgXgXgXgX0X9X9XE.` 2 3 A 9.a._.i.X.| X.2.2.t.!.1.4XhXk._ H %.x.x.x.#.G.hXgXrXgXgXgXgXhXrX,XrXwXtX",
"hXhXhXgXgXgX6X-X&Xe.k j 3 2 3 A o.2.~ x V  .X.| /.1.4XkXG.#.) k { %.' E .XdXrX0XgX0XwXgXhXwX8X,XwX8X",
"hXhXhXgXgX0X:X|.W.` < h < > y u ; X.u.u.r.r.r.v.c.S.4X#X@Xk._ U ' m.1.D.9XwXrXgXgXhXrXwXgXgXwX0XwXrX",
"gXhXgX0XrX6X-X$X,., * d d : % ; 4 j j z h V ;.;.C.#Xn._ :.g.J m 0 B ` E.{.1X9XeX0XgXcXkXgXrXrXwXgXrX",
"dXhXhX0XgX-X|.l.= * + , h d +   ; X.h * X b d.F.E.T./ / ] J n J M K ! e.j.0.T.5XgX6X,XkXcXkXhXgXgXgX",
"gXzXhX0X0X;XW.] + + + X > h d : 1 ! <   X + * B R x 3 S x ; R ;.g.f.r.5.e.J l.}.5XR.D.D.H.L.OXzXkXhX",
"0XhXkX0X9X;Xl.d + +   . % > y t < X       o @ + :  .t.B.Z . 2 l :.6.3.5.7.V ` g.,.J J n I K &.OXhXkX",
"6XgXgX0X6X%X] : - X     . % 8 y > X > < % . o . X.(.V.C 4 - m V m.K.Z.c.6.B 7 W D T T L c B W h.oXhX",
";X9XdX0X0XD.z : - O + + X X X ; > 1 u h y 2 < % w._.!.t.S z b.Z.K.c.' I T @.v O.P E L H B 7.! 5.R.kX",
"2XdXgX0XrXS.f = # - - > t X . o @ ; > h i t y + w.)._.I.u.~ M.K.b.b b f.m.A.Q f.+.d.O.n H f.J +.T.gX",
"1X9X0X0X7Xe., * * % 1 u k : h . . % - , 0 > 1 X | U.U.q.C Z M.K.f.5 v =.x.A.T f.#.d.) 7 n f.M +.Y.=X",
"&X;X6X6X$Xm * + + @ u u h z 1., > = k f = * * . 1 ~ ..t.l z M.K.k.D r L P P p E N U b : B f.H ` Y.{.",
"%X6X6X:XW.m - @ @ > u l 0 %.b.8 w V C.n.$.$.$.] { g.i V V K Z.`.K.4.Y D g q & a w c w 5 c %.c / Y.].",
"%X6X:X6Xg.0 @ + % t u c : 5.P.- # h.sXzXpXpXpXpXsX.XP +.^ G h.A.b.4.E ^ ^ f 7 a r r q 6 = s f 5.$XW.",
"5X0X0X0X] = - * % > 8 : # [ c., # h.pXzXzXzXzXcXzX^.D P N 9 U 4.6.4.1.1.4.F g.G.D.:./ ^ / / 5.*XeX%X",
"5XdX0X0X .7 * $ $ c H H M n F E 7 h.qXhXhXkXxXcXxX.XY Y Y g T 6.x.f.x.x.d.d.XXeX1X$XXX$XE.E.%X0X8X{.",
"6X6X:X6XXXe.f w N =.-.+.w 7 q E Y k.2X8X>XtXkXxXhXeX~.L.~.~.L.R.R.R..XOX~.#XfXeX=X|.,X-X|.|.}.}.}.W.",
"6X6X6X6X6XD.n v Y s.-.=.p 5 G =.@.>.].7XhXcXkXxXhXhXeXtXtXtXxXhXwX XhXcXcXcXxXtX>X|.9X:X X-X X X X-X",
"0X0X0X6X9X@X' g Y *.s.s.E q *.=.s.G H.fXkXhXkXrXtXtXrXrXtXwXwXwXwX>X>XcXcXcXxXtXwX,X0X:X:X6X0X0XtXeX",
"6XgX0X0X9X1X,.9 D O.s.-.P 7 Y s.-.G G.jXxXkXwXwXtXrXtXtXtXtXtX>X[.[.[.xXxXxXxXxXwX0X8X6X0XgXgXgXtXqX",
"6X6X8X8X9XD.M $ g Q =.-.T 7 P O.=.L :.sXkX,X,XgXtXtXhXhXhXhXtXwX}.z.z.tXxXxXxXxXrX6X6X0XgXhXgXgXtXtX",
"6X6X6X5XD.J w e g D Y O.F r a D F c H 3XtXrXhXgXtXkXkXkXxXtXtX,X X X}.tXxXxXxXxXgX-X6XgXgXgXgXgXtXtX",
"dX6XiXD.! e a a a a v e 5 g r a a v P 3XgXhXgXhXhXxXkXxXhXxXtXtXwX-X>XwXtXtXxXxXgX:X0XgXgXgXgX0XtXtX",
"eX5XD.E g c g v a a M +.p v v D n n P 3XkXkXkXkXxXxXxXkXxXtXtXtXtXwXtXwXrXhXkXxXhXwXrXgXrXwXwXgXtXqX",
"9XR.E g v c g g w v :.J p i M v B W ! +XkXhXkXkXkXxXhXxXhXhXxXtXtXtXtX>X>XtXtXxXgX8XrXwX0X8XwXrXqX>X",
"9Xn.6 w 8 9 9 d 0 R ,.k z W { _ <.Z.Z.m.fXjXxXcXxXxXxXxXxXxXxXhXtXxXtX-X>XwXtXxXhXwXgX0X,X0X0X,X>XwX",
"7XR.B $ E _ 9 <.M.1.C.M N 6.3.6.x.x.6.4.fXjXcXxXcXcXxXxXxXxXxXkXxXtXwX>XwXwXwXhXgXgXwX0X8X8X,X0XwX7X",
",X2XE.D.5.4.x.K.yX7.E.R.H.Q..X^..XL.L.+XlXlXxXxXcXcXxXkXkXhXhXkXtXtXtXtXwXwXwXtXhXdXwX0X8X8X7XwX7X7X",
"wXwXrXeX*XR.h.g.e.j.XXgXfXjXhXhXkXkXjXcXcXxXkXkXkXxXjXtXqXwXrXtXtXhXhXtXwXtXtXtXgXtX8X8X,X8X,X,X>X=X",
"wXwXeXgXeXdX4X2X1X1XdXgXgXgXkXkXxXkXhXkXkXtXtXtXfXtX7X>X>X>XwXqXtXkXxXtXtXhXtXtXtXwX,X,X,X>X>X|.[.}.",
"eXtXtXhXhXdXjXdX0XdXgXgXgXkXkXkXtXrXhXkXhXhXfXtXtX>X}.>XwXwX*X.XoXtXqXtXtXgXgXrXrXwX8XwX8X>X[.[. X>X",
"eXtXtXdXhXkXhXhXhXhXdXhXkXkXhXhXhXtXhXxXkXhXtXrXqX>X X7XtXtXtXtXtXtXhXtXxXhXxXtXwXwX,XwXwX X[.}.>X>X",
"eXtXtXhXhXlXhXhXdXhXgXhXhXhXhXhXtXtXkXkXkXhXtXtXtX>X>XwXtXqXwXwXqXtXtXxXxXxXtXtXwXwXwXrXqX X}.-XwX>X"
};
