/* XPM */
static char *_1707140957[] = {
/* columns rows colors chars-per-pixel */
"50 50 232 2 ",
"   c #070709",
".  c #0C0C0C",
"X  c #130D0D",
"o  c #0F100D",
"O  c #12110D",
"+  c #0B0C13",
"@  c #0B0C1C",
"#  c #130E13",
"$  c #160E19",
"%  c #0D1213",
"&  c #0B141A",
"*  c #131215",
"=  c #15131B",
"-  c #161618",
";  c #1A151C",
":  c #1B1A1B",
">  c #25171B",
",  c #221A1D",
"<  c #2A211E",
"1  c #0E0D21",
"2  c #0E1523",
"3  c #141423",
"4  c #181526",
"5  c #141925",
"6  c #1C1C23",
"7  c #141B2B",
"8  c #1B1C2C",
"9  c #181B32",
"0  c #1C1D32",
"q  c #241D23",
"w  c #291A23",
"e  c #231E2C",
"r  c #231E35",
"t  c #1A232A",
"y  c #1D2234",
"u  c #1C2435",
"i  c #232125",
"p  c #2B2324",
"a  c #23222C",
"s  c #2D2A2F",
"d  c #342A2A",
"f  c #222334",
"g  c #262B35",
"h  c #2C2B34",
"j  c #25243C",
"k  c #252A3C",
"l  c #2B2838",
"z  c #352C39",
"x  c #29333B",
"c  c #38343A",
"v  c #462A26",
"b  c #473737",
"n  c #4E3430",
"m  c #4C433F",
"M  c #2B2A45",
"N  c #352F46",
"B  c #2E3243",
"V  c #283747",
"C  c #333245",
"Z  c #3B3445",
"A  c #393946",
"S  c #33334B",
"D  c #3B3A4C",
"F  c #393A56",
"G  c #403946",
"H  c #413D4C",
"J  c #463D55",
"K  c #3B434D",
"L  c #2D455C",
"P  c #384156",
"I  c #3E435C",
"U  c #3D4661",
"Y  c #474549",
"T  c #524845",
"R  c #5C4D4B",
"E  c #55514E",
"W  c #444455",
"Q  c #494758",
"!  c #4C4C5C",
"~  c #524853",
"^  c #524E5D",
"/  c #4A5658",
"(  c #58585A",
")  c #634B48",
"_  c #6E4C4A",
"`  c #78534B",
"'  c #6B5657",
"]  c #775B56",
"[  c #76625B",
"{  c #464966",
"}  c #4D4C64",
"|  c #4C4A6A",
" . c #584E63",
".. c #4C5468",
"X. c #595667",
"o. c #4F4D74",
"O. c #575674",
"+. c #5B557D",
"@. c #595A7B",
"#. c #6C5367",
"$. c #68596A",
"%. c #695C75",
"&. c #725C73",
"*. c #567172",
"=. c #68666B",
"-. c #766666",
";. c #76766D",
":. c #696875",
">. c #786676",
",. c #6B7379",
"<. c #757479",
"1. c #885C57",
"2. c #86665E",
"3. c #866967",
"4. c #926F68",
"5. c #8D7575",
"6. c #AE786A",
"7. c #98827B",
"8. c #B78671",
"9. c #DA9277",
"0. c #5B5882",
"q. c #7A7787",
"w. c #78728B",
"e. c #8F6F85",
"r. c #9A6C8A",
"t. c #887688",
"y. c #95768C",
"u. c #887D95",
"i. c #9A7A95",
"p. c #AB7494",
"a. c #A87C9A",
"s. c #C578A3",
"d. c #F96DAE",
"f. c #588E87",
"g. c #5C8D8C",
"h. c #598B91",
"j. c #5E9290",
"k. c #7D838A",
"l. c #638D92",
"z. c #7D9096",
"x. c #64ADB2",
"c. c #84878A",
"v. c #858696",
"b. c #948897",
"n. c #8A9499",
"m. c #9A9093",
"M. c #A88885",
"N. c #AC938C",
"B. c #B6978B",
"V. c #A9829E",
"C. c #B1829E",
"Z. c #A39B9F",
"A. c #BA9692",
"S. c #B4A090",
"D. c #8C8EA0",
"F. c #9697A5",
"G. c #AB85A2",
"H. c #A989A1",
"J. c #B787A7",
"K. c #AB98AD",
"L. c #B395AA",
"P. c #B899B4",
"I. c #9BA2AA",
"U. c #A5A8AE",
"Y. c #B7A9A7",
"T. c #A7A8B3",
"R. c #B2AEB9",
"E. c #B9B6BA",
"W. c #CA9D91",
"Q. c #D9AA97",
"!. c #C495B4",
"~. c #C899B7",
"^. c #E191BB",
"/. c #CEB0A8",
"(. c #C5A3BE",
"). c #E3B8AB",
"_. c #EABDB0",
"`. c #DDC6B7",
"'. c #E5C1B8",
"]. c #F5C8BB",
"[. c #B0B5C4",
"{. c #F98CC5",
"}. c #E797C2",
"|. c #F796CA",
" X c #F99BCD",
".X c #FB9BD0",
"XX c #CBA5C2",
"oX c #C9ACC6",
"OX c #D8A8C8",
"+X c #DAB1CF",
"@X c #DCB3D0",
"#X c #DAB8D3",
"$X c #E6AACD",
"%X c #FAA2CE",
"&X c #E9ADD2",
"*X c #FAA5D2",
"=X c #F8A6D4",
"-X c #F6ABD4",
";X c #FAABD5",
":X c #FAADDA",
">X c #E5B4D5",
",X c #EBB2D5",
"<X c #EBB7DA",
"1X c #E4BCDB",
"2X c #EBBCDB",
"3X c #F5B1D6",
"4X c #FAB0D7",
"5X c #F6B5DB",
"6X c #FAB3DC",
"7X c #F6BADD",
"8X c #FABADE",
"9X c #EEBFE1",
"0X c #FAB5E1",
"qX c #F7BCE2",
"wX c #FABCE3",
"eX c #FCBFE8",
"rX c #BEC0C4",
"tX c #D8D7D9",
"yX c #EBC8CB",
"uX c #ECC4E2",
"iX c #F6C3E4",
"pX c #FAC2E6",
"aX c #F7C6E8",
"sX c #FAC5EA",
"dX c #F7C9EA",
"fX c #FACBED",
"gX c #F7D1EE",
"hX c #FAD1EE",
"jX c #FBCEF1",
"kX c #FBD2F2",
"lX c #FBDAF5",
"zX c #FCDDF9",
/* pixels */
"5X5X5X3X5X4X-X-X:X8X8X8X8XiXaXaXdXhXdXfXhXhXhXhXfXfXaXpXpXhXlXhXkXlXjXjXaXjXsXsXfXkXlXkXgXgXdXgXfXaX",
"iX5X5X4X4X7X7X7XwX0XqXaXsXaXaXhXhXhXhXhXdXfXdXhXhXhXhXhXfXfXzXlXlXkXkXjXfXfXfXdXsXwXfXlXjXlXgXkXkXdX",
"iX8X8X3X&X,X,XyXuXyXuXdXhXhXlXhXhXhXfXfXfXdXfXsXfXfXhXhXkXkXkXzXkXkXjXjXjXfXsX0XwXjXfXfXkXzXjXgXkXgX",
"iXpXiX7X5X7XwXpXiXiXiXsXsXfXhXhXhXhXfXdXfXfXaXpXpXpXpXfXhXkXfXhXkXkXjXjXjXfXeXsXsXdXkXjXsXzXlXkXgXkX",
"pXsXfXpX8X8XiX8XqXqXiXwXaXdXaXfXhXfXpXaXpXpXsXhXfXfXsXsXfXfXkXjXkXkXsXfXkXfXfXfXfXfXjXjXjXkXkXkXkXkX",
"pXpXfXpX8X8XwX8XpXwXpXpXaXiX1X2XpXpXiXb.H.$XwXaXfXfXkXfXfXfXkXkXkXkXkXjXjXkXjXjXjXfXjXfXjXjXjXjXjXkX",
"pXsXfXpXpX8XiXwXqXqX0X0XaXL./ :.(.XXP.^ K X.~.7XOXOX9XfXfXjXfXkXkXkXkXkXkXkXkXfXfXsXfXfXfXjXkXjXjXkX",
"wXwXpXpXpX8XpXpXsXqX0XOXL.t.A F A S f j P ....v.D C P.pXfXsXsXfXfXkXfXkXkXjXkXkXfXfXsXsXeXfXjXjXjXjX",
"wXwXpXsXpXpXsXpXfXpX8XG.S W 0 M o.+.| O.0.0...S M F w.OXaXsXaXaXfXpXhXhXkXfXkXkXfXsXfXsXwXeXfXjXjXjX",
"sXwXwXiXsXsXfXpXpXpXwX~.| F | o.o.@.X.O.0.o.S P o.O.U u.uXsXfXsXdXhXfXfXfXfXjXjXfXfXsXjXeXeXeXjXkXdX",
"sXsX0XwXpXfXfXfXsXsXiX&X#.0 | 0.@.! c z J  .a h A ^ ..! (.aX#X#X@X@X+X+X>X1XaXjXfXfXjXkXfX0X:XeXjXjX",
"wXwXwXsXfXfXsXsXsXpXpX,X&.8 l J J ) B.~.5.b b /.N.n s t K.K.W $.:.:.:.:.:.:.+XdXfXfXfXkXjX0X;X0XeXsX",
"wXsXsXsXfXfXfXpXpXpXaX>X$.9 y f w M.yX].'.8.N.]._.A.Y.E z.n.V :.^ ( ( ( ^ ( XXsXsXfXfXfXkXsXeX6XsX:X",
"wXwXaXsXsXsXpXpXpXpX7XJ.M u y r w M.).W.S./.].].].].yX( l.j.V P X.R./.rXI.:.(.fXsXsXfXjXkXkXsXeXeX0X",
"qXwXaXpXsXsXpX8X8X8X$X$.7 u y f > 4.B.[ b [ /.A./.N.7.c l.h.V U c.tXtXtXtX<.XXpXsXsXsXjXkXlXjXjXsXeX",
"pXwXpXpXpXpXpXwX6X4X^.K 7 u 7 3 X ) B.S.7.) m v ] v _ Y j.f.V I c =.;.:.=.! (.pXsXsXeXsXfXfXkXsXjXjX",
"pXwXpXpXpXpXpXwXwX8X:Xa.N ; b [ b > _ 3.-.i O n 1.m b % j.f.V I h Y Y Y E q.>XaXsXwXwXeXsXsXsXfXeXjX",
"sXpXsXpXpXpXwX0X5XeXeXL.l ; ` 4.B.b n m.Y.m.-._ 6.2.Z.! j.g.V U ! k.k.k.=.i.iXqXwXpXpXpXsXwX:XeXqX0X",
"sXsXsXpXpXpX4X;X;X4X4X!.K ; 1.3.2.1.` 1._ _ ) 8.S.n ] c g.g.V I :.U.T.T.q.y.0X8XwXwXwXeXpXwX:X:X0X0X",
"pXfXsXpXpX8X;X%X;X*X4X4X~.#.' 3.4.8.8.Q.).).).'.3.[ '.-.g.h.V I Q b.F.D.X.y.wXwXwXpXwX8XeXpXwX8X0XqX",
"eXpXpXwXpX;X%X;X:X*X8X6X$Xs.b , v 6.9.Q.A.A.B.N.7.7.yX;.l.x.L U 8 N W N N J.8XwXwXpXhXfXpXpX8XwXeXqX",
"wXfXsX6XwX*X*X;XwXwX8X-X!.C = - v ` 6.6.) d c c 5.m Y.;.*.x.h.L S D :.Q a.%X*X6XpX4X:XhXlXfXsXpXeXeX",
"iXfXfX8XwX*X*XwXpXaXpX$X$.l 5 : > > v n -.' -.-.7.[ Y.E / *.*.V f = h C 5X6X*X*X8XpX6X4XsXlXhXfXfXaX",
"8XsXfX8X8X;X*X*X;X7XOX#.i i - - X > X X < R R E / ( ( - Y W u u f 6 h s >.&.&.!.*X8XpXpX8XpXlXhXfXfX",
"4XpXaX8X4X4X;X%X-X,X>.5 6 w < q $ + * c p * X : / f.K i d x : s ^ :.c.c.m.<.W C.-X$X~.(.~.~.OXuXdXfX",
"4X8XpX8X8X8X:X%X8X!.h % $ , p q w *   Y Y . X # o : T 7.B.b   : > T ( ( ( ( Z ~ e.~ A z f c X.L.2XaX",
"pXpXpX8XpXwX4X%X,X>.& % % % : i p q ; i - .   . o R `.N.n d o , z F.R.T.F.b.Y 4 l g / i 3 f Q $.J.qX",
"wX8X8XpX8X4X4X*X~.h & o     % : e q ; * : t : - : 2.].).[ b s q.F.T.v.%.A G Q C J Q @.+ 8 $.A J r.=X",
"4X4X4X4X4X4X*X%X&.- X X       % : : ; i e i q : , [ ].].W.8.~ k.[.n.B 0 w.u.u.W } O.v.$ e q.Y H p.=X",
"4X6X4X;X%X%X%X%Xc * X O . X . . % * - q , q ; - : R Q.).4.n m c.E.q.4 9 | O.} g g B I 1 8 ,.G z r.=X",
"4X4X;X4X;X*X;Xa.a O X O X X O o   . . X * = $ # X , m ` 5.p s c.R.b.l 1 9 r r ; = 2 8 1 t <.c e r.=X",
"8XpX8X6X;X4X8X$.- X O O X X : t % : . X - : t H A E >.z z z S v.R.T.q.W f 9 4 ; 5 3 y @ 6 X.z r i.6X",
"4X8X8X8X4XpXpX$.- % . * # : i i i <.p q $.>.b.1XuXuXP.{ O...S q.T.I.I.q...} y 3 a 8 y 2 3 3 7 D !.:X",
"8X4X;X4X4X8XpX] & % % # # w q e a >.i h J.qXgXdXeXsXP.S M u 7 x W ! ..X.K S x >.p.#.H D Z D H s.|.{.",
"4X4X4X4X4XpXiXV.x o + + + $ 3 3 4 i 7 & &.1XdXfXfXsX~.P S K j V ! =.k.k.k.w.:.XX:X|.$X^.^.^.}. X|.=X",
"4X8X8X8X8XpXpXiXb.: 5 3 4 4 0 B { } } S A i.OXqX0XeX>XH.G.G.a.a.G.a.a.K.K.P.oXwXwX:X3X;X=X;X8XwXeXeX",
"8X8XiX8X8XpX8X5X~.g f 8 4 0 J O.0.+.+.@.O.|  .!.wXwXeXeXqXeXeX:X{.{.{.fXjXjXjXfX8X8X8X4X8XwXpXpXqXqX",
"4X4X4X4X3X3X3X3X&.f y 9 1 3 M F o.0.0.+.0.0.o.%.XXwXsXsXsXeXeX:X|.d.d.eXjXjXjXjXwX:X:X8XpXsXsXpXeXeX",
"8X6X4X,X^.V.C.V.s 6 0 u t @ 1 0 F | o.0.0.0.0.| i.sXjXsXjXsXeX0X.X.X.XeXsXjXjXjXeX*X;XpXpXpXpXpXeX9X",
"4XyX3XV.( t y =   @ r y u 0 @ r j r j I o.O.O.Q  .>XdXjXjXeXeXeX0X*X:X0XsXeXjXjXpX:X8XpXpXwXpXwXeX<X",
"qX5X&X^ 9 M j r $ @ e r f y C a.C.Z @ 2 M M M f I 1XdXjXjXeXeXeXeX0XeX0XeXeXjXjXpXwXwXpXwX0XwXwXeX<X",
"qX7X&X$.y r j j f 4 8 0 y y y.2X@XW 7 0 0 0 0 y { #XjXsXeXjXeXjXeXeXeX:X:XeXeXjXsX4XwXwX6X8X0XwXeX&X",
"qXqX&X&...k % + + h y G  .b.>XuXw.k u 0 M S S f J <XjXjXjXjXdXeXeXsXeX*X:X0XeXjXeX8XwX0X6X0X6X6X:X&X",
"5X5X&X&.z.k.,.,.k.U.( !.$X2XdX(.V j j C C l l G X.1XjXjXjXjXjXjXjXsX0X:X0X:X0XsXsXeXwX4X6X5X:X6X:X<X",
"6X0X5X!.$...:.,.:.=. .OXpXaXfXXXV y 8 c A h Y R.T.K.gXdXsXsXsXdXeXeXeXeX0X0X0XeXsXpX0X8X6X5X0X0X0X0X",
"0X0X0XqX,X>X1X2X>X&X&XiXaXsXaX2Xt.7 K c.n.n.F.U.c.b.sXsXqX0XeXeXeXsXsXeX0XeXeXeXsXwX0X6X:X6X:X:X=X=X",
"0XqXqXsXsXsXaXpXpXwXpXpXpXaXfXdXoXt.y.e.e.e.t.e.t.~.:X:X:X:X0XeXeXjXjXeXeXsXeXeXeX0X:X:X:X:X=X.X{.|.",
"qXqXeXsXsXaXfXpXpXpXaXwXpXfXfXaXpXwXpXfXaXpXeXeXqX:X|.:X0XqXeXdXjXeXjXeXsXsXsXwXwX0X:X0X0X-X{.{.|.:X",
"qXeXsXeXaXdXfXsXeXiXsXsXdXfXsXsXwXeXsXjXdXeX9X0XqX:X.X:XqXeX9XeXeXeXsXjXeXsXjXeXqX:X:X0X0X.X{.|.=X0X",
"wXwXeXsXaXfXdXsXsXeXsXaXfXfXeXsXeXeXdXdXjXsXeXeX0X0X:XqXeXqX0X0XeXeXeXeXjXjXeXeXeX0X0XqX0X=X|.=X0X:X"
};
