/* XPM */
static char *_1707140957[] = {
/* columns rows colors chars-per-pixel */
"50 50 229 2 ",
"   c #0A0909",
".  c #0C0B0C",
"X  c #120C0D",
"o  c #07130F",
"O  c #0C120D",
"+  c #12110E",
"@  c #0D0D12",
"#  c #0D0A1A",
"$  c #120E12",
"%  c #130F1D",
"&  c #0C1214",
"*  c #081415",
"=  c #131214",
"-  c #14141B",
";  c #1B151B",
":  c #181919",
">  c #1C1A1D",
",  c #221B1D",
"<  c #281C1B",
"1  c #361E1C",
"2  c #1B201F",
"3  c #26221E",
"4  c #0E0F22",
"5  c #0B1826",
"6  c #131420",
"7  c #1A1624",
"8  c #1C1B22",
"9  c #171728",
"0  c #1A162A",
"q  c #161B2B",
"w  c #1C1B2B",
"e  c #171833",
"r  c #1D1D33",
"t  c #221C23",
"y  c #261D29",
"u  c #231E33",
"i  c #271E39",
"p  c #1D2124",
"a  c #1D222C",
"s  c #1D2334",
"d  c #1E2639",
"f  c #242126",
"g  c #2B2224",
"h  c #25242B",
"j  c #2B232B",
"k  c #35292D",
"l  c #3A322F",
"z  c #232434",
"x  c #252539",
"c  c #2A253A",
"v  c #272A38",
"b  c #2A2B3B",
"n  c #312A36",
"m  c #2F333F",
"M  c #34333C",
"N  c #383338",
"B  c #4A2D2D",
"V  c #46322C",
"C  c #483837",
"Z  c #553C3B",
"A  c #4A413C",
"S  c #2B2B44",
"D  c #2E3343",
"F  c #333242",
"G  c #3C3542",
"H  c #393A46",
"J  c #34334B",
"K  c #3A3C4D",
"L  c #373757",
"P  c #3D3D53",
"I  c #3F3E60",
"U  c #463947",
"Y  c #443C4C",
"T  c #503D43",
"R  c #433D54",
"E  c #4A3D52",
"W  c #403E64",
"Q  c #3C444F",
"!  c #3E4062",
"~  c #48424A",
"^  c #574948",
"/  c #434455",
"(  c #4A4454",
")  c #494956",
"_  c #44445B",
"`  c #4D4B5C",
"'  c #554A56",
"]  c #505258",
"[  c #55555D",
"{  c #5D585C",
"}  c #664A46",
"|  c #675758",
" . c #795955",
".. c #72625B",
"X. c #474A67",
"o. c #4D4C63",
"O. c #514C62",
"+. c #4C516A",
"@. c #545566",
"#. c #5A5562",
"$. c #5A5B64",
"%. c #5D5D6A",
"&. c #504F74",
"*. c #4D5476",
"=. c #575778",
"-. c #5B5B7B",
";. c #625A66",
":. c #655869",
">. c #705D79",
",. c #5D636A",
"<. c #5F6670",
"1. c #666467",
"2. c #776766",
"3. c #636374",
"4. c #6E6C74",
"5. c #6A6879",
"6. c #796A78",
"7. c #6A737F",
"8. c #757779",
"9. c #885448",
"0. c #895855",
"q. c #90675B",
"w. c #875D78",
"e. c #856A65",
"r. c #886D71",
"t. c #887676",
"y. c #9C7E76",
"u. c #A17E76",
"i. c #C37D6A",
"p. c #9D8078",
"a. c #AD867A",
"s. c #C88377",
"d. c #595A82",
"f. c #787C85",
"g. c #7A718B",
"h. c #8B6D86",
"j. c #926884",
"k. c #887687",
"l. c #8D748B",
"z. c #93788E",
"x. c #8E7B91",
"c. c #977B92",
"v. c #AC7C9B",
"b. c #B07FA0",
"n. c #FA6DAF",
"m. c #7A8687",
"M. c #8F8C8F",
"N. c #888996",
"B. c #958798",
"V. c #8C9199",
"C. c #A88C85",
"Z. c #B48B87",
"A. c #B5928C",
"S. c #AA869F",
"D. c #B79895",
"F. c #BAA49B",
"G. c #8C8AA0",
"H. c #9C99A6",
"J. c #A88CA5",
"K. c #B685A6",
"L. c #AB96AB",
"P. c #B892AD",
"I. c #BA9AB5",
"U. c #AAAAAC",
"Y. c #AAAAB9",
"T. c #BEA3BB",
"R. c #B4AABE",
"E. c #BAB8BC",
"W. c #CA9B8F",
"Q. c #DCA48F",
"!. c #C5A398",
"~. c #CE8EB2",
"^. c #C496B5",
"/. c #CB9CBB",
"(. c #DCBAAC",
"). c #C2A2BD",
"_. c #E2B2A8",
"`. c #BFC1BF",
"'. c #F2C9BA",
"]. c #D99DC2",
"[. c #F98BC5",
"{. c #FA94CA",
"}. c #F799CA",
"|. c #F59DCE",
" X c #F99CCD",
".X c #C8A8C2",
"XX c #D7A7C7",
"oX c #D4ADCA",
"OX c #D4B1CD",
"+X c #DBB2CF",
"@X c #DCB7D3",
"#X c #E8A6CC",
"$X c #F8A1CE",
"%X c #EBADD3",
"&X c #FAA4D3",
"*X c #F4A9D1",
"=X c #F6A9D6",
"-X c #FAABD6",
";X c #FAADDA",
":X c #EAB5D7",
">X c #E5BBDA",
",X c #E9BDDC",
"<X c #F7B1D7",
"1X c #F6B4DB",
"2X c #FAB3DC",
"3X c #F5BADD",
"4X c #F9BADE",
"5X c #FAB5E1",
"6X c #F6BEE2",
"7X c #FABCE3",
"8X c #FCBFE8",
"9X c #BFC0C7",
"0X c #C5CACF",
"qX c #F0CBCF",
"wX c #FDD3C6",
"eX c #E3E3DD",
"rX c #DCDFE5",
"tX c #EDC3E2",
"yX c #F5C4E4",
"uX c #FAC2E6",
"iX c #F7C8E7",
"pX c #FAC5EA",
"aX c #F6CBE9",
"sX c #FACBED",
"dX c #F7D1ED",
"fX c #FAD0EF",
"gX c #FBCEF1",
"hX c #FAD2F2",
"jX c #FBDBF6",
/* pixels */
"3X<X<X<X<X<X*X*X<X4X4X1X5XyXiXiXaXaXaXfXfXfXfXfXfXaXpXuXuXsXjXhXgXhXhXsXpXsXpXsXpXgXhXjXgXaXaXdXgXiX",
"3X3X4X1X3X3X4X4X4X3XyXpXsXiXaXdXfXfXfXaXaXsXaXfXfXfXhXfXsXsXjXhXjXhXhXgXgXaXpXpXpXiXhXhXhXjXhXhXgXaX",
"yX4X3X1X1X4XuXiXaXiXaXyXaXdXdXaXfXfXyXtXtXaXpXpXpXsXfXhXhXhXhXjXhXhXgXgXsXsXpX7XyXsXsXpXhXjXhXgXdXhX",
"uXuXuX4X4X4XuXuXpXuXyXyX>XoXOX@X@X).k.z.J.tXiXuXuXuXuXsXfXhXhXhXjXgXgXgXgXsXpXuXuXsXhXhXpXjXjXgXgXhX",
"uXpXuXuX4X1XuX4X6XyX6X:Xk.' #.O.` ( U X.X.l.J.J.I.iXuXsXsXsXhXhXhXhXpXgXgXsXsXsXsXgXsXhXgXhXhXhXdXhX",
"uXpXfXuX4XyX4XuX7X7X6XP.b 6 J X.x i W d.*.+.R c +.P.hXsXsXsXhXhXhXhXhXgXgXhXgXhXgXsXgXsXgXgXgXgXhXhX",
"uXuXuXuXuX4XuX4X7X6X:.L Q d e I &.X.*.d.d.*.=.S &.=.^.dXsXsXsXhXhXhXhXhXhXhXhXsXpXsXsXpXsXgXhXgXhXhX",
"7XuXuXuXuXuXuXuXpX6Xh.d R &.L *.*.=.=.-.=.I +.=.=.` P.pXpXsXuXpXsXdXsXfXsXgXhXhXsXpXsXpXpXpXhXgXsXhX",
"uXuXuXuXuXuXsXpXpXuX/.n R =.d.-.&.Y C U ` F M ~ +.Q 4.tXaX:XXX.XoX.XoXOXOXOXaXhXsXpXpXpX8XpXgXgXgXgX",
"uX4X7XuXpXuXpXuXpXuX).b S J W E T A.!.p.Z C D.e.l N Q @XsXB.( O.] ] ` ' ` o.tXsXgXpXsXsX8X5X8XgXgXsX",
"uXuX4X5XuXsXsXuXuXpXh.z s u z - 2.'.wX'.!.a.'._.A.C.;.OXgXl.:.5.) ,.,.1.%.R >XhXsXpXgXjXpX5X;X8XgXgX",
"8X8XuXpXsXsXsXsXpX).J s s r z # 2.(.u.u.D.wX'.'.wXF.| tXsXl.' ( [ `.`.`.U.#.,XsXgXgXpXhXgX7X;X5X8XpX",
"7XuXpXpXsXsXsXuX7X6.S i u r i ;  .!.a.2.Z F.A.A.e.2.;.@XjXx.O./ <.rXeXeX0X$.tXfXpXsXsXsXhXpX7X2XpX=X",
"7X7XpXuXpXpXuXuX8Xc.c r s e 0 $ l a.D.C.t.A 1  .V ....@XgXz.` _ v ,.[ { ] U >XsXpXpXpXhXhXgXpX8XsX5X",
"7X7XyXpXuXpXuX4X4X:XU 0 u j | ^ + } Z 4.l 2 V q.C ^ ~ >XfXz.` / n $.[ [ 1.k.yXpXsXpXpXgXhXjXgXgX8X8X",
"yX8XuXuXuXpXuX7X4X;XE e y B u.D.} Z ..E.C.2.} a.} H.| +XsXl.` / Q 8.4.f.) I.pXuXuXpX7XsXgXsXhXpXgXgX",
"uX7XuXuXpXuXuX7X7X1Xl.E 9 B y.q.q.9.9.}  . .y.!.C ^ ' :XaXl.` _ 1.9XR.9Xf.I.uXuXuX7X4XuXpXpXpXsXuXgX",
"sXuXpXuXuXuX4X4X4X7X7X/.$.Q 0.q.s.i.Q.'.(.(.qXA...F.2.+XpXh.o./ / N.k.V.@.L.yX7XuXuXuXuXpX7X;X8X7X7X",
"uXpXpXuXuXuX2X&X-X;X<X/.4.~ < 9.s.Q.W.2.t.y.t...p.(.r.+XpXI.o._ u ) 3.` / XX4X4X7X7X7X7XuX7X;X;X5X5X",
"uXsXpXuXuX4X-X$X-X&X/.U p 2 < B q.a...^ A A 8.t.^ 0X6.oX#X+XJ.R / / d.#.P.6X3XuXuXuX7X7XuXuX5X4X5X7X",
"7XsXuX4XuX-X&X-X-X$X' = f p : , 1 < ^ 2.^ ' ..| 2.U.t.l.;.( c.n h : z Y ~.%X%X3X4X7XfXdXuX7X5X8X8X8X",
"7XsXuX4X5X-X$X-X<XS.h : g t @ . ; , ; ^ 2.2.1.2.8.f.P.' ;.E Y j M f H ~ h.j.w.^.uX2X-XfXhXsXaXyX8XyX",
"uXsXpX7X4X-X*X3X^.n * & t y y ; X   < t       . ' j.r.n V l 7 G ;.1.k.m.8.1.Y w.1X/.K.K.I.T..XaXsXuX",
"4XpXsX4X1X-X$X}.6.7 = = $ , t t , X l l . X @ & t j | p.C.C X y k ] 4.4.8.4.~ T w.Y / b M K $.H.tXsX",
"2X7XuX4X;X;X*X~.N * O   . = , g f f j >   X . O X } '.Z.C 3 + k H N.Y.H.M.4.M 6 a m Q w r D Q <..XiX",
"<X4XuXuX4X4X*Xw.: + + .   . : > f 8 ; - t t > > : 2.wX_.p.^ t N.H.Y.m.@.G K @.J K %.$.6 w 3.<.] I.iX",
"uXuXuX4XuX4X*Xw.@ + X X .     + : , ; y y h > > : ..'.'.W.C.^ B.Y.N.v z f.G.g.X._ 8.4.6 w 7.@.D K.8X",
"4X4X4XuX4X<X$Xw.. + + O + O . . $ = : > > 7 ; : = ^ _._. .~ C G.Y.f.8 q X.*.d.L b / H - w 5.) s b.=X",
"-X-X-X4X<X-X~.C $ = & # $ ; 8 = = = . & * * + @ @ < }  .e.g h V.Y.G.D % e e J u 0 z 7 - r g.Q q b.-X",
"<X4X-X-X$X&XK.* + $ # & ; y j - ' H   o o o o @ E :.6.N n ~ M H.R.Y.g.! v u 9 % % 7 7 6 0 X.D 5 b.&X",
"<X<X;X-X-X&X~.& O X # = 2 g t j V.[ 8 #.B.x.x.B.+XtXT.Q ! ) v l.B.V.m.` R / w % y a a * 4 q 5 _ /.&X",
"4XuX4X2X-X-XP.* O O o : < g , 8.E.n a J.fXdXfXhXdXdXT.D D D q Y $.,.5.3.3.O.G :.^.6.) E ( ( :./.4X5X",
"<XuX<X4X<X4XXX~ O O . : t t $ ` #.b a J.iXiXgXgXhXhX.XK J L d Q %.,.7.m.f.3.5./.1X#XXX].].].#X<X5X;X",
"4X<X-X<X4X4X4XB.h @ @ % 0 c K z o.@.v v.=X6XgXgXpXpX,X.X)..XI.^.^.^..X.X.X.X.X6X&X X<X&X X X{.{.{.{.",
"<X<X<X<X<XuX7XqX^.M w L =.&.d.L L -.! v.pXgXgXgXpXpX8X6X8X8X8XgX5X XpXhXhXgXsX8X;X X4X-X X&X$X X|.=X",
"4X<X4X4X4XuX7XuXuXh.b J =.d.d.X.J =.+.>.,XpXpX7X7X8X7X6X8X5X5X5X7X=X;XhXhXhXgXpX4X-X4X-X-X2X4X7X8X8X",
"<XuXuXqX4X4XuX<X4X#XJ u X.-.=.=.S X.-.O.+XsX2X5X8X8X5X8X8X8X8X;X[.[.{.gXgXgXgXgX4X4X2X2X4XuXuXuX6X6X",
"<X<X<X<X4X4X<X<X1X1XE 9 ! =.-.-.v S @.` +X;X2X7X8X8XsX8X8XgX8X;X{.n.n.8XgXgXgXgX7X2X-X4XuXuXuXuX8X8X",
"<X4X<X<X<X<X4X4X3X/.c # r J X.P 6 e S Y XX5XuXpX8XpXgXgXgXgX8X5X&X X{.8X8X8XgXgX7X&X-XuXuXuXuXuX6X8X",
"uX<XuX4X4X4X4X4X/.( # # 0 r r z 6 r v 6.6XpXpXpXsXsXgXsXgX8X8X5X5X&X;X5XgX8XgXgXpX-X4XuXuXuXuX7X8X8X",
"5X4X4X4X1X4X5X%Xz.v q a z z i 0 6 z D L.pXsXsXsXaXgXaXgXgX8X8X8X8X5X5X5X7X8XgXgXpX7X7XuX7X5X7X7X8X,X",
"6X6X5X4X2X2X1XK.F u z s a x u 7 8 h m B.pXpXsXsXgXgXgXgX8XgXgX8X8X8X8X;X;X8X8XgXpX-X7X7X2X4X5X5X5X%X",
"6X6X6X5X5X5X:Xh.9 u u w z M > j V.U.H.N.>XsXdXhXgXgXgXgXgXgX8XaXgX8X8X;X;X5X8XgXpX5X7X5X;X4X4X;X=X#X",
"1X5X4XuX7X5X6Xh.0 y y 0 $.V.8.~ m.m.m.=.+XdXhXgXgXgXgXgXgXgXgXgXgX8X5X;X5X;X5XpX7XuX7X4X2X2X;X4X;X%X",
"5X4X5X5X5X8XyXz.F m.m.N.Y.9XY.f.I.T.T.T.aXhXgXgXhXgXgXaXgX8XgXgXgX8X8X8X5X5X5X8XuXuX5X4X2X1X5X5X5X1X",
"5X5X6X8X7X7XyX+Xh.6.t.6.k.t.6.B.>XgXhXhXdXgXdXgXgXgXaX8X5X5X5X8X8X8X8X8X5X8X8X8XpX8X2X;X;X2X;X;X=X=X",
"5X6X5XuXpXiXiXyX:X%X>X:X%X>XtXtXgXaXpXpXpXpX8X8X8X6X;X5X;X;X6X8X8XgXgX8X8XpX8X8X8X5X;X2X;X;X=X X[.{.",
"6X7XuXpXpXpXpXpX6XyX6X6X6XaXaXyX8X6XpXgXpXpXpX6X8X1X{.;X5X6X8X8XsX8XgX8XpXpXpX8X7X5X;X5X5X=X[.[.|.;X",
"7X8XyXpXpXaXsXpXyXpXpXpXaXsXpXpX8X8XpXgXsXpX8X5X5X;X|.5X6X8X6X8X8X8XgX8XpXgXpX6X5X5X;X5X5X|.[.{.;X5X",
"7X7X8XpXpXsXaX8XpX8XyXuXpXsXpXpX8X8XsXsXgXpX8X8X6X5X;X5X6X6X5X5X8X8X8X8XgXgXpX8X8X5X;X8X5X|.{.=X5X=X"
};
