/* XPM */
static char *_1707140958[] = {
/* columns rows colors chars-per-pixel */
"50 50 240 2 ",
"   c #060708",
".  c #0C0B0B",
"X  c #130D0D",
"o  c #190C0C",
"O  c #0D120E",
"+  c #13100D",
"@  c #0B0D13",
"#  c #0E0C1C",
"$  c #130E13",
"%  c #140E19",
"&  c #0C1213",
"*  c #0B151B",
"=  c #141213",
"-  c #171716",
";  c #13121C",
":  c #1B151B",
">  c #1B1A1A",
",  c #241919",
"<  c #30211E",
"1  c #151423",
"2  c #131324",
"3  c #1A1523",
"4  c #141A24",
"5  c #1B1A23",
"6  c #16182B",
"7  c #1A1C2C",
"8  c #1C1C31",
"9  c #191F3A",
"0  c #231D24",
"q  c #281D27",
"w  c #221D2D",
"e  c #221D34",
"r  c #221E3B",
"t  c #1A242A",
"y  c #1C222D",
"u  c #1D2334",
"i  c #1A2838",
"p  c #242124",
"a  c #2B2325",
"s  c #22222B",
"d  c #2C232B",
"f  c #382828",
"g  c #242236",
"h  c #252933",
"j  c #282738",
"k  c #24293A",
"l  c #2C2C3C",
"z  c #332932",
"x  c #322D3B",
"c  c #2E3036",
"v  c #33333D",
"b  c #3B3639",
"n  c #472F33",
"m  c #4A3A38",
"M  c #563D38",
"N  c #643E38",
"B  c #56413E",
"V  c #64423A",
"C  c #2A2D46",
"Z  c #312D46",
"A  c #2D3346",
"S  c #323444",
"D  c #35344B",
"F  c #393749",
"G  c #3B3A4D",
"H  c #2D3150",
"J  c #363B52",
"K  c #393957",
"L  c #443945",
"P  c #423B4C",
"I  c #543E46",
"U  c #443D53",
"Y  c #463D60",
"T  c #3C414A",
"R  c #3A4456",
"E  c #44434E",
"W  c #4A464C",
"Q  c #544646",
"!  c #444352",
"~  c #494756",
"^  c #4A4A5C",
"/  c #534D53",
"(  c #544A59",
")  c #5B4A5C",
"_  c #4C5059",
"`  c #52525C",
"'  c #585858",
"]  c #694B47",
"[  c #71524E",
"{  c #6A5856",
"}  c #795C57",
"|  c #6D635F",
" . c #7C615B",
".. c #474967",
"X. c #4B4C63",
"o. c #574C63",
"O. c #534C6B",
"+. c #495268",
"@. c #555464",
"#. c #5A5563",
"$. c #595969",
"%. c #524D70",
"&. c #4D5477",
"*. c #535373",
"=. c #5A567C",
"-. c #575879",
";. c #5C5A7D",
":. c #6D5566",
">. c #67566A",
",. c #635B6D",
"<. c #6B5C72",
"1. c #755D73",
"2. c #7B5C73",
"3. c #5D636B",
"4. c #6A666B",
"5. c #786866",
"6. c #7E706E",
"7. c #6A6776",
"8. c #776678",
"9. c #7D6B7B",
"0. c #69767A",
"q. c #7B7577",
"w. c #75737A",
"e. c #86625C",
"r. c #845D75",
"t. c #846966",
"y. c #94716A",
"u. c #87647B",
"i. c #887876",
"p. c #997975",
"a. c #AB776C",
"s. c #90837C",
"d. c #AC827C",
"f. c #CD8A79",
"g. c #5B5781",
"h. c #615886",
"j. c #7C6B83",
"k. c #6D7483",
"l. c #797889",
"z. c #846A82",
"x. c #886983",
"c. c #887889",
"v. c #937890",
"b. c #987B95",
"n. c #A37C96",
"m. c #B87D9E",
"M. c #BC7EA2",
"N. c #C178A1",
"B. c #FA6DAF",
"V. c #7D8486",
"C. c #88868A",
"Z. c #868B95",
"A. c #938296",
"S. c #978F91",
"D. c #A98B89",
"F. c #B6948C",
"G. c #A7829C",
"H. c #A89893",
"J. c #B89A91",
"K. c #918AA0",
"L. c #9999A5",
"P. c #AA8DAA",
"I. c #B889A7",
"U. c #B493AC",
"Y. c #BA9AB6",
"T. c #9EA1AF",
"R. c #A6A4AE",
"E. c #BBA7BC",
"W. c #B0B0B7",
"Q. c #C09487",
"!. c #C19C94",
"~. c #DDA48E",
"^. c #C9A69C",
"/. c #D28DB4",
"(. c #C19BB6",
"). c #C79BB9",
"_. c #E592BD",
"`. c #D9AEA8",
"'. c #CCB4AB",
"]. c #D8B4AC",
"[. c #C3A2BB",
"{. c #CAA5BE",
"}. c #E6B8AA",
"|. c #EABCB4",
" X c #D4C5BF",
".X c #E8C3B7",
"XX c #F5C9BB",
"oX c #AEB1C2",
"OX c #B4B7C6",
"+X c #D59EC1",
"@X c #F98BC4",
"#X c #EB9DC7",
"$X c #F994C9",
"%X c #F99BCD",
"&X c #FB9BD0",
"*X c #CAA7C2",
"=X c #C5ABC3",
"-X c #D7A7C7",
";X c #DDABCC",
":X c #D1B3CD",
">X c #DAB6D2",
",X c #E6A7CB",
"<X c #F9A1CE",
"1X c #E9AED4",
"2X c #FAA5D3",
"3X c #F8A5D4",
"4X c #F5ACD4",
"5X c #FAACD5",
"6X c #FAADDA",
"7X c #E4B3D3",
"8X c #E9B2D5",
"9X c #EBB6D9",
"0X c #EBBCDD",
"qX c #F4B2D7",
"wX c #FAB0D7",
"eX c #F6B4DA",
"rX c #FAB3DC",
"tX c #F5BADD",
"yX c #F9BADE",
"uX c #EDBFE0",
"iX c #FAB5E1",
"pX c #F5BDE2",
"aX c #FABCE3",
"sX c #FBBDE6",
"dX c #D7D7DA",
"fX c #EAC9C2",
"gX c #ECC2E1",
"hX c #F5C3E4",
"jX c #F5C7E7",
"kX c #FAC2E6",
"lX c #FAC5EA",
"zX c #F6CBEA",
"xX c #FACBED",
"cX c #F7D1EE",
"vX c #FAD0EE",
"bX c #FBCEF1",
"nX c #FBD2F2",
"mX c #FBDAF5",
"MX c #FAD9F6",
"NX c #E3E3E4",
/* pixels */
"tXqXqXwXqXwX4X4XqXyXyXrXyXhXjXjXvXvXjXzXvXvXvXxXvXzXkXkXaXxXmXnXnXnXnXxXlXzXxXkXxXbXmXnXbXzXzXzXzXlX",
"yXtXyXeXyXtXyXqXqX9XgXgXgXhXjXvXvXvXvXvXvXzXzXvXvXvXmXvXxXxXmXmXmXnXbXnXbXxXxXxXlXsXzXmXnXmXnXnXnXzX",
"hXtXyXeXwXyXhXhXhXhXjXjXjXvXvXvXvXvXjXvXvXzXxXlXkXxXvXmXmXnXnXmXnXnXnXbXbXxXkXiXlXzXbXlXnXmXnXbXcXcX",
"kXkXkXyXyXyXkXhXhXhXhXkXjXjXzXvXvXvXvXjXkXzXxXkXlXkXlXlXvXnXxXnXmXbXbXbXbXxXlXsXsXxXnXnXbXmXnXnXbXnX",
"kXlXkXkXyXyXkXyXaXkXkXaXlXxXjXzXvXzX7XU.7XxXlXvXbXlXlXlXlXnXmXbXnXnXlXbXmXlXxXlXlXbXxXnXbXmXnXnXnXnX",
"kXlXvXkXyXhXkXyXsXpXhXtXY.<.8.*XhX8Xz.X.c.8XkXkXxXvXnXnXxXlXnXnXnXnXnXbXbXnXnXbXbXxXnXxXbXbXbXbXbXMX",
"kXkXxXkXyXyXkXyXhXaX;X+Xb.H ..^ W F j K X.c.P.^ >.7XlXxXxXxXxXnXnXnXnXnXbXnXbXbXlXlXlXlXlXbXnXbXbXcX",
"kXaXkXkXkXkXkXkXpXtXj.~ o.1 H %.o.U %.=.-...D u U A.jXxXlXlXlXxXxXxXnXxXnXnXnXmXnXxXxXlXlXlXnXbXbXnX",
"aXkXkXkXkXkXkXkXlXhXx.~ ! R ..&.,.=.-.;.&.K +.R +.*.U.cXbXxXsXkXxXkXxXvXzXvXnXnXlXlXlXlXsXsXxXbXbXbX",
"kXaXaXkXxXkXxXkXlXkX-XL S -.g.g.O.E ! X.^ 9 D ` ,.^ w.gXcXlXuX0X0XgXgXgXgXhXzXzXbXbXlXbXsXsXsXbXbXlX",
"kXkXyXiXlXxXxXkXkXhX;XF 6 F O.o./ t.y.) z W i.1.n b F [.zX>Xl.c.A.A.A.S.A.v.:XnXlXxXnXmXlXiX6XsXbXbX",
"sXsXkXlXlXxXxXxXlXpX1XP e r j z D.XXXX^.[ D.fX`.t.6./ [.xXE.R 7.#.W W W ^ ! U.zXlXbXlXnXbXsX6XiXlXlX",
"sXkXlXxXxXxXxXkXaXtXG.k g g 8 d ].}.}.|..X.XXX.X.X Xw.[.mX=XR $.L C.L.L.Z.@.U.xXxXxXlXxXnXlXsXiXlX6X",
"pXkXlXkXlXlXkXkXhX8Xo.y g g e , J.n.] N D.XX`..X^.s./ [.zX*XR O.4.dXNXNXdXC.U.xXxXlXxXnXnXbXlXsXlXiX",
"aXaXkXkXkXxXaXyXyXI.C u u e w , y.^.'.i.[  .V p.B { 4.).vX[.J +.S l.C.C.V.` U.lXlXlXlXxXnXmXnXnXlXsX",
"kXsXhXkXkXkXkXaXyX,X1.7 7 d z o B } { { f . V V f B b (.xX{.K *.v @.` ` ' @.(.xXkXlXkXlXnXlXnXlXbXlX",
"kXaXkXxXlXkXkXkXsXqXI.h 0 { F.} f M F.s.' < y.e.5.5.W (.jX{.T +.x $.$.4.` z.hXkXlXkXaXkXlXlXlXlXsXbX",
"lXkXkXkXkXkXyXrXeXtXc.t 0 } e.D.N [ e.t.5.B Q.s.B 6./ (.jX[.R %./ T.R.R.c.9.kXyXkXyXkXkXlXaX6XsXpXpX",
"lXlXkXkXkXkXrX2X4X6X+Xz.I } y.a.a.d.F.Q.J.^..XV  .H.| (.jX).R +.W R.E.oXw.8.yXyXaXaXaXsXkXaXrX6XiXrX",
"kXxXlXkXkXyX5X<X5X2X4X,XI.I n a.f.~..X}.].].'.s.^..Xs.U.lXE.R +.7 L X.^ v z.yXkXsXkXaXyXkXaXaXyXiXsX",
"sXlXkXyXkX6X<X5X5X2XeX;X1.; X ] a.f.!.B B b ' 5.] ^.p.(.9X-Xb...F F l.@.:.,XiXsXaXkXvXvXkXaXyXaXsXsX",
"aXxXkXyXiX5X<X6XyXtX,X2.t s , - f V e.e.B B 4.s.) ^.i.G.c.z.m.#.C 7 A l /.2X<XaXkXrXwXvXmXxXlXhXkXkX",
"kXxXxXaXyX2X5XyXtX7X8.- 5 0 : . o o n s.5.5.| | q.S.P.8.I o.U ~ k 7 x h G.U.M./.rXkXwXwXkXmXvXvXxXlX",
"yXxXlXyXyX5X2X<X,X7.- O : w q : - o - b t p < p Q v./.L d L s s L ' 4.4.w.7.! x.2XeX7X7X,X7XgXzXxXxX",
"5XkXkXyXwXwX6X%X1.1 & + + 5 q a 0 X > ' a   O + < n W } D.Q - , z W { 3.3.' W { (.x.o.) I ) 8.E.hXjX",
"wXyXkXkXyXyX5X/.v @ $ . . = q q p t s b =   . . X d H.J.{ m   o o 7.L.L.L.L.) 3 v j ~ d ; 3 ! 7.Y.hX",
"kXkXkXyXjXtX<Xu.> ; X     O > 0 q 5 5 * : : > = o B fX}.] f < ( c.L.T.A.` U ! Z D F -.3 1 T E ! u.9X",
"yXyXyXkXyXqX/.b = + + . O   @ : 0 0 5 5 0 d , > q I .XfX`.D.m q.OXT.$.g ,.7.k.X.o.O.Z.7 4 3.@.S r.#X",
"wXwXwXwX5X5XI.f + + + O X @ . O $ 0 0 p p p > > , M `.XXa.} { 7.OXV.i 3 7.l.l.^ P U 7.6 6 $.` v r.3X",
"wXwXwX5X<X_.2.= + X + X : : =   . . + + = - O O o , } a.d.f p 0.oXK.C # 9 C i 1 5 3 g # 7 ,.( p r.#X",
"yXwXwXwX5X_.) O O O @ : 0 q > > b . . . O & * & 0 p / b m z v k.oXT.7.H 8 6 6 : - 3 e # 3 #.~ 3 2.#X",
"yXyXyXrX5XG.t O & & ; q d 0 a q.OXW   v ` W E j.E.[.Y.` +.$.F l.=XoXOXA.*...k . * ; e 1 1 8 7 6 v.qX",
"wXyXyXyXqXn.@ & O @ 3 q q : W 7.w.S @ D v.).:XuXcXnX:X..H A e F #.$.3.` J A h G u.( g t 4 u u z.,X6X",
"yXwX5XwXqXn.. = O ; 0 0 w 1 s F Z K ..Y Y ~ Y.zXsXjX*X..H K g h _ 4.Z.Z.Z.l.3.v.#X_./.I.M.m.N._.$X$X",
"wXwXwXwX4XG.; .   % 3 w h t h S Z *.;.g.g.*.+.Y.hXpX7Xj.<.>.,.<.<.<.8.w.k.7.b.1X4X%XeX5X%X<X%X%X&X3X",
"yXyXwXyXtX{.L @ t D Y -.~ s @ % 6 C +.-.g.g.&.+.U.iXsXsXsXiXiXiXaX3X4XnXnXnXnXlXyX5XyX5X5XwXrXaXsXsX",
"wXkXyXyXyX{.! k ..g.g.-.A   @ 4 e g H ..&.g.g.=.%.-XsXsXsXsXsX6X@X@X$XxXbXbXbXxXyXrXrXwXyXkXkXkXlXuX",
"wXwXwXyXwXG.6 H =.g.h.O.l 8.G.U r 2 6 g J %.O.K H j.pXlXlXbXsXiX$XB.B.sXbXbXbXbXaXwX6XyXkXlXkXkXsXlX",
"yXwXqXqX,X1.1 K g.g.=.+.o.8XyX-X).x.P # 6 e j r 9 %.pXbXlXlXsXiX2X&X$XsXlXbXbXbXkX5X6XkXkXkXkXkXsXsX",
"wXtX;XD.) 5 1 K g.g.-.X.8.aXaXtX4X).,.  # 2 8 u 9 ,.lXbXbXlXsXsX6X2X6XsXlXsXbXbXkX6XyXkXkXkXkXaXuXsX",
"*XI.( k 9 2 3 D %.*...^ +XaXaXyX-X<.4 7 7 x c i H Y.sXbXsXbXsXsXsXiXiXiXsXlXlXbXkXyXaXkXaXaXaXaXsXsX",
">.c * u g 8 6 e D K C 8.6XaXiX9X8.i y y 5 j c h ^ :XzXbXbXsXbXsXsXsXsX6X6XsXsXbXlXrXaXaXrXrXaXiXiX6X",
"c.w.> 4 7 g g s 6 i j.1XyXaXkX>Xl y A T ~ E ' W.W.Z.zXbXbXbXlXbXbXsXsX6X6XsXsXbXsXrXkXrXrXrXrXrX6X1X",
"v.W.q.5 6 8 7 ; 2 z.8XaXhXxXzXgX4.4 R 3.0.0.0.V.0.4.zXbXbXbXbXbXsXbXiX6XiX6XiXbXlXsXaXrXrXyX6XrXiX9X",
"G.q.L.Z.Z.Z.3.s x.1XrXhXkXxXvXxX>XY.[.=X=X=X*XOXE.:XxXxXsXxXxXbXbXsXsXsXiXiXiXsXlXkXiXrXrXrXiXrXiXiX",
"4Xn.8.9.9.9.7.v.8XyXyXkXkXlXlXlXbXxXbXvXnXlXxXxXhXbXlXsXpXiXiXsXsXsXbXsXsXsXsXsXlXpXiXrX6XrX6X6X3X3X",
"yXqX8X8X7X9X0XtXyXaXkXkXkXkXvXvXbXxXlXxXlXlXhXsXhXsX6XiX6X6XpXsXbXsXbXsXsXlXsXlXsXiXrX6X6X6X4X&X@X%X",
"aXpXpXjXhXhXjXkXkXkXkXkXkXxXxXxXlXsXsXbXlXlXlXsXsXqX$X6XiXpXpXlXsXbXbXsXsXxXlXkXiXiX6XiXiX3X@X@X$X6X",
"aXpXlXhXlXlXbXhXkXlXkXkXlXbXlXlXsXsXlXbXbXlXsXsXsX6X%X6XsXpXuXsXsXsXbXsXbXsXbXsXiXiX6XiXiX&X@X$X3XiX",
"pXsXsXlXlXbXxXhXkXkXlXxXzXlXlXlXlXsXlXbXbXlXsXsXsX6X6XpXsXsXiXiXsXsXsXbXbXbXbXsXsX6XiXiXiX3X&X3XiX6X"
};
