/* XPM */
static char *_1707140957[] = {
/* columns rows colors chars-per-pixel */
"50 50 235 2 ",
"   c #080808",
".  c #0D0C0C",
"X  c #120D0D",
"o  c #0E1007",
"O  c #0D110C",
"+  c #15120D",
"@  c #0C0C12",
"#  c #0B0C19",
"$  c #120D12",
"%  c #120E19",
"&  c #061215",
"*  c #0C1213",
"=  c #0C131D",
"-  c #141214",
";  c #1A1514",
":  c #14121B",
">  c #1A141D",
",  c #12191B",
"<  c #1C1B1C",
"1  c #2C1414",
"2  c #231719",
"3  c #26201E",
"4  c #110F26",
"5  c #0E1623",
"6  c #141323",
"7  c #151A23",
"8  c #1B1B24",
"9  c #171529",
"0  c #1B1C2B",
"q  c #171E33",
"w  c #1D1C33",
"e  c #221D24",
"r  c #2B1D23",
"t  c #231D2B",
"y  c #231D34",
"u  c #231E3B",
"i  c #1B2328",
"p  c #1E302D",
"a  c #152633",
"s  c #1E2233",
"d  c #1E223A",
"f  c #242124",
"g  c #2B2527",
"h  c #24222B",
"j  c #362B2A",
"k  c #222333",
"l  c #282635",
"z  c #2B2A33",
"x  c #23223A",
"c  c #252A3B",
"v  c #2C2D3D",
"b  c #312D39",
"n  c #2A343A",
"m  c #3B3734",
"M  c #33323C",
"N  c #432925",
"B  c #56342B",
"V  c #473838",
"C  c #593B39",
"Z  c #5B403F",
"A  c #2A2A41",
"S  c #342D43",
"D  c #2C3244",
"F  c #343344",
"G  c #393644",
"H  c #3C3A46",
"J  c #343949",
"K  c #3C3B4B",
"L  c #363955",
"P  c #3D3C53",
"I  c #443D49",
"U  c #573F4E",
"Y  c #443D56",
"T  c #2E4A49",
"R  c #39474B",
"E  c #394455",
"W  c #3C605A",
"Q  c #43424E",
"!  c #4B464D",
"~  c #594A4B",
"^  c #444454",
"/  c #4B4353",
"(  c #4B465A",
")  c #484958",
"_  c #564857",
"`  c #514C5C",
"'  c #485B58",
"]  c #575659",
"[  c #684C46",
"{  c #72514B",
"}  c #644B5A",
"|  c #675858",
" . c #785955",
".. c #735C59",
"X. c #50615C",
"o. c #7B625D",
"O. c #484963",
"+. c #4C4C6B",
"@. c #544D66",
"#. c #545463",
"$. c #585567",
"%. c #5C5B64",
"&. c #5D5B6C",
"*. c #4C5271",
"=. c #535B7B",
"-. c #59597A",
";. c #6E5768",
":. c #695A6B",
">. c #785C73",
",. c #586568",
"<. c #4A706D",
"1. c #5F6173",
"2. c #6B686B",
"3. c #74736C",
"4. c #6B6673",
"5. c #726374",
"6. c #776777",
"7. c #7D6B7C",
"8. c #6E7177",
"9. c #797379",
"0. c #85655C",
"q. c #966659",
"w. c #946A65",
"e. c #877268",
"r. c #926C75",
"t. c #867877",
"y. c #957B77",
"u. c #A37465",
"i. c #8A807C",
"p. c #AF837C",
"a. c #C9897D",
"s. c #565C80",
"d. c #6E7783",
"f. c #767585",
"g. c #7C7984",
"h. c #7A7B8A",
"j. c #8D6B83",
"k. c #89788A",
"l. c #947687",
"z. c #96718E",
"x. c #9B7A93",
"c. c #A6718E",
"v. c #A97997",
"b. c #FA6DAF",
"n. c #728A8C",
"m. c #5AAAB8",
"M. c #77B0B1",
"N. c #6EC7CE",
"B. c #77C9CB",
"V. c #76C7D2",
"C. c #88878A",
"Z. c #9C8885",
"A. c #888896",
"S. c #978598",
"D. c #939596",
"F. c #AF8D90",
"G. c #9999A6",
"H. c #9891A9",
"J. c #AA89A2",
"K. c #B688A7",
"L. c #AC98AD",
"P. c #BD9BB6",
"I. c #9FA0B0",
"U. c #A9A5B9",
"Y. c #B5ABB2",
"T. c #D79E92",
"R. c #CBA99C",
"E. c #C398B6",
"W. c #D695BB",
"Q. c #E095BF",
"!. c #CDA9A8",
"~. c #D5B6AC",
"^. c #C2A3BE",
"/. c #CBA1BF",
"(. c #D8B9B3",
"). c #E5B7AA",
"_. c #E7BEB3",
"`. c #EDC7AB",
"'. c #E8C3B8",
"]. c #F3C4B9",
"[. c #B2B0C7",
"{. c #DF9FC4",
"}. c #F98BC5",
"|. c #FA94CA",
" X c #F19DCC",
".X c #FA9BCD",
"XX c #C9A7C4",
"oX c #DAA3C4",
"OX c #D6ACC9",
"+X c #DCAECD",
"@X c #D5B1CC",
"#X c #D8B2CC",
"$X c #DBB6D2",
"%X c #E6A5CA",
"&X c #F2A5CF",
"*X c #FAA2CF",
"=X c #EBABD2",
"-X c #F7A4D4",
";X c #FAA4D3",
":X c #F5ABD4",
">X c #FAABD5",
",X c #FAADDA",
"<X c #E4B3D3",
"1X c #EAB3D6",
"2X c #E5BCDA",
"3X c #EABBDB",
"4X c #F7B1D7",
"5X c #F5B4DB",
"6X c #FAB3DC",
"7X c #F5BADD",
"8X c #FABADE",
"9X c #EDBEE1",
"0X c #FAB5E1",
"qX c #F6BCE1",
"wX c #FABCE3",
"eX c #FCBFE8",
"rX c #A3C7CE",
"tX c #C8C7DD",
"yX c #E8C5D6",
"uX c #EDC4E3",
"iX c #ECC8E6",
"pX c #F4C4E4",
"aX c #FAC2E6",
"sX c #F3C9E6",
"dX c #FBC5EA",
"fX c #F6CCEB",
"gX c #F8C8E9",
"hX c #FACBED",
"jX c #F7D0ED",
"kX c #FAD0EF",
"lX c #FBCEF1",
"zX c #FAD2F2",
"xX c #FBDBF7",
"cX c #EAE8EC",
"vX c #FCFFFD",
/* pixels */
"5X5X4X4X5X4X:X:X4X8X8X5X8XaXgXgXgXhXjXjXkXkXkXkXhXhXaXaXaXkXxXzXzXzXzXfXdXlXdXdXhXzXzXxXlXfXfXjXfXgX",
"pX5X7X4X4X8X8X1X1X5X7XuXuXpXgXjXhXkXjXjXgXgXhXkXkXkXxXkXdXhXxXxXxXzXzXzXlXfXdXfXdXeXjXzXzXxXjXzXzXfX",
"aX7X8X5X4X8XaXpXpXsXsXpXsXjXjXjXsXfXgXgXfXfXgXaXdXdXkXkXzXzXzXxXzXzXzXlXhXhXdXwXeXfXlXgXzXxXzXfXzXjX",
"aXaXaX8X8X8XaXpXpXaXpXpXpXuX#XP.C./.#X#XOX@X+X3XaXgXdXhXkXzXhXzXzXlXlXlXlXdXdXeXeXhXzXzXhXxXzXzXlXzX",
"aXgXgXaX8X8XaX8XqXpXaXpXE.k.@.Y 7 ^ $.:.$.O.` k.XXgXaXdXdXzXzXhXzXzXhXhXzXhXhXhXfXlXlXlXlXzXzXzXjXxX",
"aXgXhXaX4XpXaXaXqXeXaXK.Y x L +.d F -.=.*.^ F K *.P.fXlXhXhXzXzXzXzXzXhXlXzXhXzXlXlXlXlXlXlXlXlXlXzX",
"aXaXaXaXaX8X8XaXeXqXK.O.O.+.+.s.+.Y O.O.+.J H ` &.*.E.hXhXfXhXhXfXlXjXfXhXzXzXhXdXdXhXdXhXlXlXlXlXzX",
"aX8XaXaXaX8XaXaXdX+X$.d E *.-.-._ ~ } U Y b ~ _ H R #.3XpX3X<X2X2XyX2X2XuXfXzXzXlXdXhXaXaXlXzXlXhXzX",
"aXwXaXaXgXaXgXgXaX+X_ 7 d L O.A { R.].R...~ (.p.~ V ^ uX@X4.5.>.5.2.2.5.4.@XzXzXdXdXdXdXeXdXhXlXlXlX",
"aXwXaXaXdXdXgXaXaX+X_ 9 x u u > e.`.`.`._.~.'.'.'.!.#.uXP.' h.&.1.1.,.&.E P.hXlXlXhXdXlXeX0XeXlXlXhX",
"wXdX6XwXdXhXhXdXaX+X` 0 y y y e  .a.e. .t.yX].`.~.i.` tXU.^ %.Y C.D.D.D.( P.hXlXlXhXlXxXdX0X,XeXlXlX",
"wXwXdXaXdXhXhXdXaX+X#.s x s 0 8 { p.Y.p...e.e.0.[ e.' rXM.R H :.cXvXvXcXg.P.fXzXlXdXdXzXlXwX,X0XdXeX",
"eXaXdXdXhXhXhXdX7XJ.d s k 9 7 - j 0...{ Z + j [ N m T V.m.E R v 2.8.3.2.Q P.kXhXhXhXdXhXzXdXwX6XdX-X",
"eXaXdXaXdXdXaXaXqXS.c y 8 V y.y.N N i.Y.! V Z 0.o.2.T N.m.E Q M ] :.,.X.%./.hXhXdXdXhXzXzXzXdXdXdX0X",
"qXeXaXaXaXdXaX8X6X1Xx.v 7 C w.y.0.B o.i.i.3.| p.[ 3.E N.m.E ^ v %.#.#.^ k.sXhXdXdXdXdXhXzXzXlXlXdXeX",
"aXqXaXaXaXdXaX8X6X%X:.a - V p.{ p.q.u.q.0.o.R.R.Z { T N.m.L I *.[.[.[.n.S.sXhXdXdXaXaXhXlXhXzXdXlXhX",
"aXwXaXaXaXaXaXaXaX%Xz.#.> 1 { q.a.a.).`.`.'.~.e.y.(.' N.m.T K ) H.G.G.n.k.fXaXdXdX8XwXaXdXdXdXhXaXhX",
"dXaXdXaXaXaXwX6X7XaX7Xx.e   1 { a.T.u. .....e.3.i.(.' B.m.W ^ z ` ] X.E S.dXaXaXaXaXaXaXdXwX,XeXwXqX",
"dXdXdXaXaXaX6X;X>X>X%X_ i 8 r 1 B { o.~ j m | X.| (.' B.V.n.' I / D.d.r.<XaXqX8XwXwXwXwXdXwX,X,X0X6X",
"dXdXdXaXaX8X>X*X>XQ.:.k s 8 % < 2 1 m 3.t.t.i.3.Z.C.<.' <.d.R l 8 Y ^ K.qXqXwXwXaXaX8XwXwXaX0X0X0XeX",
"aXdXaXaXwX,X;X>X:Xz.6 8 t e - X + 3 ; < g f n ' W n.<.' n.E F M r G G j.K.K.oX8XwX8XhXfXpXqXqXqXwXwX",
"aXdXaX5XqX>X*X>XoXI @ - r g e ; o 3 3   o o i n.M.M.p h c i z } ;.>.>.5.5.K >.=X5X=XW.$X$X#X+XeXaXaX",
"aXhXdXaXqX;X>X5Xx.& * X 2 r e h ; f f     X   i p T ] Z.~ % g V } 6.5.6.t.I } v.J.6.Y Y ` ` 4.OXhXdX",
"8XdXdX8X6X>X;XW.S * .   . < f h 8 8 > % X   X   g F.R. .V X 2 2 2.G.G.S.C./ 7 F G l ^ D c n R f.XXhX",
"6XaXgX8X4X4X&Xr.i * $     . < e i < e t e ; ; o Z '.`.0.N g :.k.I.U.h.@.K ) x P P S ^ S y &.Q 8.S.dX",
"4X8XaX8X8X4X&X} * = * O .   @ % < 3 f h t < < ; ] `.].~.F.~ 9.U.G.#.l &.h.A.^ -.&.( -.S k h.Q ` x.dX",
"aXaXgX8XeX7X{.} - * & O + . . @ . + - : > ; ; X Z ~.`.p.Z ] k.U.G.h 7 $.A.U.#.8.8.$.f.t 0 g.I Y v.eX",
"8X8X8XaX8X,Xv.e - O O * - : % @ f z X @ % % : $ < ..e.p.V < 9.U.G.n : F ( *.c ) E L ^ 6 8 g.R P z.-X",
"4X>X4X4X4X>Xc.< + o + @ - f h > 3.C.< * z M v b l ;.g V j n h.U.I.-.S w 4 w 4 A A y x 6 9 8.M K z.>X",
"6X6X>X4X*X*Xc.2 + o O $ 2 e e e 3.] i n L.^.^.^.P.$XI ^ ! R f.U.U.A.-.O.Y u # 4 5 = 0 6 = h 8 I E.-X",
"4X4X4X>X>X>Xv.8 ; o O O 2 h e b D.H , C.iXjXfXjXlXuXK G I y Y 4.4.1.( O.@.A Y r.r._ h t h h G K.-X.X",
"8X8X8X6X>X5Xv.8 - * * - i f : l ` ; . S.fXjXzXzXzXiXJ n b i b :.7.6.j.g.g.%.x.=X5XW.E.E.E.E.W.qXqX4X",
"6XaX4X8X6X8XF.l 7 , # . # : 9 y P 8 8 ^ <XhXhXzXzXhXH.l.k.k.z.z.j.j.x.S.x.J.$XqX0X5X6X8X6X6X6X6X6X6X",
"6X4X>X4X6X8X<XE.E.J.H < 7 A +.+.=.L 0 ` {.eXlXlXdXdXpXiXiXeX9X9X=X=XiXiXiXpXdXqX;X.X6X>X.X.X|.|.|.|.",
"4X4X4X4X4XaX7XpXaX<X2.> t Y s.s.1.E 4 K.dXzXhXlXhXaXeXeXeXeXlXeX0X.XeXzXzXzXlXeX,X.X8X>X*X;X*X*X.X;X",
"4X8X8X8X8XaXaX5X/.x./ > 4 u +.s.=.*.d P.hXdXhXwXeXeXwXqXeX0X0XeXeX,X,XzXzXzXlXdX6X,X8X>X>X>X8XwXeXeX",
"8X8XaXaX8XaX5XJ./ c q y % 4 S s.=.s.J XXhXhX0X6XeX0XeXeXeXeXeX,X}.}.|.lXlXlXlXlX8X6X6X6X8XaXaXaXeXeX",
"4X4X4X4X4X4XK.K d u x w # # u @.-.-.D XXhX,X6XwXeXeXdXdXdXdXeX,X}.b.b.eXlXlXlXlXwX6X,X8XaXaXaXaX9XeX",
"4X8X4X4X4XQ./ d x y w w #   9 S P P i ^.wXwXdXdXeXdXlXlXlXlXeX0X;X.X|.eXeXeXlXlXwX>X>XaXaXaXaXaXeXeX",
"aX4XaX8XaX(.M q k w u w # 4 w u x k k XXdXdXdXdXhXhXlXhXdXdXeX0X0X;X,X0XlXeXlXlXaX,X8XaXaXaXaXwX9XeX",
"qX6X8X6X6X{.H c s s s 6 7 s u u d q f.9XgXfXhXhXlXlXlXlXlXdXeXeXeX0XeX0XeXeXdXlXaXwXwXaXwXwXwXwXeXeX",
"qXqXqX6X6X{.n.G.b i 7 6 s w u u d q x.iXlXdXhXhXdXfXlXdXlXeXlXdXeX0XeX,X,XeXdXlXaX6XwXwX6X6XwXqXqX0X",
"wXqXqXwX6X4XL.I.G.) i , s x A S v , M $XdXhXjXlXlXlXlXfXlXlXlXdXlXeX0X,X,X0XeXhXaXwXwX6X,X0X6X,X=X,X",
"0XwXwXwXqX8X7XL.C.4.i i i l F v h 3.n.S.iXlXzXzXzXzXlXlXlXlXlXlXlXeX0X,X0X0X0XhXeXwXwX6X6X6X6X6X0X0X",
"6X6X0XqX0XwXdXpXXXK.Y # p n.A.C.A.rX[.,.$XzXlXzXzXzXlXfXdXdXlXdXlXeXeXeX0X0X0XeXaXeXwX6X6X,X0X5X0X5X",
"0X0XwXwXqXaXdXaXqX6XE.:.;.6.7.7.7.k.t.C.iXlXfXlXhXlXfXeXqX0X0XeXeXeXeXeX0XeXeXeXaXeX6X6X6X6X,X,X-X-X",
"0XqXwXaXaXdXdXaXwXqX9X3X1X2XuXyX9X3X2X9XhXdXeX9XpXeX,X0X,X,X0XeXeXlXlXeXeXdXeXeXeXqX6X,X6X,X,X.X}.|.",
"qXeXeXdXdXdXhXaXaXdXeXqXqXfXgXpX9X0XwXhXdXdXeXeXeX0X}.,X0XqXeXdXlXeXlXeXeXdXdXeXwX0X,X6X0X-X}.}. X,X",
"qXwXdXeXdXhXhXaXaXaXgXdXfXhXeXdXeXeXdXlXfXdXeXwX9X,X.X,XeXeXeX9XeXeXdXeXlXlXeXeX0X0X,XeX,X.X}.|.-X0X",
"wXeXeXaXgXfXhXaXaXeXdXgXhXdXdXdXeXeXhXlXhXdXeXeXeX,X,X0XeX9X0X0X0XeXeXlXlXlXeXeXeX0X,X9X0X-X.X-X0X,X"
};
