/* XPM */
static char *Untitled_design__11_1706189851[] = {
/* columns rows colors chars-per-pixel */
"50 50 212 2 ",
"   c #030567",
".  c #090B6A",
"X  c #272674",
"o  c #373779",
"O  c #383C79",
"+  c #3C3B81",
"@  c #1017A7",
"#  c #151CA6",
"$  c #1017A8",
"%  c #1D21A5",
"&  c #2A2DA5",
"*  c #3B3DA7",
"=  c #50498A",
"-  c #5C5A8B",
";  c #584A93",
":  c #6C659C",
">  c #4444AB",
",  c #5555A6",
"<  c #5354BD",
"1  c #7A4CA6",
"2  c #7971A2",
"3  c #6E69B9",
"4  c #7068B0",
"5  c #363DC6",
"6  c #2730D1",
"7  c #2831D7",
"8  c #323BDC",
"9  c #323CE2",
"0  c #3A42C6",
"q  c #474DCC",
"w  c #5457CB",
"e  c #5B5FD0",
"r  c #7973C4",
"t  c #6163DA",
"y  c #AE5197",
"u  c #8B56AC",
"i  c #8359AA",
"p  c #8859A8",
"a  c #A05CA1",
"s  c #8C67AE",
"d  c #9D63AA",
"f  c #9A65A9",
"g  c #956BAD",
"h  c #9C6AAC",
"j  c #9374AD",
"k  c #9A72AE",
"l  c #997CAC",
"z  c #8B6AB5",
"x  c #8561B9",
"c  c #8C6DBC",
"v  c #946EB5",
"b  c #9B6DB2",
"n  c #8F71BA",
"m  c #9674B4",
"M  c #9B73B3",
"N  c #967CB3",
"B  c #9C7BB3",
"V  c #9B7AB9",
"C  c #A36AAA",
"Z  c #A471AC",
"A  c #AB75AC",
"S  c #A369B2",
"D  c #B26AB7",
"F  c #A476B1",
"G  c #A776BA",
"H  c #B374BA",
"J  c #B974B8",
"K  c #B47ABE",
"L  c #BA79BE",
"P  c #F6549C",
"I  c #C576B8",
"U  c #D67BBD",
"Y  c #F878B8",
"T  c #D20DDE",
"R  c #C938D7",
"E  c #D13ADE",
"W  c #DA09E6",
"Q  c #DF06EC",
"!  c #E006EC",
"~  c #E903F6",
"^  c #EA18F6",
"/  c #DE30EA",
"(  c #BB50CD",
")  c #BB5ECD",
"_  c #997DC4",
"`  c #BA64CA",
"'  c #B277C0",
"]  c #B27EC3",
"[  c #D35CDF",
"{  c #C273D3",
"}  c #D75AE0",
"|  c #EA4DF2",
" . c #F542FB",
".. c #DC66E5",
"X. c #D47CE6",
"o. c #E667F3",
"O. c #8B83B3",
"+. c #9784B7",
"@. c #9C8DB2",
"#. c #9B97B5",
"$. c #9C9AB5",
"%. c #9B93BB",
"&. c #9B9BB8",
"*. c #A081AD",
"=. c #A385B4",
"-. c #AC84B5",
";. c #A58AB3",
":. c #A883BD",
">. c #A38DBB",
",. c #BA85BA",
"<. c #A394BA",
"1. c #AA96B9",
"2. c #B594BB",
"3. c #C887BD",
"4. c #E783BF",
"5. c #F883BE",
"6. c #9E95D9",
"7. c #A487C2",
"8. c #B483C5",
"9. c #BA8AC6",
"0. c #B786CB",
"q. c #A397CF",
"w. c #B194C2",
"e. c #B797C5",
"r. c #A294D3",
"t. c #A99DD2",
"y. c #ADA3CE",
"u. c #B6A6C6",
"i. c #BCA0C7",
"p. c #BCAECE",
"a. c #C386C5",
"s. c #CA88C7",
"d. c #DB86C5",
"f. c #D68CC9",
"g. c #C596C5",
"h. c #C492CB",
"j. c #C49CCB",
"k. c #C594D2",
"l. c #CA94D0",
"z. c #D699D2",
"x. c #DB9BD2",
"c. c #E785C2",
"v. c #F38DC6",
"b. c #F98BC4",
"n. c #E991CB",
"m. c #FA92C6",
"M. c #F494C9",
"N. c #F993CA",
"B. c #F59BCE",
"V. c #F99CCE",
"C. c #E49CD2",
"Z. c #E99DD3",
"A. c #F49FD1",
"S. c #FA9CD0",
"D. c #C7A9D7",
"F. c #D6A2D6",
"G. c #DCA6D7",
"H. c #DBACD7",
"J. c #D6A4D9",
"K. c #D6A9DB",
"L. c #DCB4DE",
"P. c #F4A0CF",
"I. c #E4A4D5",
"U. c #ECA2D4",
"Y. c #E3ABDB",
"T. c #E7A9D8",
"R. c #EAADDC",
"E. c #F4A3D3",
"W. c #FAA4D4",
"Q. c #F5A9D7",
"!. c #FAAAD7",
"~. c #F6A6D8",
"^. c #F5ACDA",
"/. c #F9ACDA",
"(. c #EFB3DF",
"). c #F6B2DE",
"_. c #FAB3DE",
"`. c #F5B8DF",
"'. c #FBB9DF",
"]. c #DC93E1",
"[. c #E98EE8",
"{. c #FE93FD",
"}. c #FA9CFB",
"|. c #DDBCE3",
" X c #E7B2E0",
".X c #EBB5E1",
"XX c #EFBCE6",
"oX c #F4B5E1",
"OX c #FAB6E1",
"+X c #F5BBE4",
"@X c #FABCE4",
"#X c #F2BFE9",
"$X c #FBBFE8",
"%X c #D3C4D9",
"&X c #F5C2E7",
"*X c #FAC2E6",
"=X c #F4C3E9",
"-X c #FBC5EA",
";X c #F4CCEE",
":X c #FBCBED",
">X c #E4D4E6",
",X c #E8D7E9",
"<X c #EDDBEE",
"1X c #FBD0EF",
"2X c #EDC8F2",
"3X c #FBCEF1",
"4X c #FCCFF9",
"5X c #EDDCF0",
"6X c #F2D0F0",
"7X c #FBD2F1",
"8X c #FBDAF5",
"9X c #FED1FB",
/* pixels */
"-X-X-X-X-X*X1X1X:X:X:X1X*X:X-X-X-X:X:X7X7X7X7X3X7X7X3X:X-X-X-X-X4X3X3X:X3X7X7X3X-X;X:X-X:X=X-X#X@X).",
"-X:X-X:X-X-X*X*X1X1X1X1X1X:X:X*X*X:X-X:X:X1X1X1X7X7X:X-X-X:X-X@X$X:X3X4X3X3X7X3X-X7X=X@X:X=X:X=X+X`.",
"*X:X-X:X*X*X*X*X*X:X1X8X1X1X:X:X-X:X:X:X:X1X:X1X7X3X:X:X-X:X$X$X@X-X3X3X3X3X7X3X-X7X-X@X$X3X:X=X*X`.",
"*X@X*X:X:X*X:X:X*X*X:X1X1X1X1X1X:X1X:X:X:X:X:X:X:X3X7X:X:X7X:X-X_.OX$X4X3X-X4X7X3X7X@XOX@X=X-X:X-X+X",
"*X*X*X*X*X:X:X:X:X1X1X1X8X*X*X1X1X1X1X1X1X1X1X1X7X:X:X:X:X3X8X-X/.!.OX:X3X:X-X3X7X9XOXOXOX-X-X3X-X+X",
"*X*X*X:X:X*X*X*X:X:X1X1X8X8X8X*X*X:X:X1X:X:X1X1X:X:X3X:X:X-X7X3X$XOX_.-XOX-X-X3X3X7X@XOX/.@X-X4X:X*X",
"*X:X*X:X:X:X:X:X1X1X1X1X1X1X8X8X7X1X1X1X1X1X1X1X1X:X:X-X:X-X3X7X$X-XOX-X/.S.-X$X3X;X-XOX/.OX-X:X7X=X",
"*X*X*X:X*X*X:X*X:X1X1X1X1X1X1X1X8X8X1X1X:X:X:X:X:X:X:X-X-X3X7X7X9X:X-X-X-X~.!.$X3X-X3X@X~.W.OX-X3X-X",
":X*X:X*X-X-X:X:X:X-X:X1X:X1X1X1X1X1X8X1X1X1X1X:X:X:X:X*X:X-X1X1X8X7X:X:X-X$XOX/.-X-X-X-XOXS./.@X-X-X",
":X:X:X:X:X-X-X:X-X*X-X-X:X*X1X:X1X:X1X1X1X:X1X:X-X-X*X*X*X'.1X:X:X1X-X:X:X-X-X@X$X-X$X-X-X_.W./.OX-X",
"*X:X*X:X:X:X:X:X:X:X*X:X:X:X:X*X'.'.'.1X1X:X1X1X-X*X:X:X@X'.-X:X-X-X:X*X:X:X-X$X-X$XOX$X-X$X_.W.S.).",
"*X'.*X:X-X:X:X:X:X:X:X1X*X:X:X:X:X'.'.'.:X*X:X:X*X*X'.'.*X*X-X-X'./.$X@X@X-X-X:X3X-X@X@X$X-X@XOXQ.W.",
"'.'.'.*X:X*X:X-X:X:X1X:X-X:X:X*X*X:X*X*X*X*X:X*X'.'.*X'.@X@X-X*X'././.@X_._.-X-X3X3X-X@X@X-X-X*X@X@X",
"W.W._.!.'.:X-X:X:X*X*X:X:X*X*X-X*X*X*X*X'.'.*X'.*X*X'.*X'._.@X-X*X@X_._.@X@XOX*X:X3X:X-X@X@X-X-X=X-X",
"!.'.'._.!./.-X*X*X*X:X-X*X*X*X*X*X'.*X*X'._._.'.*X*X'.-X:X1X*X@X@X'.'.@X@X*X*X$X-X3X3X:X*X$X@X@X-X-X",
"m.'.'.!.V.W._.*X'.'.*X-X*X:X-X'.'.'.'.'.*X'.!._.!.'.*X'./.:X8X:X-X*X@X*X*X*X-X-X-X:X:X:X:X*X*X*X@X-X",
"m./.-XOX/.+XXX).^.Z.~..XXX+X=X@X'.Q.U.).#X+XoXE.n.B.`.&X/.Q.`.6X:X:X=X+X.X`.oXXXXX=X=X=X=X:X-X-X-X@X",
"W.W.-X#XY.h.8.K ' D D ' 8.h.G.K.g.,.H a.z.Y.x.a.H J 3.H.H.a.L 9.D.|.K.h.8.8.] ] ] ] 7.8.j.Y.&X-X=X-X",
"_.!.$X.Xe.y.6.r.r.r.6.r.r.y.w.i.y.q.q.t.e.' w.t.r.q.u.3.e.y.q.q.p.:.i.t.6.r.r.r.r.r.r.r.y.e. X-X-X*X",
"@X_.OXH.=.e 9 9 9 9 9 9 9 q N k 3 9 9 8 6.1 r.9 9 8 O.g B e 9 8 r i <.8 9 9 9 9 9 9 9 9 e B J.-X-X@X",
"-X'._.G.V q 7 7 7 7 7 7 7 0 m u +.5 7 7 t _ t 7 7 < j S m w 7 7 r 1 +.6 7 7 7 7 7 7 7 7 w j F.@X@X@X",
"_./.'.F.m * $ $ & > > > > , ;.' g 4 @ @ # 3 # @ # N f I M > $ $ 4 1 <.& & & # $ $ % & & , =.G.*X@X@X",
"_.*X-XF.V o   . ; x c _ n j A d.K V X   . .     = s I s.m +     : p =.l z z +     ; z j @.2..X@X$XOX",
"*X-X-XF.N - O O : %.7.+.%.1.I n.C.g 2 O O O O O O.a 4.U M - O o 2 f s.3.C z - o O 2 i K g.Y.#X-X@XOX",
":X-X:XF.N $.$.$.&.&.&.&.$.@.,.~.R.D c $.&.&.&.@.s I B.U b <.&.&.<.h U.Q.f.M #.&.&.7.v Y.$X#X$X$X#X@X",
":X:X:XD.B %X<X<X,X,X>X>X>X@.9.+X X_ p.5X<X<X5X<X:.D U.f.m %X5X5Xp.h I.!.d.M %X<X5Xp.h Z.OXOX#XOX@X@X",
":X:X:XH.V |.9X9Xe.7.<.<.<.<.h..Xl.7.2X9X9X4X7X9X|.b z.l.G %X8X9XD.k R.'.x.M L.9X9XD.d Z./.!./.OX#X#X",
"*X:X&XH.V ].{.{.0.x x x z m e.z.' D.{.{.[.a.{.{.}.w.H a.V ].{.{.k.b T.@Xx.M ].{.{.k.h C.W.S.S.OX@X@X",
"-X-X*XF.V }  . .| o.o.o.o...w.b 7.o. . .` m |  . .X.h D v .. . .{ d n.W.d.M [  . .{ b Z.~.W.W.~._.=X",
"*X*X'.d.M R ~ ~ ~ ~ ~ ~ ~ W +.i X.~ ~ W V x R ~ ~ ^ 0.u v E ~ ~ ` d c.b.U k R ~ ~ ) b Z._.~./././.@X",
"'.'.).G.=.R ! ! Q Q Q Q Q T +.>./ Q Q ( z i :.W ! ! [ l j R ! Q ` A U./.C.F R Q ! ) G U.!.W./.^.!.OX",
"!._.*XR.e.=.M b b k M M M B *.u.k k g =.A k.;.F M M *.2.-.;.h k 1.,.).*X`.2.;.k k 1.,.~./.!.OXOXOXOX",
"'.*X&X&XH.-.Z f f h h h b A a.9.S a y y U $Xz.7.M M A g.3.A A Z ,.T.*X*X+XG.A Z Z ,.I.OX@X$XOX$XoXOX",
"*X'.-X1X:X_.E.(.oX`.oXXX#X#X=X@XoXS.v.P Y 3X4X-X:X=X+X^.!.!.`.+X&X*X*X*X&X+X+X.X).+X@X@XOXOXOX$X@X_.",
"'._.:X1X:X@X*X*X-X-X-X:X:X:X-X-XOX~.~.N.S.$X3X-X7X3X-X/.!._.*X*X*X*X&X*X-X@X@X@X@X-X@XOX_._.OX@X&X@X",
"_.*X1X1X-X-X-X-X-X:X3X3X:X:X3X-X$XOX_.S./.$X$X$X3X:X:X_./.'.*X-X*X*X'.&X&X@X-X*X&X@X$X@XOX/./.#X@X+X",
"'.*X7X7X:X:X:X:X:X:X:X3X3X-X-X$X$X$X$XOX$XOX$X$X:X3X:X@XOX*X*X@X'.'.+X*X+X*X@X@X@X@X$XOXOX_.OX#X@X@X",
"*X:X8X1X:X:X:X:X3X:X3X:X:X-X-X-X-X-X$X$XOX/.~.$X-X3X:XOX_.*X'._.`.'.*X`.'.'.@X_.OXOX$XOXOXOXOXOX`.'.",
"1X1X1X7X:X:X:X1X:X1X3X3X3X-X4X3X-X-X$X$XOX~.~.$X$X3X-XOX@X'._._.'.'.'._.^./.).).OX@XOX@X@XOX@XoX).`.",
"1X1X7X8X:X:X1X1X1X7X7X3X4X3X3X3X3X-X4X$XOX/.OX_.OX-X-X$X@X@X_._.'.^./.).).).)._.OX#X#X@X+X+XOX^.E.Q.",
"1X3X:X;X1X7X7X3X7X7X7X7X3X:X3X:X:X:X-X$XOXOXOXOXOX-X*X*X*X_._._._.)._.)._.oXOXOXOXOX@X@XOX_./.^.E./.",
":X:X1X7X7X7X3X7X7X7X1X:X:X=X-X=X-X-X$X$X$X$XOXOXOX-X*X-X'._._._.)._.).).).).).oX+X@X+XOXoX).).).Q.Q.",
"1X:X7X7X7X;X:X-X-X-X:X-X@XOX/./.#X$X$X-X-X$X$X$X$X$X*X*X'././._./././.W.V.V./.oXOXoXOXoXoX).).).Q./.",
":X:X-X-X-X-X$X-X@X-X@XW./._./.OX$X$X:X:X3X$X$X$X$X$X$X@X'./._._.!.!.N.b.N.^.)./.oXOXoXOX).).Q.Q.Q.).",
"-X@X*X:X:X$X-X$X@X@X/.N./.OX@X@X$X-X-X-X:X-X-X-X-X-XOXOX_._._._.!.5.b.V././.^.~.).^.Q.^.).^.~.Q.E.`.",
"*X@X-X3X3X-X-X@X@X@X/.A./.#X=X*X#X@X$X-X-X-X-X-X-X-X@XOX_._.'._.m.5.V./._.^.M.S.Q.M.M.B.A.A.E.Q.E.).",
"$X$X-X3X3X:X-X@X@X@X/./.OX=X@XOXOXOX@X$X$X:X3X3X:X$X$XOX/._.@X_.V.N.W.)./.Q.v.W.^.B.M.M.A.E.B.E.Q.R.",
"$X$X3X-X3X3X-X@X=X*X_./.@X@X@X/./._.OX$X-X4X3X4X-X-X$XOX_.@X@XOX!.E./._./.W.M.W.Q.A.A.B.E.E.B.E.Q.U.",
"-X-X:X-X3X3X=X-X-X-XOXOX@X@XOX/.W.W.OX-X3X7X7X3X-X:X-X$XOX@X@X@X_.!.).@XQ.!.B.Q.Q.E.V.E.E.E.B.U.E.E.",
":X-X:X-X-X4X3X:X-X#XOX@X-X#X@X/.W.!.@X:X3X7X3X:X-X-X$X-X$X-X#X@XoX_.@X_.^./.^._.Q.V.E.P.E.P.P.E.E.E."
};
