/* XPM */
static char *Untitled_design__9_1706189757[] = {
/* columns rows colors chars-per-pixel */
"50 50 216 2 ",
"   c #190E08",
".  c #1E130A",
"X  c #231306",
"o  c #24150B",
"O  c #2B1608",
"+  c #27190F",
"@  c #2D1B0C",
"#  c #321E0C",
"$  c #391F0A",
"%  c #251A13",
"&  c #2C1D12",
"*  c #301E12",
"=  c #2F200F",
"-  c #34210E",
";  c #3A240D",
":  c #3F280F",
">  c #2F2014",
",  c #2C2019",
"<  c #342313",
"1  c #3A2512",
"2  c #372816",
"3  c #3C2915",
"4  c #352519",
"5  c #3A2718",
"6  c #37281D",
"7  c #3C2B1C",
"8  c #3D2D21",
"9  c #3F3026",
"0  c #452A0D",
"q  c #4B300F",
"w  c #432C14",
"e  c #422D1C",
"r  c #492E18",
"t  c #4D3214",
"y  c #45311C",
"u  c #4A331D",
"i  c #513516",
"p  c #52331B",
"a  c #52391D",
"s  c #593C1D",
"d  c #422F21",
"f  c #433223",
"g  c #4B3523",
"h  c #4E3925",
"j  c #45352A",
"k  c #4B3729",
"l  c #47382D",
"z  c #4C3A2C",
"x  c #533B24",
"c  c #583D24",
"v  c #543928",
"b  c #533E2C",
"n  c #4D3E32",
"m  c #513F33",
"M  c #563F38",
"N  c #613E28",
"B  c #5C4123",
"V  c #56412D",
"C  c #5A422C",
"Z  c #4F4035",
"A  c #544234",
"S  c #5B4533",
"D  c #5E4933",
"F  c #54463A",
"G  c #5B453A",
"H  c #57493D",
"J  c #5C4A3C",
"K  c #624627",
"L  c #744524",
"P  c #634A34",
"I  c #674B38",
"U  c #624E3C",
"Y  c #6A4F3B",
"T  c #65513B",
"R  c #6A543C",
"E  c #6F593F",
"W  c #765538",
"Q  c #72593C",
"!  c #5A4340",
"~  c #5C4D42",
"^  c #5E5145",
"/  c #5F5248",
"(  c #624E42",
")  c #635345",
"_  c #6A5544",
"`  c #6D5945",
"'  c #635449",
"]  c #6B554A",
"[  c #6B5A4A",
"{  c #725A44",
"}  c #725D4A",
"|  c #7D5E4D",
" . c #6E5551",
".. c #765858",
"X. c #75614B",
"o. c #796148",
"O. c #7D5D62",
"+. c #894B2B",
"@. c #8A562D",
"#. c #8B5A31",
"$. c #88623C",
"%. c #8E5751",
"&. c #866445",
"*. c #966845",
"=. c #886654",
"-. c #84645A",
";. c #8C7054",
":. c #AA7646",
">. c #AC7653",
",. c #865B63",
"<. c #8B6668",
"1. c #94736C",
"2. c #906A74",
"3. c #9B6A77",
"4. c #8F7178",
"5. c #977375",
"6. c #A8796C",
"7. c #B47B66",
"8. c #A7667C",
"9. c #B88658",
"0. c #B98E6E",
"q. c #BE9365",
"w. c #C8985E",
"e. c #C29462",
"r. c #C79A69",
"t. c #C58A7F",
"y. c #D6A76B",
"u. c #CAA27A",
"i. c #D8AB76",
"p. c #DCB57D",
"a. c #E8BB7F",
"s. c #9C7883",
"d. c #A87B83",
"f. c #A47C89",
"g. c #C87EA0",
"h. c #B7888C",
"j. c #AE8696",
"k. c #B58799",
"l. c #B78DA1",
"z. c #BD94A4",
"x. c #CA9687",
"c. c #C88E97",
"v. c #C79A94",
"b. c #D8A786",
"n. c #D6AE82",
"m. c #DBB483",
"M. c #D5AB91",
"N. c #E9BE87",
"B. c #EAB492",
"V. c #E6BD94",
"C. c #C99AA6",
"Z. c #CC9BB2",
"A. c #D79AB9",
"S. c #F782BD",
"D. c #DAA3A6",
"F. c #D0AAAE",
"G. c #D9A4B5",
"H. c #E4B5A8",
"J. c #EAB4AB",
"K. c #E3A9BB",
"L. c #E7BBB9",
"P. c #F0C589",
"I. c #E6C194",
"U. c #EEC696",
"Y. c #EBC49C",
"T. c #F7CE99",
"R. c #ECC3B6",
"E. c #F5CDBE",
"W. c #F4D0BA",
"Q. c #F78CC4",
"!. c #FA92C7",
"~. c #F693C9",
"^. c #F49BCD",
"/. c #F99BCD",
"(. c #F49FD0",
"). c #F99CD0",
"_. c #DAA5C2",
"`. c #DCA9C5",
"'. c #DCADC8",
"]. c #DEB2CA",
"[. c #E4AAC6",
"{. c #E7A6C9",
"}. c #F4A0CF",
"|. c #E1B4C7",
" X c #F2BAC9",
".X c #E7AED1",
"XX c #EEABD2",
"oX c #F4A3D3",
"OX c #F9A4D4",
"+X c #F5A9D6",
"@X c #F9ABD6",
"#X c #F6ABD9",
"$X c #F9ACDA",
"%X c #E9BAD5",
"&X c #F6B2DD",
"*X c #FAB3DD",
"=X c #F7B8D9",
"-X c #F5B9DD",
";X c #F7B6E0",
":X c #FAB6E1",
">X c #F6BCE3",
",X c #FABCE4",
"<X c #EFC7C7",
"1X c #EDC2CD",
"2X c #F5CAC8",
"3X c #F6C8D8",
"4X c #F9D2D3",
"5X c #F5C3E4",
"6X c #FAC2E6",
"7X c #F7CAE6",
"8X c #FAC5EA",
"9X c #FBCBEC",
"0X c #FBD0EF",
"qX c #FBCEF1",
"wX c #FBD2F2",
"eX c #FBDAF5",
/* pixels */
"8X8X8X6X9X6X0X0X9X9X9X9X9X8X8X8X8X9X9XwXwX0XwX9XwXwX0X9X9X8X,X8XqXwXqXqXqXqXwXqX8XqXqX,XqXqX>X>X>X>X",
"8X9X9X9X6X8X6X8X0X0XwXwX9X9X9X8X8X8X9X9X9XwXwX0XwXwX9X8X8X9X8X,X,XqXwXqXqXqXwXqX8XwX,X,X>XqXqX>X>X>X",
"6X8X8X9X6X9X6X6X6X9X0XwXwX0X9X8X8X9X9X9X9XqXwX3X<X2X4X3X9XqX,X8X,X8XqXqXqXqXwXwXqXqXqX>X,XqXqXqX>X>X",
"6X,X6X9X6X6X9X6X8X6X9XwX9XwXwXwX9X9X9X9X8X3XM.m.Y.I.n.n.Y.2XqX8X:X:X8XqXqX8XqXwXqXwX,X;X;XqX,XqX8X>X",
"6X6X6X6X6X8X9X9X9X0X0XwX0X8X7X9XwX0X0X0X<Xe.u.Y.R.7X5X6.#.r.W.6X:X$X:X8XqXqX8XqXqXqX:X;X:X,X,XqXqX>X",
"6X6X6X7X9X8X6X6X9X9X0X0XeXeX0X7X6X9X9X3Xq.q.Y.4X9X0X0X8X*.%.e.E.,X*X$X8X:X,X8XqXwXqX:X:X:X,X,XqXqX>X",
"6X6X8X9X8X8X9X9X0X0XwX0X0X0XeXeXwX0X9Xu.:.b.2X9X0X9X8X8Xv.+.v.n.6X8X,X8X$X).,X8XqXqX,X:X$X:X,XqXqX>X",
"6X9X8X8X7X7X8X7X9X0XwXwX0X0X0X0XeXeXR.>.x.V.7X0X0X8X8X8X%XL |.q.2X8X8X8X,X$X$X,XqXqXqX,X$X$X,X,XqXqX",
"9X6X6X9X9X8X8X9X9X8X9X0X9X0X0X0X9X0Xu.7.R.Y.0X9X8X9X8X9X=X@.G.v.V.0X9X9X8X,X:X:X8X8XqX,X:XOX$X,X>XqX",
"9X9X9X6X8X9X9X9X8X6X6X9X9X8X0X9X9X3X9.D.H.R.0X9X7X9X8X,X X@.c.|.u.4X6X9X9X9X8X,X,X8X,XqX,X*X).$X;X>X",
"8X6X9X9X9X8X8XqX9X9X6X9X8X9X8X6X6XD.+.D.u.R.9X0X6X8X8X8X[.#.7.D.w.2X9X6X9X9X8X,X8X,X:X,X8X,X;XOX).&X",
"6X6X6X8X8X9X9X9X0X9X9X9X9X9X7X8X>X>.:.t.w.V.9X9X6X6X3X,Xc.>.b.v.y.J.6X,X,X8X8X9XqX8X,X,X8X8X,X;X#XoX",
"*X*X*X6X9X9XqX8X8X9X8X8X9X7X8X7XG.:.w.D.y.N.6X8X,X-X,X,X0.u.v.K.i.V.@X*X*X-X6X9XqX9X8X-X;X8X8X6X:X,X",
"OX@X*X@X,X8X8X8X8X8X9X8X6X9X5X5X6.x.0.L.b.b.L.,X-X6X,X6Xd.=XC.L.H.K. X*X,X*X&X%X].F.v.G.c.6.h.>XqX,X",
"@X$X=X$XOX$X8X8X6X8X8X8X9X8X6X XD.1Xh.1X3X$X X:X6X3X&XG.Y ;.-.1.x.H.v.2.-. .] G C v U j.6X,X[..X,XqX",
"/.*X6X*X/.OX+XG.Z.Z.F.Z.C.Z.z.j.{ o._ X.>.V.u.] _ I P A C c m A &.P.m.{ P b z S C g y x 1.5X6X,X,XqX",
"!.$X,X:X{.3.k S ' T _ X.X.[ [ [ Q S A f *.p.p.=.C C h h g g g x i P.T.p.W v y x B e e r g f.8X7X8X,X",
"OXOX8XJ.9.N b { Z F S F J H T T m b h p L V.U.N.&.h j g x g y y i q.T.T.a.P x B x e a s 7 k `.8X8X,X",
"*X@XB.*.v 4 d b C V V h j j V B b h x e u r.U.U.i.h u B g u a K a y $.p.i.C h C k h v g g B -.5X8X,X",
"-X@Xx.I m k m S R 8 z l y s u u f g B x d w W p.$.y h x f h h g h V D A K T T J H D P S A D P `.8X,X",
"6X=XK.K S I ( G y Y 7 f f a u 8 g f j h V b x e z V V V z S C P H J T ` H J E ` ) ~ _ F J J J s.,X,X",
"*X*Xh.v G ( ) J l V 7 u u y 9 7 g x z z Z D S A F J T F G ~ _ ) / T / ' / ` / ' ` X.) H Q R H  .>X,X",
"*X,X-.b U ) ' _ A 8 P u y u 8 8 k C n A A S F F T H F ^ ) X./ / ` X./ / [ X./ ' ' _ ) H J F J U .X;X",
"6X>XP A _ _ ] ] ~ f S y y 2 9 V n n Z J T F F J { ` ^ ^ _ ` / ' ^ ` ` [ [ / / [ [ / ) E J F D R A.,X",
"8X%Xv G ( ) ) ] ^ Z 3 V 7 6 V D D Z F H T H J J / ' ` ) [ ^ / [ [ / / X.[ / / [ ` ^ H E J F A J l.,X",
"8X3Xv T ( { } ' E H 7 V 9 8 9 Z H D ~ J H H ) ^ ' / ^ [ ) / / [ X.' ' [ X.' ^ J ^ H T J A D D A j.>X",
"9X%Xz U ( _ ' ] ` J 8 9 9 h V Z Z H J J H H ^ T ^ / ~ [ / / / ^ / ^ [ T / J E J F J Q Z Z D S z f.>X",
"8X].C J ] ( ] } / H 8 9 8 V Z l Z F T H F H H J H T J ^ H T E J H J Q D F Z T A A A S z V k k C f.>X",
"8X`.S G _ ] _ ] ' J f 6 6 l 9 j V Z Z V Z T A H F T D F H J T F Z F F Z V Z z Z S C z V b v f a s.,X",
"6X[.P U ( ( { ] ' J V = 9 9 9 9 V V n n Z K Z Z Z F F Z J Z Z Z S D Z Z S V l z V V j j v d f w s.,X",
"=XK.M W ( _ _ ] ' H 8 % y l 8 6 h 9 l Z l Z Z V D Z Z A V V Z V V V l Z V z j j h f B f d g c * 3.&X",
"$XA.M U U _ ( ] X.H 9 % 2 f f 2 2 6 l V Z j Z V V Z j Z V Z Z j V j V h j f B V f f B u e e r * 3.:X",
":X[.I G ( ( ( ) ) ! j % 5 e e 7 4 4 f h z l l V z j V l Z l C V 9 j B B 9 8 u f u 8 y u u 3 - : s.&X",
"6X[.S A U I U ) ( _ 7 * 5 7 y 7 * 4 6 f 9 h j j f v D h 9 9 B 9 8 y 9 y u u 7 7 y u 7 7 t - @ ; 3.;X",
"=X{.m M S U G I G G f < 7 , 4 & 3 w 4 8 f x h f 9 9 u f f u y 8 u u 7 7 a y 7 3 w w 2 3 q $ ; O 2.:X",
"$X{.c C S G G S G G b 4 h & 4 & < 3 4 7 f 7 7 9 u 7 7 8 a 8 7 7 y y 7 3 a y 7 2 2 - t : $ ; q O 2.>X",
",X[.g v A A P M Y J A , v o < & & & 1 y 7 4 6 y u 3 2 4 a 3 2 6 2 7 w 3 3 2 i q # - q = # @ # $ 3.:X",
"8X].e v k b M m U F n % S o 7 1 + & > e 3 4 4 4 3 < 3 3 3 3 r w 2 < t w - - 1 - ; ; # = 0 # O $ <.:X",
"9X%X6 g g c k P m m m % A o 1 1 O % < t 3 4 3 < > - i : < 2 t 1 = - 3 = 3 1 = - : ; # ; ; # O ; ,.$X",
"9X1Xe w e g d v z n g < v   & & + - & < @ 0 0 @ = - : = - - @ - : : = ; 0 - = ; : - - - - 0 ; # 3.#X",
"0X8Xv $ r e r g k k l f k X + + # ; $ @ @ @ ; - ; - @ - 3 ; = 1 3 ; - # - - w * = 0 2 4 2 7 3 G A.#X",
"0X9X2.# $ * r p d v l f d X + O . O O # - O O : - ; @ - ; @ - # = 1 w * < 3 < 4 2 6 b J ..f._.#X#X+X",
"0X9XZ.3 $ * 0 * 5 p d 8 d o $ # X X # ; - # @ ; - - - = - 3 w & < < 3 3 3 6 ! 2.j.A..X&X;X;X#X;X#X#X",
"9X8X;X<.N O # $ w 5 d d k O ; # X O @ - @ : - = = 0 3 < < 2 4 7 f G ,.8.g.{.:X$X-X*X&X&X;X#X#X#X+X;X",
"8X,X6X5X5.| I 5 $ $ w e g O # O O w & & 2 3 & 4 > 6 u j M O.s.A.}.S.Q./.#X$X$X+X&X+X+X#X#X#X#X+XoX&X",
"6X6X8X9XqX.Xk.-.{ v # 1 r # @ o 3 1 1 7 4 7 j  .4.j.A.[.#X:X:X$X~.S./.@X:X$X~.(.+X^.~.^.(.(.oXoXXX&X",
"8X,X8XqXqX9X8X,XZ.d.=.C b 4 5 j !  .<.s.k.'.8XqX9X6X6X*X$X:X,X:X/./.OX;X$X+X~.(.+X^.~.^.(.(.(.oX+X#X",
",X,X9X9XqXqX9X,X,X,X+Xk.j.Z.{.XXXX&X;X6X8XqXqXqX8X8X6X>X:X,X,X,X@X).$X;X$XOX~.+X+X(.(.(.(.+X(.(.oXoX",
"8X8XqXqXqXqXqX,X,X,X>X;X,X,X,X$X(.+X,X,XqXwXwXqX,XqX,X,X,X,X,X,X&X@X&X:X$X+X/.+X+X(.(.oXoXoX^.oXoXXX",
"8XqXqX,X,XqXqXqXqX,X,X,X,X,X,X&X$X$X,X,XwXwXqXqXqX,XqX,X8X,X,X,X;X&X,X;X$X$X$X&X$X^.oX^.oX}.}.oXXXoX"
};
