/* XPM */
static char *Untitled_design__13_1706189922[] = {
/* columns rows colors chars-per-pixel */
"50 50 239 2 ",
"   c #180E0D",
".  c #281918",
"X  c #341E16",
"o  c #3A211A",
"O  c #3C302B",
"+  c #4D2A1B",
"@  c #542C17",
"#  c #5B341D",
"$  c #663719",
"%  c #483128",
"&  c #593725",
"*  c #653B25",
"=  c #633D2B",
"-  c #5D402E",
";  c #69422A",
":  c #774728",
">  c #744A2C",
",  c #694732",
"<  c #724D34",
"1  c #784B36",
"2  c #6D513D",
"3  c #7D5534",
"4  c #73523B",
"5  c #79563B",
"6  c #7C543A",
"7  c #68564A",
"8  c #7B5945",
"9  c #776F6A",
"0  c #88562B",
"q  c #8B512E",
"w  c #854E34",
"e  c #825533",
"r  c #845C3D",
"t  c #8A5A38",
"y  c #96583B",
"u  c #A35C3F",
"i  c #8D613A",
"p  c #97653B",
"a  c #855C45",
"s  c #885B44",
"d  c #975D43",
"f  c #815B53",
"g  c #AF564C",
"h  c #85634C",
"j  c #8A6748",
"k  c #8A644C",
"l  c #936145",
"z  c #9B6245",
"x  c #936A45",
"c  c #9B6C44",
"v  c #9B654A",
"b  c #946D4A",
"n  c #98694B",
"m  c #9D7147",
"M  c #96704D",
"N  c #9B734B",
"B  c #8B6B55",
"V  c #8A6A57",
"C  c #966C57",
"Z  c #9C6C53",
"A  c #8E7059",
"S  c #947253",
"D  c #9C7553",
"F  c #99765A",
"G  c #9E7C5B",
"H  c #AA6245",
"J  c #A36648",
"K  c #AB6A4C",
"L  c #B3694C",
"P  c #A3744A",
"I  c #A3764A",
"U  c #A76755",
"Y  c #A36D54",
"T  c #AB6E52",
"R  c #B96B57",
"E  c #AC7255",
"W  c #AC7C53",
"Q  c #AC755B",
"!  c #A67959",
"~  c #A37D5A",
"^  c #B47455",
"/  c #BA7354",
"(  c #B37A5C",
")  c #BC7C5D",
"_  c #9A7A65",
"`  c #9D7071",
"'  c #A67C64",
"]  c #B57C63",
"[  c #B87D67",
"{  c #AF7370",
"}  c #C0675E",
"|  c #C47859",
" . c #C47D5D",
".. c #C77667",
"X. c #CE7D75",
"o. c #AA8258",
"O. c #AB825B",
"+. c #B3855A",
"@. c #9D806A",
"#. c #AA8562",
"$. c #AE8B64",
"%. c #A48469",
"&. c #AB8C6C",
"*. c #BD8265",
"=. c #B38D64",
"-. c #B78769",
";. c #B5926D",
":. c #B89269",
">. c #BA946C",
",. c #A58473",
"<. c #A78A74",
"1. c #AB8C74",
"2. c #BA8776",
"3. c #AD937B",
"4. c #B69677",
"5. c #BC9A71",
"6. c #B2937A",
"7. c #BA9C7B",
"8. c #BFA07A",
"9. c #C2815D",
"0. c #C48463",
"q. c #CB8464",
"w. c #CC8B66",
"e. c #C2876B",
"r. c #CD846A",
"t. c #C5896B",
"y. c #CC8D6A",
"u. c #D28769",
"i. c #D38B6B",
"p. c #CE916E",
"a. c #D3936D",
"s. c #C48C73",
"d. c #CB8E71",
"f. c #C18D7C",
"g. c #D48C74",
"h. c #CC9274",
"j. c #C39D72",
"k. c #C3947B",
"l. c #CD947A",
"z. c #D39573",
"x. c #DB9375",
"c. c #DA9B76",
"v. c #D39779",
"b. c #D89778",
"n. c #D59B7C",
"m. c #DB9C7B",
"M. c #E0977C",
"N. c #C7A37A",
"B. c #C4A47B",
"V. c #DEA07D",
"C. c #AA7985",
"Z. c #C8718E",
"A. c #B98B8A",
"S. c #B59A83",
"D. c #BA9E84",
"F. c #B99C86",
"G. c #BDA286",
"H. c #BEA48B",
"J. c #CA9A88",
"K. c #D49D81",
"L. c #D89D85",
"P. c #CC9092",
"I. c #CC9599",
"U. c #E39D82",
"Y. c #C3A484",
"T. c #C3A58B",
"R. c #C9AA89",
"E. c #DDA385",
"W. c #D5A68B",
"Q. c #DDA58A",
"!. c #DEA98D",
"~. c #CEB08D",
"^. c #D1B28B",
"/. c #C4AB93",
"(. c #C7A894",
"). c #CBAE9A",
"_. c #DCAB92",
"`. c #CBB198",
"'. c #D5B795",
"]. c #E2A485",
"[. c #E2A78A",
"{. c #E8A48A",
"}. c #E3AA8D",
"|. c #E4AE92",
" X c #E8AC91",
".X c #E5B197",
"XX c #E5B39B",
"oX c #EBB59A",
"OX c #E9B69C",
"+X c #C697AA",
"@X c #D796A9",
"#X c #DC9DB2",
"$X c #EE8ABA",
"%X c #CAA5A4",
"&X c #D7A9AA",
"*X c #CEB0A3",
"=X c #D7B5AB",
"-X c #D9AAB5",
";X c #DAB6B9",
":X c #E6BAA5",
">X c #EABBA4",
",X c #ECBEA9",
"<X c #EEC2AE",
"1X c #F0C3AD",
"2X c #F1C8B4",
"3X c #EB9CC3",
"4X c #F79BCC",
"5X c #F69DD0",
"6X c #DEAFC8",
"7X c #DCB6C2",
"8X c #E6AAC7",
"9X c #E5B8CB",
"0X c #EFA6D0",
"qX c #F4A3D2",
"wX c #F9A4D4",
"eX c #F4A9D6",
"rX c #FAAAD7",
"tX c #F6ACD9",
"yX c #F9ACDA",
"uX c #EDB8D5",
"iX c #F6B2DD",
"pX c #FAB3DD",
"aX c #F3BCDE",
"sX c #FABBDF",
"dX c #F7B6E0",
"fX c #F9B6E1",
"gX c #F7BCE3",
"hX c #FABCE4",
"jX c #E6C3CD",
"kX c #EAC1D4",
"lX c #F0C1DB",
"zX c #F6C2E5",
"xX c #FAC2E6",
"cX c #F5CAE6",
"vX c #FAC5EA",
"bX c #FBCAEC",
"nX c #FAD0EF",
"mX c #FBCEF1",
"MX c #FBD2F2",
/* pixels */
"vXvXvXxXbXxXbXnXnXbXbXbXbXvXvXvXvXnXbXMXbXcX6X7X7X9XuXlXcXvXzXvXmXmXmXmXmXmXMXmXmXmXvXgXmXgXmXgXgXgX",
"vXbXbXbXxXbXlXbXnXmXnXMXmXbXbXxXhXgX6X-XA._ _ _ <.3.S.S./.-XuXgXvXmXmXmXmXmXMXmXvXmXbXgXmXgXgXvXgXgX",
"xXvXvXbXxXbXxXxXvXvXnXMXMXbXbXaX+X8 2 h 8 < 5 h A %.1.S.F.H.H.&XuXgXmXmXmXmXMXMXmXMXgXgXgXmXhXmXgXgX",
"xXhXxXbXbXxXbXvXvXzXbXMXbXnX7X,.V 8 8 = = , < 8 k V A @.A.F.H.H.(.6XvXMXmXvXmXMXmXMXhXhXfXmXmXmXvXgX",
"xXxXlXvXxXbXxXbXmXmXMXMXMX%X<._ h 8 8 & + & & 8 h F @.@._ _ 1.H.H.H.;XvXmXbXvXMXmXMXfXfXfXhXhXmXvXgX",
"xXxXbXvXbXxXxXxXmXcXnXcX%X@._ A V 8 4 4 + + ; 8 @.&.&.G.S.S.3.3.3.G.(.;XfXvXvXvXmXMXfXfXfXhXmXmXmXgX",
"xXxXvXcXvXbXbXbXMXnXMX;X<._ @._ V 8 2 h 1 , 8 A @.&.;.7.G.G.H.H.G.D.H.).-XwXvXvXmXmXhXfXyXfXhXmXmXvX",
"xXbXvXvXvXxXbXbXcXMXjXF.,.1.@.@.V 8 2 h w = = 8 j &.5.8.T.R.T./.)./.T.T.).&XyXhXmXmXmXgXyXwXhXhXmXvX",
"bXxXbXxXxXxXbXbXbXlX`.6.3.,.<._ A B A a Y , < 8 5 i j S G 4.~.~.T.`././.H./.-XfXvXmXmXvXfX5XyXhXvXvX",
"bXbXbXbXbXbXbXbXxX=XH.H.<.S.G.S.<.4._ k F a a 5 3 r r > 5 F #.B.~.~././.`./.(.9XhXhXhXvXvXpXwXyXdXvX",
"vXvXxXbXbXbXbXbXjX)./.S.H.D.T.G.T.7.%.C ! Y Z Y Y ( E l l ~ D D >.^.`.R././.`.).hXhXhXhXvXhXfXwX5XiX",
"xXlXxXbXxXbXbXcX=X/.H.H.S.H./.T.;.o.Z C C Q ( ( t.a.z.a.0.( ( W o.j.^.^.H././.H.6XbXhXhXhXvXhXfXtXqX",
"sXpXsXxXbXbXbXkX`./.`.4.D./.T.o.P c z l W p.z.c.c.V.c.V.V.a.w.+.o.+.N.^.R.T.H.H.J.cXvXhXhXvXvXxXgXgX",
"wXwXyXyXhXvXvX;X/./.G.&.4.7.~ m n z T *.w.c.c.V.V.].].[.E.V.c.c.z.w.:.N.R.H.H.D.F.9XmXvXhXhXvXvXmXhX",
"rXyXsXpXrXyXsX`.H.`.&.@.&.D p t l E 0.p.z.V.V.[. X X.X}.}.E.m.m.c.z.9.>.N.R.D.7.7.%XbXbXvXhXhXhXhXvX",
"4XpXhXyX4XwX8X/./.D.G G G e e i Y *.y.a.V.]..XOXoXoXOXXX.X|.E.m.c.a.w.) j.^.D.6.6.D.cXbXvXvXxXgXhXmX",
"4XyXxXhXpXxX;XT.R.D b G t > e z ( e.y.a.m.}.>X1X1X1X:XOXXX.X}.m.c.z.w. .>.N.~.1.1.7.jXmXbXvXvXbXvXvX",
"wXwXxXxXxXvX*XY.4.j b x : > r l ( q.a.a.c.}.>X2X2X1X<X>XOX.X!.E.m.a.w.q.+.N.'.4.%.;.*XbXbXvXvXvXvXgX",
"yXrXhXbXvXaX/.T.#.i m > > 6 l ( w.w.w.a.c.[.:X,X1X<X>X>X<XXX|.Q.n.z.w.q./ j.^.R._ &.T.vXvXmXvXvXvXgX",
"sXpXhXbXvX9XR.R.b i i 3 i s E t.w.w.w.a.x.[.|.:X<X,X,X:X>X:X.XQ.n.b.w. ./ t.j.B.! ' 4.lXzXhXvXvXvXgX",
"xXsXsXvXbX9XY.Y.e i i 3 6 J t.w.w.w.p.p.p.n.|.,X,X,X>X>X>X>XXX_.E.v.y.) / +.:.j.#.~ ;.9XbXvXvXhXhXhX",
"sXyXhXxXbX;XR.5.: 0 ; * 6 ) 9.q.w.0.Q d k B C 1.J.:X>X,X>X>X.X4.C a , 1 e I +.0.] C &.;XvXvXvXhXhXhX",
"pXxXbXxXbX=XR.:.$ ; # * s [ .. .E z ^ t.d.e.Y s f ' J.XX.XW.! 1 , w z J J e P +.( Z #.=XvXxXvXhXhXfX",
"xXxXbXbXcX`.R.o.@ @ * # t ) +.| / / J d w d K E T E h.Q.L.s.d t y J H / / H p +.W Z ~ (.vXvXxXvXhXhX",
"bXbXbXbXnX(.N.o.q @ # $ y ) 0.0.R 1 o .   o % Q d.t.p.OXv.E T [ Y f s * y g y P o.Q ! T.gXhXhXhXhXhX",
"vXbXnXnXnX~.j.M * 0 q : z ) r.v.t.8 . % O O 9 _ -.l.t.OXh.Y s.V O .     X w p P o.Q n T.gXgXgXhXhXhX",
"cXbXnXnXMX).>.j : p q : z ) w.b.L.L.2.d f 8 ,.2.2.Q.d.}.e.] ' 3.V 7 7 % X = y m o.+.n 6.tXtXyXfXgXvX",
"vXcXcXbXvX(.>.m q J w : J / q.x.].{.Q.L.l.4.J._.XX_.d.E.d.f._._.D.[ C Y ( ..K p W +.Y 1.3X5X5XyXhXgX",
"bXbXxXvXgXR.>.x d 0.k.J H L | M.U.{.}. XoX>X1X1X>X!.d.].h.2.XX:X:XQ.K.d.d.q.L t c +.( $.0X5XtXyXdXgX",
"lXxXsXrXrXR.>.l a q.b.[ u H | i.M.{. X X>X,X>X1XXXK.h.V.v.[ W.|..X!.K.v.y. .H q t +.( ' 3XyXyXtXdXgX",
"sXpXpXhXbXk.5.x j Y 0.*.J y / ..i.M.{. XOX>X1X<X_.l.l.L.v.] s.!.|.Q.v.g.q.| u ; 3 W +.] #XwXyXyXtXfX",
"rXpXxXvXbX>.5.b S ! ) q.H p L | i.x.]. XOX,X2X<X_.s.v.L.z.[ [ [.[.m.g.i. .L q $ ; p o.Q @XyXfXfXdXfX",
"sXxXxXbXbX;.;.b G #.~ w.K z H | u.x.M.{.>X1X2X1XW.s.l.}.}.*.Q E.].L.i...| H : # * y W W P.sXgXhXdXdX",
"xXsXxXnXbX;.;.b F 5.7._ n v K / | i.x.M.oX>XoX1Xl.t.e.}.|.*.Y K.[.x.u. .R H * & = 0 I I P.sXpXhXhXdX",
"sXpXbXnXvX;.$.F o.B.B.S.V v E |  .u.x.M.E.XX1X>XQ.[ ] t.t.U ] Q.{.x.u.| L y + & ; : c I P.pXfXhXgXhX",
"pXxXnXnXcX:.=.G o.H.7.&.4 v ^ 9.i.q.i.c.M.}..X}. XQ._.] Q [ t.v.].M.q.L H y + ; : : m I [ pXyXhXhXhX",
"sXhXMXMXnX:.$.o.$.B.5.=.5 l ) q.w.w.i.a.c.[.E.].|.|..XQ.Q.v.h.i.z.a. .K J y % = > : p P 2.fXfXhXhXhX",
"bXbXMXMXbX-.o.~ ;.B.:.O.5 r ^ w.p.p.a.a.m.v.t.v.v.v.L.P.X.......0.a.) Y ^ e + , > 0 m P 2.fXhXfXdXdX",
"bXMXMXMXbX! O.~ 5.B.+.o.5 r E w.a.a.b.v.E.v.^ U R } } } g g y d s.n.] E Q 1 & , < e m +.J.hXfXfXdXdX",
"bXMXMXMXbX+.o.o.5.j.o.~ 3 5 J ) p.z.z.z.E.XXn.R ..X.X...X.R g U K.v.( ] T * & , 4 e I ;.&XdXdXtX5XeX",
"nXMXbXbXnXO.N o.:.=.m m 3 < i +.0.z.d.d.n.Q.!.p.R R J.I...g H e.s.e.' ] x & 2 , 5 3 o.B.=XiXiXtXqXtX",
"bXbXnXMXnX+.N ~ =.m p p : 5 < c ) q.y.t.l.E.W.E.K.t./ L R ( s.e.[ [ Q ! : 2 2 , 5 5 :.B.=XpXiXiXtXtX",
"bXMXMXMXnX$.N ~ =.p 0 0 > 5 < 1 [ ] 0.0.t.n.Q.!.XX.X}.].K.K.l.t.t.] Q w : j , 2 5 b 5.8.-XiXtXiXtXtX",
"bXvXvXvXbX2.~ o.=.I 0 0 0 e < C.gXI.*.[ *.h.E.E.{..X>XXXL.K.l.-.] U { Z.M h , < 8 S j.:.8XiXtXtXeXiX",
"xXhXvXbXbX-Xo.=.O.o.p 0 0 p e +XvXvXuXP.[ *.d.n.K.{.XXXXL.l.s.{ Q Z.4X5XF 3 ; < h =.#.F tXyXtXtXqXiX",
"xXxXvXmXmXaX$.8.;.D ~ N p p x 8XhXhXhXvX9XI.2.s.v.d.v.K.l.e.[ P.$XZ.5XyX{ > , 8 #.o.b 2.5X5XqXqX0XiX",
"vXhXvXbXmXcX(.8.4.@.j x r > ` iXfXfXhXhXhXvXzX9X&XI.P.P.I.#X0XfX5X4XwXpX#Xj M o.M M %.@X5XqX5XqXeXeX",
"hXhXbXbXbXMXlX7.5.o.S b h A 0XiXyXfXfXvXvXmXmXmXvXvXhXfXpXfXxXfXwX5XyXfXeX2.D j x o.2.3XqXeX5XqXeXeX",
"vXvXmXvXmXmXmXiX(.$.D C <.8XhXyX5XwXhXhXmXMXMXmXhXmXvXhXhXhXvXhXpXyXfXfXyX5X{ %.~ #.#XqX5XqX5XqXqX0X",
"vXmXmXhXvXmXmXvXvX9X-X8XzXzXhXyXrXyXhXvXMXMXmXvXvXmXvXhXhXvXhXhXfXyXhXfXyXyXeX8X@X8X5X5XqXqXqXqXqXqX"
};
