/* XPM */
static char *STEPS1706203972[] = {
/* columns rows colors chars-per-pixel */
"50 50 124 2 ",
"   c #020001",
".  c #0A0006",
"X  c #0E0008",
"o  c #13000C",
"O  c #19000E",
"+  c #1C0011",
"@  c #230014",
"#  c #2A0016",
"$  c #2C011A",
"%  c #32001D",
"&  c #3A001F",
"*  c #360121",
"=  c #3C0123",
"-  c #360924",
";  c #3D0B29",
":  c #2F1023",
">  c #420025",
",  c #4A0026",
"<  c #44042A",
"1  c #4B012C",
"2  c #44092D",
"3  c #49092F",
"4  c #50002E",
"5  c #4E0431",
"6  c #450F30",
"7  c #4C0C32",
"8  c #540333",
"9  c #590237",
"0  c #520D37",
"q  c #5E043A",
"w  c #550B38",
"e  c #5D0D3D",
"r  c #451331",
"t  c #4D1236",
"y  c #451E36",
"u  c #4E1B3A",
"i  c #55133B",
"p  c #5A143E",
"a  c #531A3D",
"s  c #60063C",
"d  c #4C233B",
"f  c #5D1A42",
"g  c #650D41",
"h  c #651344",
"j  c #6A1247",
"k  c #621B45",
"l  c #6E144A",
"z  c #691D4A",
"x  c #70164C",
"c  c #79114F",
"v  c #711A4E",
"b  c #711B50",
"n  c #7A1B54",
"m  c #552140",
"M  c #5B2444",
"N  c #5C2A48",
"B  c #5F304C",
"V  c #62254A",
"C  c #6A234E",
"Z  c #632B4D",
"A  c #6E2551",
"S  c #672D50",
"D  c #6C2C53",
"F  c #742454",
"G  c #732A56",
"H  c #7E235A",
"J  c #752D59",
"K  c #7C2D5C",
"L  c #6B3255",
"P  c #6A3856",
"I  c #713257",
"U  c #74325A",
"Y  c #7A335E",
"T  c #773A5E",
"R  c #7F3662",
"E  c #7D3B63",
"W  c #83255E",
"Q  c #82295F",
"!  c #862A61",
"~  c #8B2B64",
"^  c #8D2E68",
"/  c #853464",
"(  c #893467",
")  c #823C66",
"_  c #8B3769",
"`  c #853D69",
"'  c #8A3C6B",
"]  c #93396F",
"[  c #963770",
"{  c #9B3573",
"}  c #9B3D76",
"|  c #84446B",
" . c #8A436E",
".. c #86496D",
"X. c #8C4570",
"o. c #8D4971",
"O. c #934574",
"+. c #984376",
"@. c #924B76",
"#. c #9C467A",
"$. c #954D79",
"%. c #9A4B7B",
"&. c #8F5076",
"*. c #94527A",
"=. c #9A547E",
"-. c #A0487D",
";. c #9D5781",
":. c #AB4A85",
">. c #A55485",
",. c #A15984",
"<. c #AD558A",
"1. c #A75C89",
"2. c #AE5E8D",
"3. c #B25A8F",
"4. c #B56495",
"5. c #BB6B9B",
"6. c #C15D99",
"7. c #C2679E",
"8. c #C475A4",
"9. c #C27EA7",
"0. c #C77BA9",
"q. c #D78DB9",
"w. c #DD8FBF",
"e. c #E89FCB",
/* pixels */
"                                                                                                    ",
"                                                                                                    ",
"                                                                                                    ",
"                                                                                                    ",
"                                                                                                    ",
"                                                                                                    ",
"                                                                                                    ",
"                                                                                                    ",
"                                  .     .       .     .           .             .                   ",
"                            .       .       . .   .   .   .   .       . .                           ",
"                        .       .     . . . .   . . .       .     . .             .   .             ",
"                .           .   . . . . . . . . . . . . . . . . . .   . . . . .   .   .   .         ",
"              .       .   . . . . . . X X o o o o o o . . . . . . . . . . . . . . . . . .           ",
"          .       . .     . . . . X o O O O O + + O o o o o . . . . o . . o X X X X o . . . .       ",
"        . .   . . . . . . . . X o o O O + # $ $ @ @ @ O o o o o o o o o o o o O o o X O O . .       ",
"      .   . . o o . . . . . X o O + @ = a C U J A f $ @ + o O o o O O O O @ O @ + @ u P : . . . .   ",
"  .   . . X o . o O o X X o o O + # V @.` K H ] <.4.A * @ + + + @ @ @ @ t U 2 @ $ L | r O X .       ",
"    . . o o o - B y o o o o o + @ * ` l g ! } [ :.3.%.V @ @ + + m r @ t o./ D # D o.- O o o . . . . ",
".   . o o O r ..N $ o o o O + @ # e >.#.+./ l ^ -.l , < $ @ @ $ E i >  .g F F e ;.< O + o o . . .   ",
". . . o O ; *.a + O O o + + @ 2 J -.5.F 8 , x ] q s ` 6 $ $ @ < X., Y / > $.j $.C @ @ O o o . . . . ",
". . o o $ &.Z + + O o + + $ V | U h ' 1 = 1 >.^ } 4.%.< $ $ $ i O.9 %.9 s +.~ O.& $ @ + o o o o . . ",
". o O O S ..@ + + O O + - E E 7 % < ' 5 = < F #.0.F = % $ * % z ] W _ , ' ~ #.k % $ @ + + + o o o . ",
"X o o ; =.2 @ + + + + + L S $ $ $ <  .3 % = < ' G = % % % * & K ^ } x g +.W +.< % $ @ @ @ + - d o . ",
"o O O I E @ @ @ + @ + @ - $ @ $ $ 2  .< * % F ' = % % % = p e Q { } s +.n ( K & = ; t t $ < ..N o X ",
"o o % &.0 @ # @ @ @ @ $ a - @ @ # =  .< % < X.i $ % % % w <.} H :.{ } ( 1 +.v k / ` U J Y @.Z @ o o ",
"o o u ..% # % 2 r * % U | % @ @ # & o.0 $ C ) % % $ $ > ' <.! c 6.7.[ 8 = G ' | C 0 < s 0.K @ + o X ",
"o o S ) < S E U J J `  .= @ + + @ $ @.i % ` k # $ $ % R ' b Q { e.<.4 > % * 7 = % % 1 %.5.0 @ O o . ",
"X o r ..| E p 3 , 2.1.& @ @ + + @ $ *.p <  .< $ $ $ f ,.5 > e ] w.n = % $ $ @ $ % >  .] +.< @ O X . ",
"X o + ; ; $ $ & K 8.F # # + O + @ @ *.p 0 X.% % $ = ;.f $ * % 9 q.F % $ @ @ @ $ $ J ' v @.# + o X . ",
". X o O @ $ % C +.-.k @ + + O O + @ o.k i ) % $ % | J $ $ $ $ > 9.U @ @ + + @ @ 3 @.9 O.V @ O o . . ",
". X o o @ @ 7 $.j $.t @ + o o o O O E D 7 Y $ * R E $ @ @ @ @ # S t + + + + + @ I G F &.* + o X .   ",
". . o o + # E F A  .$ + O o o o O O Z S = L a E E * + + O o + + + + + o o o O # | O.$.t + o o . . . ",
"  . . o o t | e =.i @ O o o . o o o $ % @ ; B N $ + + o o o o o o o o o o o o @ M T r + O o . . .   ",
". . . o o Z $.O.I @ + o X . . . X o o o o o + + o o o o X X . X X X X . . X o o + @ + o o X . .     ",
"  . . X o r ..V # + o o X . . . . . . o o o o o X X . . . . . . . . . . . X X o o o X X . .   . .   ",
"  . . . X O @ O o o o X . . . . . . . . . X . . . . . . .   . . .   . .   . . . . . . . . .         ",
"    . . . o o X o . . . .   . . . .   . . .   . . . . .   . . .   . .   .   .   . . . .             ",
"        . . . . . . . .   . .     .   .     . . .     .       . .     . .   .             .   .     ",
".     .   . . .     .                                     .                   .                     ",
"                .       . .       .   .                                                             ",
"                                                                                                    ",
"                            .                                                                       ",
"                                                                                                    ",
"                                                                                                    ",
"                                                                                                    ",
"                                                                                                    ",
"                                                                                                    ",
"                                                                                                    ",
"                                                                                                    ",
"                                                                                                    "
};
