/* XPM */
static char *Untitled_design__21_1706193342[] = {
/* columns rows colors chars-per-pixel */
"50 50 244 2 ",
"   c #161413",
".  c #1B1817",
"X  c #211C1D",
"o  c #251F21",
"O  c #292325",
"+  c #322C2E",
"@  c #382D32",
"#  c #3D3338",
"$  c #45343C",
"%  c #266933",
"&  c #2D6D37",
"*  c #257736",
"=  c #2A7C3B",
"-  c #241A48",
";  c #473B42",
":  c #513F49",
">  c #314F59",
",  c #2D6549",
"<  c #2F6B4B",
"1  c #367A45",
"2  c #3A4E72",
"3  c #54444D",
"4  c #584751",
"5  c #634E5A",
"6  c #66535E",
"7  c #507553",
"8  c #666255",
"9  c #465473",
"0  c #6B5562",
"q  c #775D6C",
"w  c #536C6D",
"e  c #7D6373",
"r  c #6E7672",
"t  c #8C5C74",
"y  c #876A7C",
"u  c #877C7B",
"i  c #2C823F",
"p  c #378246",
"a  c #498455",
"s  c #568B5D",
"d  c #598667",
"f  c #678A6A",
"g  c #6E946C",
"h  c #728D73",
"j  c #788A75",
"k  c #6C9975",
"l  c #87887A",
"z  c #969978",
"x  c #2E138B",
"c  c #3A3991",
"v  c #3A0FB5",
"b  c #532D98",
"n  c #483296",
"m  c #481BB4",
"M  c #552FAC",
"N  c #4A24B6",
"B  c #6B36B9",
"V  c #3C4987",
"C  c #55478B",
"Z  c #6A5291",
"A  c #71698F",
"S  c #6A5DA9",
"D  c #724DB2",
"F  c #3A0ECD",
"G  c #5016CF",
"H  c #4B14D7",
"J  c #5A25C5",
"K  c #6C33C8",
"L  c #7A3AC6",
"P  c #6724D5",
"I  c #752BD7",
"U  c #7633D5",
"Y  c #5818E0",
"T  c #7118E0",
"R  c #762CE3",
"E  c #7828E6",
"W  c #7548C5",
"Q  c #90708F",
"!  c #96788B",
"~  c #AA6F8F",
"^  c #A67E98",
"/  c #8B51B6",
"(  c #B859B7",
")  c #8A6CB1",
"_  c #9976BA",
"`  c #AF72BA",
"'  c #CB7DA9",
"]  c #FB64A9",
"[  c #8234D3",
"{  c #893BDA",
"}  c #8A3AE3",
"|  c #903BED",
" . c #894BCA",
".. c #924BC9",
"X. c #9A59C8",
"o. c #9649D6",
"O. c #9854D4",
"+. c #A45ACA",
"@. c #A458D8",
"#. c #9D62CD",
"$. c #AA67C4",
"%. c #B977C9",
"&. c #A866D5",
"*. c #B46ED2",
"=. c #944AEA",
"-. c #A555E4",
";. c #B364E6",
":. c #B273E8",
">. c #C677D5",
",. c #C57EE5",
"<. c #7B9987",
"1. c #958886",
"2. c #899888",
"3. c #939889",
"4. c #898C93",
"5. c #989797",
"6. c #9B9B9C",
"7. c #AA8E94",
"8. c #A59898",
"9. c #92A794",
"0. c #A7A59E",
"q. c #B5A690",
"w. c #999CA4",
"e. c #978BB0",
"r. c #AB98A6",
"t. c #B191AF",
"y. c #9DA4A6",
"u. c #9BA1B6",
"i. c #A3A3A4",
"p. c #A8A8A9",
"a. c #B3A8A8",
"s. c #B3B2AA",
"d. c #A7AAB6",
"f. c #ACADB3",
"g. c #B9ABB4",
"h. c #AEB1B4",
"j. c #ACB4B9",
"k. c #B3B4B4",
"l. c #B3B4BB",
"z. c #B9B6B8",
"x. c #BBBCBC",
"c. c #C895AC",
"v. c #C788B9",
"b. c #C698B7",
"n. c #D69ABB",
"m. c #E99EA9",
"M. c #E193BE",
"N. c #D0ACA9",
"B. c #C8AABA",
"V. c #D7A9BB",
"C. c #C6B9BB",
"Z. c #D8B8BA",
"A. c #EAAEAD",
"S. c #F1B3AE",
"D. c #E8AAB7",
"F. c #F2ABB7",
"G. c #EAB7B7",
"H. c #EDBCBB",
"J. c #F1B8B3",
"K. c #F1B5BC",
"L. c #F1BABC",
"P. c #BCC1BB",
"I. c #C3C4BE",
"U. c #D1CEBF",
"Y. c #ECC3BD",
"T. c #B08BC9",
"R. c #B4A3C8",
"E. c #B7BBC5",
"W. c #BCBCC3",
"Q. c #C788C7",
"!. c #D588C7",
"~. c #C996C3",
"^. c #D093D2",
"/. c #D595D9",
"(. c #F196C9",
"). c #FA98CB",
"_. c #F99DD0",
"`. c #D9A7C5",
"'. c #D1ABC9",
"]. c #C9BAC4",
"[. c #D8B5C7",
"{. c #DAA4D6",
"}. c #E4A8C8",
"|. c #F5A7C8",
" X c #E9B8C7",
".X c #F2BCC4",
"XX c #F2B9C8",
"oX c #E8ACD8",
"OX c #FBA4D4",
"+X c #F9A9D6",
"@X c #FAADDA",
"#X c #E8B8D6",
"$X c #FAB4DD",
"%X c #F6B8D8",
"&X c #F5BADC",
"*X c #D190E9",
"=X c #DEA9F4",
"-X c #E6AAE9",
";X c #E1B1EA",
":X c #FBB6E1",
">X c #F5BAE4",
",X c #FBBCE3",
"<X c #BDC2C4",
"1X c #B9C2D4",
"2X c #C4C5C3",
"3X c #C7C7C9",
"4X c #CBCCCC",
"5X c #D8CACB",
"6X c #CED2CD",
"7X c #D5D2CA",
"8X c #C7C9D4",
"9X c #CCCDD2",
"0X c #DAC9D6",
"qX c #CDD2D8",
"wX c #D2D3D3",
"eX c #D5D5D9",
"rX c #D9D7DA",
"tX c #DBDCDC",
"yX c #ECC6C5",
"uX c #F2C2C4",
"iX c #F2C3CD",
"pX c #F2CACA",
"aX c #E6C5DA",
"sX c #F5C6D9",
"dX c #ECD4D2",
"fX c #E3DCDA",
"gX c #E3E1DE",
"hX c #DADCE1",
"jX c #E9CBE2",
"kX c #F5C5E4",
"lX c #FAC2E6",
"zX c #FBC5E9",
"xX c #F5C9E8",
"cX c #FBCBEC",
"vX c #E9D6E5",
"bX c #F5D5EE",
"nX c #FAD0EF",
"mX c #F2C2F0",
"MX c #FCCDF1",
"NX c #FBD2F2",
"BX c #FBD9F4",
"VX c #DDE1E4",
"CX c #E2E3E5",
"ZX c #E6E8EA",
/* pixels */
"%XXX|.K..X}.$.D.K..X}.K.L.L.uXuXiXuXuXuXY.0.a 2.x.nXxXkX>XmX=X=X:.MXNXcXzXxX;XQ.>XnXNXBXbXnXxXnXnXkX",
"&XS.`.}.!.o.} ..+.^.;.!.sXsXsXsX3.s sXsXZ.p = < < :. X#.-.+.I T =.[.yXyXq.Z L ) `..XyXpXpXpXpXY.Y.cX",
"kXH.X.{ ` { Y E o.Q.+.%.uXY.pXq.2 b w l f i V C n o.*X@.~...T =.V.Y.yXN.> v m n / ~.Y.Y.uXpXY.xXpXnX",
"kX.X` T U [ H I O.Q...Q.Y.3.l D P M n.Y.I.2 M < N Z S D U @.t.A 4.8.5.l - v v C t.}.pXiXpXdXdXsXpXBX",
"zXV...I P { P U X...O.t.l B.t.G H R ;.^.#X$.M V <.<.W 2 = h g.[.Z.C Z 0.u.) ) A 4.g.5XyX].N.dXnXpXNX",
"lXH.X.D P D Q u.r.d.l.f.3X2Xz.N H } ;.{.>X>X:.e.r.P.j.r < ].s.g j B.{.2X6X9X1Xy.j.p.p.5.d i 0.5XpXBX",
"lX.X` D W ) y.wXl.a.0.I.vX7Xi.*.I o.-X#X0Xi.j.d.E.4Xx.i.u.0Xg 2 r s.pXrXhXqX8X0.y.d.<Xx.<.% % 0.pXNX",
">X.Xj w *.e.d.2Xh.I.4XgX7Xj.g.kX-X-X#Xr.i.x.w.p.w.p.z.a.C.2.1 , % s cXwXqX1Xj.p.p.d.x.<X2.% * i.iXNX",
">X%./ C ..e.g.i.x.wX2XwX2Xj.'.,XzXcXzXaXx.E.a.w.z.6X3Xl.z.W.9.1 = s nX0.CXtXE.3XrX4Xz.s.6.> 7 yXpXMX",
">X` +.o.D d.f.5.<XhXtXZXtXjX&X:X,XxX#XW.hXqXl.h.wXtXx.CXgXfX2Xk.a 5.5.a.k qXVXtXwX2X2X0.d.C 9 s yXzX",
"lX.XD.}.8.k.6.p.h.CX4X4XfXlXzXlXlX,XaXrXtX1XW.W.CX9XZX3XI.6Xk.C.C.cXcX9.* k 3X6XCXrXqXk.g.M > i C.MX",
",XL.L.XXaX3XE.j.j.VX3XvXlXzXzXzXzXlXlXkXrXrXZXCX4X4XtXtX<X6.B.xXcXNXnX9.= % k 6XCX2XtXeX].Q a 7 G.zX",
">XH.H.iX#X2XeX1XwXVX0XzXlX,XzXlXkXlXzXcXxXdXjXjXvXbXvXbXaXjXNXcXnXnXnXk.= i i 9.tX2X4XfX].Z.XXl uXOX",
",XG.H.iX{.<XfXwXhXfX,X,XlXlXlX$XlXzXzXzXzXzXcXcXnXNXBXnXbXBXBXBXnXnXcXcXk.9.].sXjXr.6.k.9XZ.iXl uX$X",
">XH.H.iXiXk.5XaX5.>X$X$X$XlX$X$XcXzXzXzXzXzXcXcXcXcXnXcXnXnXnXNXBXnXnXcXnXxXcXzXxXzXG.C.t.[.yXh uXlX",
"lXG.G.}._ + 3.[.7.V.$X$X$X$X,XcXcXcXzXlXkXkXzXcXzXzXzXxXxXxXxXxXnXnXnXnXnXcXzXzXzXzXH.XX .O.r.l ~.zX",
"lXD.Q.I H x 1 f B.B.$X+X+X@XzXMXB.q # X   . @ 0 b.'.q # X   . @ 6 c.nXxXnXnXzXzXzX,XJ.XXf N 3.*.J 4.",
"cXb.{ P F F 2 2.7.V.,X,X,XkX>Xq                                     5 #XcXxX,X,X,XlXXX Xa > V.K n 1 ",
"zX+.o.R J G n b.r  X].}.$X#X;         + 3 #             + : #         + `.lX$X5X[.$X,XB.J $.F./ < p ",
"lXV.%.} { } J ! b.].7Xa.#X4     X q !.@X,XzX4         @ #XlXlX#Xy O     # #XaXtX<X0X$X! =.P D.^.X.) ",
"&XH.K.@.@.&./ ! z.wXdXy.7.o   . ^ $X$X@X_.!     . X     e lX,X&X,X~.O   o 7.rXhXhXW.0Xf T.P b.o.o.A ",
",XH. X}.oX_.).y.z.7XrXP.g.}.t ~ ).$XlX@X(.+     Q c.X   . oX,X,X@X:Xn.e !.#XhXE.qXj.h.d d /.B.O.^.2.",
"kXY.a.! >X}.a.p.i.9XwX4XfX$X+X).).@XzX$Xc.    @ OXOX4     ! zX:XOX$X,XlXlXaXZXf.j.8.u.u.W R.1.*X{.1.",
",Xl / _ Q 0.s.k.2X4XwXCXrX+X|._.@XOXzXzX!     t ).).~     0 MXzX$X$XlXlX,XaXCX4Xf.w.f.p.u.<.) =.#.l ",
"}.Z R /.) y.7Xz.C.wXrXwXrX+X@X$X:X:XzXzXy     ^ OX_.'     : ,XMXlX,XlX,X,XaX4XCXwXx.i.<Xi.p.S K A #X",
"t. .;.`.r.5.l.h.f.4XZXwX4X%X$X,XlX$X:XcXy     ^ :X@Xc.    : :XzXcX,XlXlXzXvX9XwXwX6Xh.7Xl.5.&.{.kXxX",
"'.q.*X`.-XT.i.k.w.f.z.ZXeX$XlXzX,X@XlXzX!     q @X+XQ     0 ,X@XzXzXlXzXzXjXtXCX3X3Xx.k.z.}.oX$XG.,X",
"^.B X.~.@.%Xg.d.5.l.f.9XvXkXzX$X@XlXlXlXB..   + >XlX:     ~ @X:XzXzXzXzXzXjXtX2XVXp.0.i.~.{.+X|.A.OX",
"*.M ^ v.Y /.7.g.h.8X1X9XfX#Xe y lXzXcXzXcX$     Q r.    X (.OX,XlXzXt.5 {.[.j.U.tXz.W.) B -.;.F.A.@X",
"j < 9 n.P ) u _.].4XVXtX].O   . ! kXcXnXnXt.      .     ! :X:XzX,Xr.X   X r.6.6XfXz._ J n M B ` m.OX",
"p.c c t.! * l $X#X8X6XrXlXq       3 B.#XjXaX4         # oX&XoXB.0       3 &XB.l.3X2.%.m v m [ o.` OX",
"*XU Q ~.n a B.$XlXsX].kXxX&X0         o + O .           O + O .       3 aXcX>XB.[.1.&XH F H P { c.:X",
"@Xn.7.8 I v.%XiXlXlXxXzXlXcXlX! O               O +               . e bXMXMXlX,X$X1.D./ G G I v.S.$X",
"$XS.F.j v.(.XXL.lXzXzXsXcXsXlXzX#X7.5 ; $ ; 5 ! oX#X^ 0 : ; ; 5 Q (.MXBXNXMXzX,XOX(.j 6 - L M.m.m.).",
"$XS.S.1.S.7.A n.lXlXlXa.9.p C.sX&X$X@X$XzXMXMXMXzXMXkX>X,XMXMXMX:X_.mXBXNXNXcXlX%X).f * 7 c.(.m.A._.",
"$XS.L.r c.b b M %.oXB.* * * = }.$X$XlXcXzXzXzX,X,X,X>X,X,X:X:X,X,X@X@XMXNXNXNXmX$X@Xt.w j .XXXJ.G.,X",
"%XS.2., n v R.I.y.6.p.p % % p  X$XlXlXNXcXzX:X$X,X,X>X,X,XzXzX@X).).).MXMXMXNXcX:XjX8XhX7Xg.iXL.G.>X",
"@XS.1.2 x B g.5XwXP.qX9.1 = = [.,X'.j k ].%X$XxXzXzXxXxXmXMX,X@X).] ] ,XMXMXMXMX0XZX8XeXrXk.N.H.H.lX",
"%XJ.A.r b 9 e.4XgX2XwXwXP.s 3.1.l j p = 2.d.wXrX9X9XwXZXvXeXlX@X_._.).,X,XMXMXjXhX3Xl.8X<XZ.j A.K.>X",
"$XJ.H.3., , 4.B.<XVXtXeX6XaX5.}.V.* 1 2.d.2X3XgXhXwXCX].8XrXeXaX@XOX@X:XMX,XBXqXrX9Xf.P.f.]._ w N.>X",
",XJ.K.s % % k s.k.3X4XeXtXhXy.$X$X* 2.wXdXgXrXwXwXhXP.p.1XhXwXx.,X:X,X:X:XvXwXtX9XrXj.3.w.%.O.C ) :X",
",XJ.K.s & * h i.x.2XwXeX3X3XZXaXzXz.a 9.9X2Xl.4XwXqXf.f.W.W.4X#XMX,X,X@X`.9XwXtX4XwXd.p.j.e.&./ v.:X",
",XJ.H.[.q.* h j.I.h.p.f.f.E.8XqX*XC.<.].].k.p.I.k.k.w.5.w.rX;X=X-X,X&X/.r.W.2XCX3X2Xk.x.p.` !.1.D.@X",
"$XL.K.%XH.H.Z.h.<XP.d.3.P.8XhXrXr 7 i.$.K 4.p.h.P.P.f.R.9.g.*X} I ^.m.%.6.wXCXW.z.x.I.3Xi.) +.v.G.$X",
"$XJ..X%XJ.XXb.5.i.f.f.e.j.E.hX9X[.Z.g.'.=XbX[.g.4Xj.f.k = 9 =.T F x q A ].7X6Xa.s.y.k.k.w. ...` K.$X",
"$XL..X%XH.%XV.#.X.D S <.p.e.W.C.H.Z.yXdX*X=.:.T.w.5.A % % D  .J F x w #X3XC.R.T.R.$.D / D P { ..F._.",
"$XL..X&XJ. XV.` L G - t.N.3.Z.N.`.}.&.&.&.#.O.[ %.) N 1 = 7 $.I Y W A.J.A.n...X.` L H P [ P T ' m.).",
">XL..XsX>XQ.*.O.K G b 7. X X%X*X| { O.:.&.T.:.} *X-.%.z z F.$.o.%.XXuXuXL.!.O.%.+.{ H I o...I ( F.@X",
"lXH.sXXXiX X^.%. .I /.iXpXiX}.-.[ T { -.| oX-.,.*X*X).|.%X%X%X/.%XsXsXsXlX/.;.*X&.{ P I } >.( !.F.@X",
",X.XXXiXsXsX&X&.$.#X#XiXiXiX:.| ;.-.oX/.#XXXoXXXXXF.F.J.L.J.J.K.K..XL..XuXXX!.n.}.n.+.@.F.F.m.F.K.@X"
};
